<svg id="Layer_1" data-name="Layer 1" xmlns="http://www.w3.org/2000/svg" viewBox="0 0 73.03 73.03"><defs><style>.cls-1{stroke:#fff;stroke-miterlimit:10;}.cls-2{fill:#b3b3b3;}</style></defs><rect class="cls-1" x="1.16" y="1.16" width="70.71" height="70.71" rx="15.54"/><path class="cls-2" d="M5.82,36.52c0-8.84,6.79-15.05,16-15.05,5.63,0,10.07,2.06,12.9,5.76l-6.12,5.46a7.8,7.8,0,0,0-6.29-3.37c-4,0-6.74,2.8-6.74,7.2s2.71,7.19,6.74,7.19a7.77,7.77,0,0,0,6.29-3.37l6.12,5.47c-2.83,3.7-7.27,5.75-12.9,5.75C12.61,51.56,5.82,45.35,5.82,36.52Z"/><path class="cls-2" d="M44.31,39.48a1,1,0,0,0,.36-.1c.24-.12.34-.24.6-.67s.43-.73.75-.89a.79.79,0,0,1,.44-.11A.71.71,0,0,1,47,38a3.15,3.15,0,0,1,.29.52s1.18-7.77,1.26-8.22.24-.66.54-.66.51.12.56.69.9,9.86.9,9.86l.19-1a.69.69,0,0,1,.67-.58c.34,0,.43.19.43.19s.65-2.15.78-2.56.16-.61.38-.72a.56.56,0,0,1,.71.18c.06.09,1.15,3.65,1.15,3.68s0,0,.14,0a1,1,0,0,1,1,0l.33.16a.69.69,0,0,0,.42.1l5.48,0L54.63,22.13H45.09L37.52,39.46Z"/><path class="cls-2" d="M62.73,40.67l-6.1,0a1.33,1.33,0,0,1-.48-.1,2.56,2.56,0,0,1-.4-.16,1,1,0,0,0-.16-.08l-.1.17a1,1,0,0,1-.38.42.72.72,0,0,1-.58,0,.8.8,0,0,1-.41-.49c-.1-.25-.84-2.51-.84-2.51s-.53,1.76-.6,2a.49.49,0,0,1-.53.4.51.51,0,0,1-.48-.23S51,44.64,51,45a.47.47,0,0,1-.54.43c-.28,0-.45-.2-.48-.54s-1-9.94-1-9.94-.78,5.1-.83,5.39a.53.53,0,0,1-.53.48.55.55,0,0,1-.57-.32c-.13-.23-.7-1.4-.7-1.4l-.19.32a2.42,2.42,0,0,1-1.31,1.14,1.9,1.9,0,0,1-.78.09H37l-4.5,10.3h9.86l1.93-5H55.25l1.93,5h10Z"/></svg>