<svg id="Layer_1" data-name="Layer 1" xmlns="http://www.w3.org/2000/svg" viewBox="0 0 1440 1080"><defs><style>.cls-1{fill:#e6e6e6;}.cls-2{fill:#ccc;}.cls-3{fill:#f2f2f2;}</style></defs><polygon class="cls-1" points="-248.52 1574.38 -250.15 1568.75 -267.49 1508.91 -285.49 1446.8 -290.72 1428.74 -323.77 1314.69 -330.64 1290.98 -332.28 1285.34 -367.29 1164.52 -369.91 1155.48 -386.93 1096.77 -387.58 1094.51 -389.54 1087.74 -441.57 908.2 -509.96 672.21 -632.99 247.65 -650.01 188.94 -651.65 183.29 -654.26 174.26 -637.33 169.35 -631.68 167.72 -585.39 154.3 -576.35 151.68 -527.8 137.61 -522.15 135.97 -473.6 121.91 -466.83 119.94 -417.14 105.54 -411.5 103.91 -361.82 89.51 -356.17 87.87 -306.49 73.48 -300.84 71.84 -251.16 57.44 -245.51 55.81 -198.09 42.06 -192.44 40.43 -147.28 27.34 -138.25 24.72 -111.15 16.87 -105.5 15.23 -76.14 6.72 -70.5 5.09 -41.14 -3.42 -36.62 -4.73 -7.26 -13.24 -0.49 -15.2 27.74 -23.38 32.26 -24.69 62.74 -33.52 68.39 -35.16 133.88 -54.14 140.65 -56.1 202.76 -74.1 209.53 -76.06 237.76 -84.24 243.41 -85.88 272.76 -94.39 278.41 -96.02 331.48 -111.4 337.12 -113.04 389.06 -128.09 401.49 -131.69 457.94 -148.05 463.59 -149.69 491.82 -157.87 496.33 -159.18 526.82 -168.01 532.47 -169.65 584.41 -184.7 590.05 -186.34 641.99 -201.39 647.64 -203.03 699.58 -218.08 705.22 -219.71 767.33 -237.71 782.01 -241.96 850.88 -261.93 856.53 -263.56 882.5 -271.09 889.27 -273.05 915.25 -280.58 919.76 -281.88 942.34 -288.43 946.86 -289.74 984.12 -300.54 994.28 -303.48 1081.23 -328.68 1115.1 -338.49 1220.11 -368.93 1226.89 -370.89 1275.44 -384.96 1282.22 -386.92 1342.06 -404.27 1351.09 -406.88 1405.29 -422.59 1410.94 -424.23 1433.52 -430.77 1652.58 -494.25 1754.67 -141.96 1762.19 -115.99 1774.3 -74.21 1806.37 36.45 1935.29 481.33 1942.16 505.04 1943.8 510.69 1990.59 672.15 1992.23 677.8 2026.91 797.49 2028.55 803.13 2042.62 851.69 2044.26 857.33 2056.69 900.24 2058.32 905.87 -248.52 1574.38"/><path class="cls-2" d="M1330.65,1110.64l-.7-2.42c-1.49-2.11-4.15-2-6.77-2.9-1.58,2.58-4.21,2.74-7.12,2.23-5.72-1-11.58-1-17.12-3.3-1.86-.75-4.32.09-6.51,0-5.8-.13-11-2.92-16.46-4.11-5.92-1.28-7.69-5.71-10.77-10.72-4.48-3.94-10.68-7-16.74-10.3-6.59-3.57-13.37-6.56-21.14-6-2.32-1.48-5.08-.34-7.66-1.19-.54.42-.74,1.38-1.83,1.6-3.11.63-4.92,3.13-6.78,5.35s-2.14,8.49,0,11.31c2.78,3.63,4.35,7.92,7.4,11.43a150.87,150.87,0,0,1,10.94,14.14c4.47,6.58,8.12,13.47,9.79,21.31Z"/><path class="cls-3" d="M2037.85,864.78l-38.39,11.12-17.19-59.32c23.25-6.73,35.75-10.41,46.28-13.45l-1.64-5.64c-6.6,2.14-17.33,3-24,5.74-10.74-39.41-24.72-77.65-35.16-117.1,9.12-1.91,16-5.71,24.51-8.33l-1.64-5.65L1966,679.29c-12.84-39-24.55-77.74-35.34-117.3-5.75-31-31-44.2,13.19-51.3l-1.64-5.65-27.09,7.85c-9.23-33.14-19.32-65.74-29.73-98.35-3.85-3.58-30.12-18-37.75-20.88-1.22-11.9-13.81-26.73-4-36.62,89.5,41.9,60.6,41.83,91.7,124.29L1806.37,36.45c-13.55,3.68-27.46,6.13-40.84,10.61l-25.78-89c6.18-7.23,15.31-8,23.43-10.78-.28-1.74-.34-3.27-1.57-4.37-19.35,5-36.23,17.56-56.53,19.3-6.35-27.19-17.71-53-24-80.52l36.61-10.61c2.28-13.08-31.21,5.51-39.16,5.29-1.07-2.27-3.6-2.59-5.24-4,2.83-8.47,36.79-7.44,26.47-15.51-10.3,3.86-20.58,3.68-30.1,11.06-1.64,6.88-11.8,6.67-17.53,8.78-6.58,1.24-11.18,8-18,6.45-8.09-4-16.22,1.53-23.69.34-8.88-16.14-7-57.9-18.47-63-2.9-5.4,1.34-8.13,4.95-11.3.58-7.78-2.47-14.34,5.88-19-1.39-7.41-6.66-12.69-10.23-19,1-6.8-13.35-14.1-17.63-20,.18,7.66,10.23,12.1,15.61,17.27.7,7.7,7.07,13.13,9.34,20-7.14,7.79-6.23,8.93-4.63,18.94-2.46,1.11-3.3,4.65-6.91,4.4-14-50.59-70.25-69.72-115.39-85.37-8.22-28.52-16.75-57.36-30.73-82.37,4.28,1.41,7,5.31,11.11,6.89,4.72,5.5,9.63,11.67,14.44,17.49,14.69-6-31.61-33.42-36.24-39.15-12.65-15.55-15.36-34.64-20.55-53.38l-5.65,1.64c1.93,22.68,15.2,48.93,29.09,67.32,18.39,23.38,21.45,53.72,31.61,80.44-33.39,2.76-59.44-18.42-74.75-46.69a202.5,202.5,0,0,1-40.15-85.36l-9,2.61c7.41,37.65,25.38,69.36,48.32,99.66,9.69,16.08,16.5,33.23,35.64,41,24.64,8.75,51.86,4.91,74.07,20.2-3,18.16-7.15,36.14-9.44,54.47-59.17-10.24-65.79-11.37-102.35-59.23-42.66-40.43-103.14-75.12-106.08-138.75l-6.78,2c7.82,59.75,42.06,82.18,83.81,119.54,31.4,18.63,46.81,66.44,82.24,71.93,17.52,6,41.18,4,54.67,16.88,18.72,24.58,17.91,61.25,32.09,89.06-23.08,4.7-47.35,18.12-69.47,19.36-.84-16.34-9.15-32.6-12.63-48.71-1.11-.31-1.73-1.39-3.46-.68,1.07,16.06,8,35.69,12.35,52.5l-66.62,19.31c-9.88-27.54-13.1-58.93-27.07-84.4-.11-5,8.65-25.87-2.3-18,1,5.29-.73,17.62-7.55,12.64l-61.38,17.79c-4.72-30.55-16.92-59.47-24.39-89.57l62.15-18c-.69-1.59-.54-3.08-1.8-4.22l-62,18c-14.69-51.74-39.52-104.66-37.14-159.34l-6.78,2c1.54,6.6.31,13.08-.35,19.56-4.63,1.25-8,4.43-12.47,5-7,5.28-16.16,6.91-24.77,8.39-31.45-2.61-61.14,28.32-92.49,16.35,6.41-7.87,19-11.12,25.07-18.83l-33.87,9.81.47,1.64c-19,17.75-58.07,7.39-65.86,36.92-.92,14.12,1.91,29.73-2.1,43.37-11.58-16.1-12.35-38.31-19.46-56.73l-10.16,2.94c8.32,19.73,10.07,41.84,21.36,60.09-10.88,5.92-23.84,11.93-33.74,20.67-16.42-18.38-16.23-47.26-24.88-70l-4.52,1.31c5.17,21.18,15.36,40,20.23,61.34-8.18,1.85-16.41,5.78-23.85,6.35-5.67-20.6-12.13-40.92-19-61.15l-4.52,1.31c6,20.35,13.49,39.92,18.8,60.65-8.93,2-17.67,6.23-26.14,6.94-5.81-20.19-13.27-39.68-18.63-60.06l-6.77,2c7.9,18.92,11.5,40.27,19.43,58.63-4.72,7.19-15.37,2.38-21.45-.32-18.38-7.83-14-35.43-24-50.78l-5.65,1.64c19.14,83.45,43.2,58.1,107.6,38.68,4-3.17,5.73-2.79,7,1.79,7.67,3.78-1.74,11.85-4.36,16.67-12.78,13.42-6.73,33.81-15.21,49-25.54-2.49-48.68-22.25-72.1-33.05C844.06-207.42,810.36-222.6,782-242l-14.68,4.25c25.23,13.28-16.63,10.87,8,80-69,22.23-39,26.95-70.08-62l-5.64,1.63c15,26.21-30.24,21.43-46.51,30.61-3.41-3.31-3.32-10.84-5.43-15.56L642-201.39l4.55,15.68c-17.56,5.11-34,12.5-51.68,16l-4.81-16.59-5.64,1.64c14,27.47-30.39,22.84-47.07,31.88l-4.87-16.83L526.82-168c2.24,5.52,2.29,11.47,3.42,17.07l-30.34,8.79c-1.56-5.8-1.25-11.7-3.57-17l-4.51,1.31c-.51,6.05,2.64,11.39,3.49,16.82-16.85,8.53-29.54,14.65-31.72-8.64L457.94-148c.82,6.1,6,13.09,3.63,18.39-22.39,7.19-50,14.94-55,15.43l-5.07-17.46-12.42,3.6c.65,6,7.79,12,4.68,18.23L343.19-95.22c-3.63-4.14-3.72-12.34-6.07-17.82l-5.64,1.64L337-92.21c-17.85,2.47-34.8,10.12-52.41,13.43A88.46,88.46,0,0,0,278.41-96l-5.65,1.63,5.57,19.2C257.88-70.65,247-57.87,243.4-85.88l-5.64,1.64L243.32-65c-20.34,4.8-30.13,16.35-33.79-11l-6.77,2,5.5,19C191.11-49.35,151.05-38,146.05-37.49l-5.4-18.61-6.77,2,5.56,19.2c-21.68,7.2-43,14.21-65.19,20L68.39-35.16l-5.65,1.63L68.63-13.2C43.5-9.06,38.74,8.89,32.26-24.69l-4.52,1.31,6.14,21.2L22.31,1.17c.35-2.58-1.82-3.3-2.88-5.06-5,1.45-9.25,5.16-15.12,5.24L-.49-15.2l-6.77,2L-1.08,8.11c-21,6.27-32.34,14.71-35.54-12.84l-4.52,1.31,5.89,20.32C-56.74,22.1-66.58,33.75-70.5,5.09l-5.64,1.63,6.21,21.46c-23.39,5.57-30.65,17.21-35.57-12.95l-5.65,1.64c11.75,27,4.13,22.43-20.1,28.28-2.19-6.63-5.43-13.29-7-20.43l-9,2.62,2,6.77c-15.41,4.44-29.93,8.76-45.17,13l-1.95-6.72-5.65,1.63,2,6.82c-16.29,3.91-31,11.59-47.2,14.49l-2.19-7.56-5.65,1.63,2.24,7.72c-16.4,5.47-44.84,13.46-49.8,14l-2.12-7.33-5.65,1.64,2.24,7.71c-16.4,5.47-44.84,13.46-49.8,14l-2.12-7.33-5.65,1.64,2.24,7.71c-16.4,5.48-44.84,13.47-49.79,14l-2.13-7.33-5.64,1.63,2.33,8.06-16.55,4.8c-.35,1,.56,1.84-.56,2.26-.45-.56-.89-1.13-1.52-1.91-2,1.19-4.91.4-6.39,3-9.79-1.88-25.81,13.84-27-1.82l-6.77,2c8.37,12.11-6.21,10.69-14.55,12.78-10.57.24-32.34,17.23-34,1.3l-5.65,1.63,2.24,7.72c-16.29,5.43-43.72,13.13-48.67,13.68l-2.12-7.33-9,2.62,2.36,8.12c-15.87,4.18-30.09,10.82-46.09,14.12l-2.56-8.82-5.65,1.63c6.44,11.66-6.13,11-14.32,13.94l1.64,5.65,16.74-4.85c5.71,17,16.09,53.81,16.63,58.82L-633,247.65l123,424.56c36.2-5.39,71.87-19.55,107.67-28.75l31.41,108.4c-7.54,2.59-15.11,3.28-21.87,7.53l22.45-6.51c3.66,12.16,6.39,23.7,11.37,35a56.66,56.66,0,0,1,8.53,16.78c.58-.41,1.63.29,1,.81a.82.82,0,0,1-1-.81c-14.76.57-18.16-13.38-21-25.5-9.1.22.64,9.81-1.56,15,3,11,16.85,16.5,27.68,16.66,23,32.73,27.77,71.91,30.94,110.35,15.34,71.95,43.41,64.14-26.71,84.45,70.93-13.14,39.59-20.9,67.23,55.72-17.17,3-32.34,10.13-49.29,14.46-2.4-33.57-23.91-67.34-25.23-99.1-19-12.18-15-87.38-52.3-75.17,4.47,8.36,19.71-1,22,16.8a750.36,750.36,0,0,1,31.43,87.36c-7.63.76-11.88,6.9-19.19,5-13.16-.51-29.19.13-39.36,8.93.49.7.7,1,1.14,1.61,12.12-10,28.65-7.75,43.14-8.76,3.14,5.71,10.66-.45,15.78-.92,3.62,20.52,18.41,40.51,15.78,61.09-5.72-16.47-15.14-35.85-34.58-36.42l-1.35,2.45c.64,4.14,6.94,3.94,10.36,4,4.6,3.83,7.13,9.33,12.65,11.41,2,8.8,7.76,15.72,9.09,24.59-18.21,4.86-35.52,12.34-53.82,15.81l.66,2.26c18.67-4,39.27-14.11,57.05-15-6.51,9-14.46,17.3-19.75,27.51-27.94,17.75-24.34,12.57-18.16,45.63l-2.13.61,2.62,9c7.49-10.62,2-23.56-.2-34.85,2.71-7.33,11.83-10.13,17.79-13.18,8.55-7.28,9.55-16.5,18.1-23.81,6.47,59.2,33.07,116.12,46.77,174.88-2.35,10.86-35.81,11.48-47.45,17.78l1.64,5.64c16.25-4.7,32.37-9.85,48.87-13,7.18,28.18,17.78,55,25.29,83-15,5.1-41.64,12.57-46.38,13-6.31-19.47-13-41.89-20.91-59.38l33,114c18.32,35.24,22.09,77.48,77.12,79.94.42,3.57,6,20,8.74,11.55l.88.31-3.71-12.81c13.72-4.73,56.09-16.74,60.92-17.27l12.93,44.59,9-2.62-13-45c15.65-5.28,43.83-13.19,48.67-13.68l12.91,44.57,5.65-1.64c-4.43-15.32-10.7-29.14-14.3-45.11C-68,1468.37-53,1460.13-36.53,1457c4.28,15.73,10.43,30,14.47,45.7l5.65-1.63c-4.53-14.08-7.3-29.44-13.58-42.38,6.12-.16,17.87-9.34,19.23-1.48l.55-1,3.35,3.44c5.41-6.24,11.9-10.29,17.25-15.5,2.59.93,2.75,2.35,3.37,4.8,6.78,6.09,13.74,5.24,21.8,4.39,3,4.11,7.49,7.18,10.12,11.79-6.36,8.51-21.71,12.4-22.57,24.45l7.9-2.29-.63-2.16c27.55-19.31,63.19-40.27,44.43-79.14-5.57-22.49,10.64-46,2.23-68.78,1-25.34,27.75-38.79,29.09-63.82,8.32-62.81,19.16-60.76,60.53-102,32.68-30.37,83.67,8.52,93.8-55.15,5.86-17.22,11.54-38.31-1.12-53.12-22.89-18.78-58.29-111.32.33-92.14,13.87,22.43,29.79,48.61,60.37,44.75,18.89,32.63,25.9-11.84,31.57-26.8,11,4.92,22.27,8.08,33.28,12.61-5.33,13-10.65,26.06-16.08,39.33,11,3.52,14-29.14,21-37.45,18.43,7.28,35.49,12.72,53.69,20.74-18.33,22.24-36,44.27-54.16,66.08-13.85-12.1-30.77-18-48.32-22.14-1.82,9.51,19.86,9.49,26.74,14.15,4.55,1,21.93,10.91,16.12,14.68-19.87,25.13-39.57,50.94-60.21,75.52-17-10-32.61-28.37-29.66-49.31-9.6-4.61-5.14,12.54-3.79,17.1,4,15.25,16.93,26.59,28.87,35.87-4.54,11.27-17,15.57-22.84,26.34-43.59,16.15-92.38,22.62-134.55,41.14-24.33,21-14.56,56-25.9,83.13-10,19.25-29.25,30.59-43.19,46.22-8.87,77,14.56,60.82-54.87,112.42l19.2-5.56c7-11.16,27.22-17.4,33.51-32.17,14.07-19.44.75-45.32,7-66.39,1.26-6.29,1.15-6.37,5.06-10.77,34.88-21.6,49.44-58.54,48.43-98.6,3.09-3.09,1.66-9.12,7.29-11.35,20.39,11.1,49.47,21.09,26.55,46.85-2.07,15.49,2.77,32.57,8.35,46.67-11.74,19.15-20.72,39.46-34.22,57.13-10.16-9.74-18.21-24.09-22.23-37.68,3.87-1.5,8.69.2,12.24-2.88-3.48-7.22-15-1.84-18.72,2.73,6.58,15.53,14.82,31.25,26.28,43.78-7,13.24-15.19,25.73-20.48,39.77l13.55-3.93c7-19.6,10.31-28.69,24.84-7.19l6.78-2c-12.47-12.19-24.37-15.72-9.08-32.89,21.4-36.87,43.07-73.7,63.31-111.27,10.07,7.47,6.7,24.38,14.27,34.31,1.47,15.68-8.58,30.88-16.56,43.92,1,2.44,1,2.44,3.88,3.35,62-90.3-75.15-78.5,85.12-117.8l15.06,51.94c-18.37,6.47-38.85,7.93-56.46,15.81,14.6,8.45,45.15-12.42,65.12-11.93,7,13.59,3.14,46,24.74,34.18l1.93,6.67,1.71-.49c.6-3.36-2.56-4.84-3.12-7.29-4.47.28-8.16,3.44-12.54,2-1.8-12.09-15.65-29.85,4.11-30.37,17-12.09,18,7.41,22.18,19.2,4.36-3.36-2.81-12.82-3.1-18.56,18.27-5.58,23.95-10.86,27.48,11.54l-5.56,1.61c2.55,4.74.43,10.36,3.64,14.81,3.89-1.8-1.48-8.8-1.57-12.5,10.23-3.9,2.83-29.45-8.52-22.54-.49,1.84-1.8,2.24-3.56,1.76-1.61-4.27-2.29-8.86-4.11-13-4.55,2,1.59,9.71,1.71,14.09-3.77-1.14-6.72,1.47-10,1.55-2.15-3.72-6.34-2.83-9.7-5.24-4.22,6.31-13,3.62-18.43,8.62-4,2.89-3.59-4.86-4.85-7.1,29.39-10.56,59.93-16.88,89-28.24l48.15-14c5.13,4.86,6.1,11.69,8.67,18,.86,0,1.35,1.29,2.52.84-2.47-5-3.55-11.2-7.12-15.55,1.09-1.78,3.38-1,4.7-3.49-3.41,1.72-5.34.25-7-1-9.13-8-38.25,10-52.89,11.16l-6.89-23.77c55.57-13.6,52.13-22.72-1.45-4.6l-7.08-24.42c28.1-5.78,56.88-16.52,85.32-21.92,17.52,58.37,14.9,84.87,69.89,118.69l7.9-2.29c-5-5.36-11.48-8.42-17.51-13,14.17-4.88,58.73-17.52,63.58-18.07l4.74,16.36,6.78-2-4.86-16.74c18.39-6.15,77.44-22.94,82.54-23.5l4.75,16.35,6.77-2-5-17.17c27.83-8,55.17-17.56,82.82-25,4.54,5.55,4.72,11.5,6.85,17.6l11.29-3.27-5.24-18.07c26.16-7.64,51.65-15.49,78.21-21.44,4.43,4.22,5.51,10.55,7.2,16.27l5.64-1.63-4.28-14.79c3.2-.23,2.38-2.65,3-4.42,27-6.72,52.57-17,79.62-24,1.78,6.54,5.08,11.9,6.38,18.65l9-2.62c-4.42-19.33-19.71-41.8-8-60.54,6.94-8.37,21-9.36,25.41-20.36,13.66-22.57,24.14-52,48.72-64.34,7.58,4.33,12.53,12.37,19.4,17.76,24.25,19.53,69.46,34.76,91.83,5.22,23.09-19.33,9.15-41.11,31.14-49.52,20.65,1,44.05,12.18,60.24,25.32,10.22,6,14.14,21.42,23.65,26.22,1.17-10.61-11.42-21.48-19-28.77-12-6.81,5-14.45,6.79-23.21,29-1,60.3,5,42.38-33.63,5.68-32.4,23.37-63.39,13-96.79a6.76,6.76,0,0,0-4.22,1.46c3.11,25.26,2.34,60.05-13.72,79l-1.76-6.06c7.43-3.21-6.46-23.43-10.73-18.39,25.14,21.37,1.16,15.43-17,14.09.67-8.38,2.4-16.45,12.6-17.14.35,1.48,1.84,2.59,2.76,1-.07-.77-1.58-.34-1-1.72,3.39-.7,6.63-2.66,10.3-1.79,26.83-25.63-27.3-96.73,53.71-112,36.72,17,70,42.08,112.41,45.38,10.09-.75,59.15,18.86,57.84,7.89-29.57-3.25-27.34-18.85-37.75-41.25-16.42-23.93-8-45.82-4.07-72.82-5.42-22.94-26.82-38-40.93-55.92-25.16-65.63-39.77-136.55-61.3-203.94,18.58-17.85,4.33-38.39-4.28-57-13.82-25.2-27.78-51.72-39.76-78.08-11.7-19.33-11.64-45.77-18.68-68-4.58-23.66-16-47.61-7-71.3,20.29-35,34.65-50.42,32.64-94.35,14-46.87,9.69-13.37,1.85-58.32l81.07,44.64c9.88,47,27.72,92.62,40.37,139.14,20.22,79.63,14.91,57.44,85.39,40,7.88,29.93,18.52,57.87,26.23,87.66-21.09,6.06-41.23,14.1-62.19,19.45-7.47,11,3.24,24.18,5,36.5,1.38-.62,3.07-.46,4.4-1.68-9.1-25.95-11.71-33,18.39-37.93,8.35,30.53,17.9,58.89,26.79,89l-11.81,3.42c-3.65,7.53,8.18,2.29,11.66,1.46,12.18,26.62,17.21,59,27,87.6-6.22,2.47-13.86,2.32-18.45,7.25l.68,2.32c18.91-1.72,37.55-10.9,56.78-14.36l7.36,25.38c-41.33,16.23-35.5,60.86-21.35,94.63,17.82,60.18,35.42,120.33,54.58,180.15,22.92,41.22,35.84,23.22-8.23,51.57,3.83,18.15,8.2,36.33,13.33,54.46l4.52-1.31c-19.51-75.09-15.22-38.44,36.33-84,2.42.34,3.09-3.68,6.34-2.17,5.26,21,19.33,46.82,24,66.83l5.65-1.63c-5.37-20.89-20.52-47.64-25.8-69.49,14.79-13.81,32.15-29.74,51.37-36.53,3.39,2.08,21.81,93.7,31.81,84.43,5-3.27,26-2.79,23.56-11.66-2.76,1.83-13.92-72.41-25.38-70.65l20.86,72-20.33,5.89-24.71-82.84c17.78-8,48.23-19.19,69.06-24.12,5.48,11.06,16.36,50.2,20,62.62l36.53-10.59c3.54,8.42,13.13,10.86,13.21,21.88,1,3-.24,6.44,1.48,9.36l4.52-1.31c-1.5-3,0-6.4-1.49-9.36-2-10.58-4.18-13.41-12.51-22.07l57.92-16.79c4.17,13.14,9.72,30.59,10.28,32.51l4.52-1.3-9.49-32.75,42.38-12.28c3.5-3-4.19-10.16,1-11.3l-1.64-5.64c-2.74,1.55-9.09,1-9.83,4.07C2036.44,858.33,2036.89,860.89,2037.85,864.78ZM-216,1501.18c-56.93,3.39-65.74-81.35-83.81-121,15.31-3.1,31-11.65,45.37-11.58Zm-33-136c20.37-5,40.93-11,61.09-16l38.74,133.7c-20.27,6-40.07,12.41-60.24,19Zm-52.83-178.08c87.69-25.21,50.59-29.5,84.84,66-20.44,6.2-40.22,11.85-61,16.44Zm58.68-25c-9.95,4.54-21.69,6.37-32.58,10.06-9.47-20.26-6.55-51-25.12-64.37,6.42,19,14.91,43.92,20.52,65.88-8.39,1-15.07,6.71-23.39,7.5-7.37-34.13-27.48-68.47-19.75-102.89,9.1-1.65,18-7.25,26.67-6.5a180.06,180.06,0,0,0,24.54-5.89c6.12,21.74,12.59,42.17,18.38,63.72C-250.92,1140.78-245.54,1151-243.12,1162.19Zm53.65,180.9c-20.55,5.26-40.67,10.17-61.13,16.49l-24.14-83.29,60.08-17.41C-206,1286.87-197.35,1314.71-189.47,1343.09ZM1349,581.4c-12.92-57.36-14.17-115.75-51-164.87-12.56-20.14-12.14-45.22-18.24-67.89-7.49-36.69-15.77-74-23.3-110.53,18.51-30.76,28.81-64.75,42.3-97.79,5.24-6.38,5.31-29.52,15.63-25.09,9.06,8.31,49.18,18.21,40.44,31.59,5.54,89.87-59.83,72.44-25.63,172.67,6.18,29.33,12.54,58.84,27,85.19,12.83,22.27,23.41,46.47,36,69.27,4.42,10,9.83,18,9.53,29.57C1385.24,530.19,1367.23,555.87,1349,581.4ZM1143.08,149.21c31.48-9.9,74.16-21.93,78.84-22.18-28.54,42.66,14.33,75.62,30,112,9.57,55.71,23,112.3,35.09,167.77-17.52,40.71-21.44,86.4-35.72,128.34-84.26-101.76-17.53-78.65-38.08-205.69-.85-25.08-16.12-46.18-23.64-69.13-15.18-35.69-30.31-70.48-44.39-106.35C1144.9,152.11,1141.9,151.69,1143.08,149.21Zm112.69,389.88c13.25-41.15,17.67-85.38,34.27-125.59,39,50.65,41.31,114.06,55.39,173.73-18.8,23.37-36.25,53-55.6,74.46-7.4-32.11-13-65.24-21.95-97.18C1266.77,554.28,1259,548.17,1255.77,539.09Zm51.62,108.43c13.72-17.57,25.14-37,40-53.62,8,47.87,32.9,94.54,36.46,142.63-2.69,17.36-22.17,35.24-35.69,44.45-21.73-29.81-49.3-57-53.86-95.52C1287.83,669.43,1298.53,660.13,1307.39,647.52ZM1258.15,88.35c14.67,2.09,33.12,16,46.37,24-17.71,38.79-27.71,83.34-51,118.44-11.66-29.89-48.44-53.65-32.4-89.61C1227,120,1245.88,105.91,1258.15,88.35ZM1380.2,838c42.93-9.47,74.27-51.3,76.82-94.45l9.76-2.83c43.46,43.88,18.52,43.18,22.2,92.37,6.93,18.36,16.83,35.3,22.62,53.74-47.5-7.29-91.11-20.61-130.93-48.09C1380.56,838.72,1380.51,838.54,1380.2,838ZM1354,839.85c11.68-17,7.72-36.54-.9-53.44,11.33-16.94,34.87-28,36.2-50.45-7.5-49.92-27-99-38.9-148.52,16.29-17.49,26.82-44.2,43.76-60.16,13.59,91.93,117.14,240.18,3,298.5-6.28,4.75-14,6.44-21.54,8.71C1368.85,836.77,1361.54,836.22,1354,839.85Zm-68.81,188.08c-5.51-34.49,8.45-25.09,9.24-52.67,26.63,1.14,15.87-2.08,29.66,11.34-5.21,12.76,2.57,23.61,2.91,37.15-6.27,1.16-12.78,1.74-18.87,4.07-2.72-1.81-5.47,1.76-8.19,0C1295.2,1028.67,1290.5,1027.22,1285.18,1027.93Zm-311.41,80.35c-8.53-29.57-17.11-59.13-24-91.09,1.87-1.48,3.63-2.81,2.07-5.94,8.13-4.52,15.21,1.31,14-2.77l62.9-18.23c6,10,9.92,21.51,16.25,30.33,1.82,6.77,6.74,12.38,9.24,19,2.87,3.09,5.91,11.66,3.75,15.31-10.86,8.76-19.67,20.91-27.51,32.65-12.12,27.82-19.94,34.47-42.68,51.71C977.22,1131,974.64,1121.1,973.77,1108.28ZM1027.22,988c-12.16,1.7-23.63,11.85-35.11,9.26,0,.84-.08,1.56-.11,2.22-13,5.82-38.84,2.54-42.9,17.35-2.84,1-2.52-4.62-5.3-5.7-1.43.31-2.39-.24-3.91-1.74l9.93-.48c-1.17-5.88-8,1.41-10.18-1.56-4.62,9.27-24.36,8.5-35.1,13.6-12.2-39.61-24.69-78.73-35.74-118.66,14-4.57,30.13-5.29,42.72-14,3.57.26,10.31,2.12,9.75-3.5-16.68-4.3-35.4,11.24-54.26,12.89-32.47-99.18-59.12-201.84-95.18-299.84.58-1.4,2.28-1.29,2.42-3.14,9.71-1.69,17.5-9,27.26-11.2,1.79,1,4.31,2.68,5.47,0l-2.92-.17c13.51-8.26,30.61-12.84,45-20,18.62,45.79-10.61,95,9.54,138.83,3.27,1.67,1.53,6.31,4.77,8,.27,3.36,3.6,5.4,3.77,8.8,16.15,28.28,28.22,59.92,39,91.09,12,34.34,47.89,35.77,75.06,51.61,27.33,30.66,25.19,78,41.26,114.63C1026,979.37,1025.16,984.07,1027.22,988ZM846.1,554.63c-25.11,8.46-49.25,21-73.7,30-8.82-13.77-24.1-18.89-34.27-31.29,6-5.67,13.21-6.46,20.74-7.61,51,4.52,61.67-54.6,78.33-91-5.82-28.79-21.39-56.29-17.81-87,1.63-14-8.13-27.59-2.27-40.87,3.4,19.77,12.42,39.17,14.92,58.06.56-.91.88-2.3,2.72-1.5,17,37.63,45.3,76.2,24.61,118.7-6.28,14.37-16,27.35-13.66,43.71-3.37-4-1.15-20.64-6.9-13l2.75.43C842.11,540.7,842.5,548,846.1,554.63ZM816.61,325.11c.21-.63.59-.74,1.11-.32C817.51,325.42,817.13,325.53,816.61,325.11ZM728.7,495.85c-1.68-10-1-19.36-1.78-29.51,17.28-.09,54.49-39.3,60.58-9.33C793.42,489.21,747.16,483.56,728.7,495.85Zm3-122.37L703,381.78c-6.83-24.59-15.38-47.3-21.79-71.9,9.8-.6,18.69-9.92,27.28-7.28,5.48,19.79,13.39,39.28,18.45,59.3C730.46,365.05,729.58,369.71,731.67,373.48Zm-5.11,87.25c-5.62-25-14.91-48.24-21.6-73.16l28.23-8.18c1.33,4.59,2.69,8.69,3.68,12.87C745.1,419.34,767.19,452.16,726.56,460.73ZM691.19,471c-1.55-25-13.59-48.92-20.1-73.57l29-8.4c6.29,24.4,17.84,48.58,19.95,73.61ZM720,468.76c7.55,27.21-8.06,58.67,8.35,83.11,1,0,1.78-.77,2.06.45-21.7,16.46-33.57,42.54-22.65,68.88,1.72,18.5-2.4,40.37-23.21,46.1-25.31-53.33-30.78-80-7.53-135.24,7.65-13.72,10.73-53.51,23.25-57.36C706.57,472.17,713.28,470.72,720,468.76Zm-34.77,3.81L658.6,480.3l-21.2-73.17,28-8.12c5.33,17.07,8.64,33.54,15.52,49.86C684.6,456.25,683.81,464.71,685.26,472.57ZM595.05,151.25,580,99.37c93.58-26,76.3-45.34,96.73,26.8-10.26,3.86-21.22,5.09-30.82,10.34Zm22.12,85.32a224.7,224.7,0,0,1-28.76,9.63l-23-79.5c9.34-1.86,15.83-6.3,25.75-8.19,7,22.74,15.49,44.69,21.8,67.72C614.44,229.85,616.55,232.63,617.17,236.57ZM552.45,510.14l30.09-8.72c.72,10-20.54,8.12-27.71,12.61C552.88,513.15,551.74,512.06,552.45,510.14Zm30.48-2.66.87,3-28,8.12-.87-3Zm35.63-4.12,1.55,5.32c-17.22,21.12-6.89,62.64-40.32,73.05-54.19,19.07-31.88,4.6-53.63-51.59ZM553,519.51l-26.5,7.68L524,518.51l25.53-7.4C550.81,514.06,553.68,516.07,553,519.51ZM441.65,243.44c9.68-1.82,17.41-6.32,26.36-9,14.44,46,26.71,92.9,41.82,138.71,2.53,6.48-19.48,12.75-25.26,14.12l-6.93-23.9C464.37,323.94,453.37,283.57,441.65,243.44ZM368.44,111.63c8.49-2.31,17-5.06,25.43-7.21L432.75,238.6c-8.62,2.35-15.33,6.62-24.35,8.36-4.36-15-8.83-29.44-12.67-44C386.12,172.73,375.85,142.36,368.44,111.63Zm93.17,428.75c-11.83-43.07-25.76-83.75-37.88-126.51,9.31-2.19,18.33-6.3,27.25-7.33q16.11,55.62,32.22,111.1C494.55,539.93,475.61,529.85,461.61,540.38ZM448.86,399.25c-9.94,1.91-17.26,6.29-26.73,9.11-13.81-49.47-30-97.19-43.71-146.59,9.31-2.19,18.35-6.32,27.25-7.33,10.26,35.38,20.44,70.73,30.8,106C439.79,373.66,445.85,385.61,448.86,399.25Zm-45-151.09-27.25,7.9c-13.11-44.79-27.39-88.88-39.86-133.87l27.1-7.86c8.18,28.2,16.24,56.38,24.56,84.53C393.05,215.37,399.8,231.24,403.86,248.16ZM519,528.25l19,65.49c-83.8,18.61-134.86,67.85-204.19-8.76,49.72-18.15,102.45-29.75,152.78-47C497,533.66,508.18,531.38,519,528.25ZM416.41,409.74l-28,8.11c-16.17-48.36-29.51-97.27-43.86-146.15l27.87-8.07c6.4,18.34,10.76,37.67,16.75,56.26C397.12,350.2,408.41,379.42,416.41,409.74Zm-45.72-152-27.25,7.9c-16.95-43-26.62-89.22-41.68-133.25l28.47-8.25c13.68,41.42,24.95,83.56,37.35,125.49C367.23,253.06,371.3,254.71,370.69,257.72Zm11.85,161.85-26.91,7.79c-14.58-42.09-25-85.56-39.68-127.6-10.05-25.29,1.91-17,23.16-26.16C354.34,322.08,368.54,370.67,382.54,419.57Zm-45.27-152c-27.24,8.54-29.33,13.07-35.59-17.22C291,214.06,279,178.33,269,141.81l28.23-8.18c4.5,16.27,9.47,31.23,13.61,47.32C321.15,209.35,328.65,238.58,337.27,267.57Zm48.14,157.69c12.68,40.38,21.85,82.06,36.25,121.32,2.36,9.79-19.37,8.14-27.35,12.79-13.18-41.35-24.77-83.94-37.13-125.93ZM263.33,4l30.15-8.74c6.36,40.67,24.43,79.3,33.81,119.65l-28.23,8.18c-6.77-27.32-16.71-52.46-24.13-79.27C270.82,30.58,267.16,17.22,263.33,4ZM455.82,541.53l-28.22,8.18c-13-41.87-25.83-83.44-37.67-125.75l28.23-8.18c6.56,22.63,12.87,45,19.6,67.33C443,502.86,451.25,521.41,455.82,541.53Zm-101.2,4.85L324.55,442.61c9-2.22,18.23-6,26.82-7.35L387.9,561.34c-20.3,5.15-39.29,12.29-59.31,18.41-12-42.55-24.63-84.17-37.56-126.3,9.8-1.86,17.94-7.84,28-8.77,9.42,34.58,21.11,68.8,31.24,103ZM260.68,134.22l-28.06,8.13L198.29,23.88c9.1-2.62,18-5.24,26.93-7.78C236.27,56.39,248.61,94.64,260.68,134.22Zm42.46,143.12c-8.81,1-26.47,16.5-28.6,1.88-11.71-43.07-25.53-85.15-38.28-127.9l27.1-7.86c6.62,22.85,13.46,45.15,19.5,67.66C288.84,233.45,298,254.79,303.14,277.34Zm-31.07,10.23-28.23,8.18c-9.91-37.08-23-72.2-32.82-109.19-13.4-29.76-6.66-26,20.54-33.77,6.86,19.87,11.61,40.13,18.47,59.81C258.58,237.18,264.71,262.56,272.07,287.57ZM199.88,151.83l-34-117.26c10-3.66,19.22-7.63,29.76-9.92L230,143.1Zm117.2,286.83c-9.68,2.23-19.19,6.69-28.4,7.59-13.84-48.52-27.92-96.73-43.14-144.65l28.23-8.18c2.53,9.5,5.57,17.72,7.72,27C295.79,358.92,304.86,399.37,317.08,438.66ZM418.22,636c13.74-4.74,26-9.79,40.18-13.06,11.71,33.61,9.22,69.5,14.41,104.39-33.58-11.75-41.21-50.73-50.52-81.54C419.52,642.94,419.7,639.2,418.22,636ZM520.76,736.73c-11.83,19.59-29.6,4-42.8-6.27-1-35.3-2-74-13.67-109l24.84-7.2c8.35,27.45,14.85,54.94,24.76,81.79C518.71,709.19,523.2,722.9,520.76,736.73ZM495.09,612.58,538.7,600c1.07,40.28.72,82.52,21.26,118.87-5,7.39-7.37,17-14.13,23-18.28-14.87-24-36.24-29.25-58.5C509.05,659.89,500.81,636.43,495.09,612.58Zm164.57,63.57A133.76,133.76,0,0,0,612,736.87c-7.85,14.65-7.91,51.09-26.8,51.26l-34.25-40.3c4.1-9.82,10.75-17.44,15.18-26.42,15.09,6.23,21.23-11.45,25.06-22.69,13.66-33.6,37.31-62.75,59-91.32a407.41,407.41,0,0,1,14,46.14C662.62,662.6,672.78,673.82,659.66,676.15ZM727,865.69c-8.63,1-17.94,11.15-25.23,5.51-13-20.81-19.47-44.78-27.26-69-10.33-26.14-11.4-41.78,11.74-61.08,5.08,16.55,8.44,32.1,15.09,47.77A548.26,548.26,0,0,0,727,865.69Zm-40,17c-6.33,60.72-22.55,71.06-55.28,119-9.14-8.06-19.08-15.06-27.33-23.55,49.56-72.57,71.5-90.31,32.4-177.15,7.59-9.88,15.14-19.07,23.09-28.47l1.73,6C671,813.13,684.42,847.09,687,882.73Zm-40.7-34.54L570.66,949.1c-10.36-9.35-23.44-17-31.58-27.36,31.73-37.77,61.39-78.87,94.1-115.09C637.28,820.34,642.84,834.39,646.28,848.19ZM535,927.41l14.44,12.22c-25.17,33.85-52.5,67.26-78.77,100-.06,3.14-4.42,3.28-4.48,6.42-1.67.3-1.68,3-4,2.73l-7-24.32c14.41-14.8,25.91-32.67,39.85-48.15C508.23,960,521.33,943.29,535,927.41Zm-66.44,65.05L435.2,964.91l28.06-35.32c12.09,8.24,23,18.2,34.73,27.1C488.14,969.31,478.86,980.57,468.52,992.46ZM531,971.77c12.5-11.34,19.19-40.89,34.92-17.33-30.36,41.66-61.63,83.85-94.16,123.27-2.31-7.26-6.23-13.86-7.55-21.53C485.85,1027.6,509.19,1000.4,531,971.77Zm121.38-98.64c-5,40.14-33,69.63-53.93,102.87l-24.38-21.2,74.38-99.12c.84,2.87,1.57,5.87,2.58,8.77S650.59,870.58,652.38,873.13Zm-37.31,159,17.67-21.56c11,22.1,16,50.42,24.73,74.75,2.46-.36,2.68,2.41,4.69,3.12-.12,1.27,1.08,2.38.49,4.11-27.44,7-53.82,18.2-81.22,24.38-3-9.64-5.82-18.74-4.71-28.91,16.95-7,44.39-5.41,48-27C622.83,1051.21,618.11,1041.38,615.07,1032.12Zm-32.77,47.27c10.24-14.35,19-27.9,29.7-42.41C626.35,1073.65,616.21,1073.21,582.3,1079.39ZM691.22,862.25c34.57,64.66,24.54,143.61,30.88,215.25l-44.58,12.92c25.39-23.29,6.64-61.32,10.19-90.82-3.26-18.61-.67-38.84-5.57-57.24,3.57-19.53,7.45-38.43,10.12-58.06C693.51,877.22,691.38,870.07,691.22,862.25ZM675.4,1100c24-13.5,55.65-16.71,82.49-26.43l14.42,49.78c-27.93,8.14-54.7,17.56-82.9,25Zm98.86,30.09c4.66,13.63,13.76,45.88,14.3,50.54l-82.92,24L691,1154.22ZM609.48,560c6.36-13.59,5.28-33.56,13.6-44.48l24.4,84.2c-18.75,26-38.92,52.73-55.41,80.12-21.31,66.59-33.08,29.55-43.86-14.38,20.64-3.14,33.84-15.58,43.39-33.53,6.21-13,22.74-24.56,19.59-40.1C607.68,581.13,603.92,570.18,609.48,560ZM546.17,599.3c18.48-9.82,40.09-8.85,54.86-25,7.4,16.8,6.59,30-5.79,43-12.73,19.46-23,39.76-48.21,43.51-2.14-9-1-17.81-1-27.06C546.43,622.46,545.57,610.36,546.17,599.3Zm41-99.17L615.37,492c.56,3.18,2,5.93,2.2,8.75l-27.92,8.09Zm-10-34.75c14.53-9.12,8.19-29.78,16.16-43.06,4.22,8.75,19.77,59.23,20.73,67.2l-27.58,8ZM508.35,153.71c23.48-10.76,49-16.68,73.79-24.42L589,152.8c-20.92,6-40.34,13.68-61.38,19.23Zm360.29,878.93-21.24,6.15c-13.14-37.89-21.83-77.41-37-114.45-2-8.49,16.2-7.07,22.49-10.82,8.81,30.29,16.86,59.79,27.22,89.39C862.6,1012.92,865.78,1022.75,868.64,1032.64ZM817.4,838.92c-2.12-1.6-3.56-1.19-4.57,1.31,5.33,22.24,11.53,44.35,18.07,66.41-7.9-.47-21.48,13.53-24.73,3.3-11.47-40.29-21.63-80.68-34.95-120.4-8.59-33-25-64-31.5-97.15,13-28.5,12-61.5,29-89Q815.8,750.13,860.23,898l-25.11,7.28c-2.11-11.52-6.48-21.89-8.37-33.08S820.6,850,817.4,838.92Zm20,73.3,24.5-7.1c15.39,38.29,22.07,79.76,37.18,117.76-9,3.24-16.39,6.14-25.9,8.58C867.27,1011.4,862,992.15,856,972.3S842.62,932.61,837.42,912.22Zm-37,4.31L759.3,928.46C737.37,861.59,722,793,700.14,725.72l34.18-25.3c13.36,37.52,27.16,74.39,37.75,112.92C782.26,847.4,793.1,881.6,800.46,916.53ZM607.27,325l-27.1,7.85c-5.79-22.83-14.95-44-20.59-66.91-1.59-9.85,18.85-8.62,25.43-12.68C592.15,277.82,600.83,300.35,607.27,325Zm23.67,77.5-27.3,7.91c-8.47-22.88-14.32-46.92-21.43-70.5,9.57-2.68,16.87-7.1,26.75-9.08C616.77,355,621.4,379.59,630.94,402.49Zm-4,86.71-21.12-72.9,26.71-7.74,21.24,73.29c-9,2.4-17.78,5.57-26.61,7.48C627,489.26,626.81,489.13,626.91,489.2Zm59.3-5.4c-10.29,32-20.37,62.56-30.32,94.45-13.09-23.58-16-57-26.59-82,8.53-1.6,16-6.54,24.51-8.33C663,488.16,682.07,473.51,686.21,483.8ZM761,934.37c24.68-5.83,47.45-23.74,51.12,13.19-16.78,5.36-33.13,9-50,13.36C761.54,951.67,761,943,761,934.37Zm96.58,164.08c-24.59,7-49.16,14.2-73.72,21.32-.55-13.74-22.53-48.89-7.82-52.81Q810.5,1057,845,1047c10.69-.34,9.44,25.76,14.62,34.94C862.35,1088.14,867.91,1096.35,857.62,1098.45Zm-89.51-35.52c-1.25-9.61-1.65-19-2.57-28.26l67-19.42c5,8.17,6.44,17.37,9.37,26.3Zm-2.22-33.63a178.46,178.46,0,0,1-1.59-28.5l59.41-17.22,7.75,26.72Zm-2.66-62.66c17.29-3.81,34.06-12.45,51.75-13.23,1.3,8.14,7.26,17.11,5.54,24.78l-55.63,16.12C762.43,985.79,761.49,975.25,763.23,966.64Zm-232.91-789L560,169c7,26.48,16.67,51.53,23.49,78-8.08,4-17.92,5.28-26.94,8.41-5.38-21-13.61-40.47-19-61.41A63,63,0,0,0,530.32,177.63ZM639.47,315.86l-27.51,8c-7-24.14-13.9-48-22.13-71.69L619,243.67C626.31,266,638.94,310.66,639.47,315.86Zm24.28,77.31-28.23,8.18c-6.8-24.56-15.59-47.25-22-71.85,9.68-2.76,18.94-5.52,28.44-8.2C649.7,345.49,657,368.71,663.75,393.17Zm50.44,243.75c.63.22.74.6.32,1.12C713.88,637.82,713.77,637.44,714.19,636.92Zm11.47-51c-3.71,16.38-5.9,34-11.06,49.6-2-32.56-13.77-45.95,13.19-73C743.43,548,728.14,579.45,725.66,585.93Zm14.13-22c9.25,8.26,20.38,13.61,27,24.29-25.9,31.06-21.41,77.92-43.1,107.9-9.12,5.51-16.43,12.71-25.48,18L686.3,673c13-3.42,24.64-15,26.45-28.62,13.79,1.06,12.59-56.13,22.41-68.33C736.45,572.19,738.06,568.4,739.79,563.91Zm232.44,567.84c12.08,9.54,12.68,17.2,9,31Zm-69.18,74.53c-4.19-16.51-10.63-32.73-13.47-48.69,26.44-8.06,53.46-17.09,80.25-24.39l14.64,50.52c-26,7.94-52.18,15.41-77.94,24.13C905.51,1207.05,905.13,1205.38,903.05,1206.28Zm-30.19-104.22c14.72-9.81,80.55-24.12,85.72-26.12,25.1,78.13,1.65,44-66.35,74.68C880.46,1152.55,879,1112.51,872.86,1102.06ZM855,1044.76c27-12.84,56.83-16.86,85.52-26.69,5.17,17.72,11.37,33.85,15.92,51.53L872.19,1094c-6.91-7.72-6-21.21-11.56-30.59C857.83,1057.52,856.77,1050.79,855,1044.76Zm22.87,110-77.38,22.42c-26.8-77.07-9.48-46,62.61-74.09,6,6.16,7.81,16,11.17,24.68C875,1136.88,883.66,1147,877.89,1154.78Zm-75.75,28.5,80-23.19c2.41,18.08,17.47,37.68,10.13,53.25-24.68,3.34-49.55,14.23-74.18,20.13-2.9-7.31-4.47-14.61-7.39-21.58C806.9,1202.78,804.93,1192.89,802.14,1183.28ZM755.6,1066.77c-9.7,2.21-18.23,6-27.49,9.39-4.42-43-4.62-87.38-7.46-131-.79-21.38-10.48-41.67-14.24-62.77-2.83-8.44,16.62-7.21,22.36-10.83,24,55.37,21.39,114,25.62,172.88C753.88,1051.89,755.62,1059.11,755.6,1066.77Zm-48.22,143.91,83.24-24.12c4.79,14,13.77,45.88,14.29,50.54l-82.91,24Zm-70.77-205.3c14-17.77,24.63-40.34,40.14-55.28,2.2,3.25.64,6.71,1.83,9.76.59,1.51,1.71,3.21.27,4.92,1.65,20.42,2.8,40.61,3.36,61,.57,20.13,9.23,46.75-10.87,60.49C649.93,1075.74,652.9,1024.29,636.61,1005.38Zm46.88,144.71c-29.13,7.59-56.42,17.64-85.12,25.89L583,1123.05l81.88-23.72c.78,2.37,3.29,1.39,4.65,2.72ZM652.35,1284.2c.22,1,1.42,1.88.62,3.3C651.9,1286.46,651.61,1285.46,652.35,1284.2Zm-35-46.46c5.42-2.2,12.12-1.25,12.07-7,19.11,4.15,47.94-15.67,70.91-18.24l14.8,51.08c-28.21,7.72-54.82,17.63-83,25ZM600,1181.63c83.45-16.39,81-56.15,99.84,24.92-28,9-57.38,14.84-84.14,25.61-4.56-11.46-7.93-25-12.62-37.58C600.86,1191,601.54,1186,600,1181.63Zm-30.21-91.51c.79,10.35,3.66,19,5.33,29-7,2.67-15.35,2.88-21.55,7.32-4-.93-7.25,1.32-10.69,2.25,0,1.38,1,2.2,0,3.67-4-7.62-12.46,2.66-18.15,2-2.06-11.66-5.69-23.47-7.24-35.11,26.93-37.43,55.15-76.77,82.65-115.08,9.84,7,18.86,13.71,27.3,22.45-30,32.28-43.31,81.77-90.72,88.73C542.65,1103.65,559.57,1090.57,569.78,1090.12Zm-53.2,7.36c.22-.63.59-.74,1.11-.32C517.48,1097.79,517.1,1097.9,516.58,1097.48Zm91.82,135.57c-28.15,7.37-54.64,17.73-82.59,25.15-5.52-4.8-4.92-14.94-8-21.73,28.05-8.5,55.89-17.56,84.15-26C604.12,1218.25,606.45,1225.6,608.4,1233.05Zm-77-6.07c-17.87,11.29-18-6.71-22.23-20.26,28.51-6.74,56.62-15.06,84.79-23.35l6.55,22.58C577.07,1213.37,553.91,1218,531.42,1227Zm-38.65-76.92,51.56-14.94c0-4.46.43-.74,2.67-.49,7.92-5.58,20.47-6.59,29.92-9.72l15.31,52.85c-28.2,8.21-56.61,14.51-84.68,23.31ZM596.1,1184a1.42,1.42,0,0,1,.66,2.28A1.42,1.42,0,0,1,596.1,1184Zm-69.85,80.34,85.16-24.68,14.67,50.62L558,1310c-15.06-9.25-26-20.63-29-38.68C528.56,1268.72,525.1,1267.4,526.25,1264.31Zm-124.67-86.38c81.33-15.38,81.17-59.11,101.66,30.37l-18.71,5.42c-21.33-2-45,10.75-66.95,14.65-3.95-11.23-6-22.68-10.88-33.3C404.29,1189.81,403.31,1183.91,401.58,1177.93Zm18.52,81.89c-28.93,7.16-55.77,19.59-84.85,26.68L328,1261.6c28-10,55.93-17.15,84.49-25.64C413.53,1244.55,419,1251.16,420.1,1259.82Zm-83.17,32.92c26.34-12.4,57.44-17.83,84.39-28.85l6.9,23.82c-28.7,7.68-57.39,17.85-85.74,24.19ZM404.07,1208l6.45,22.24-84.6,24.51c-2.35-6.46-2.6-13.35-6.67-19C339.92,1220.87,377.86,1218.54,404.07,1208ZM283.6,1222.77c-34.82,37.17-61.51,79.17-86.59,123.52-3.87-11.38-5.08-22.72-7.54-34.18,26.29-33.75-2.55-43.36-29.43-57.63,3.56-2.7,5.43-6.15,9.85-7.09,4.59-2.54,8.53-4.89,13.23-6.1,32.7-5.81,67.09-23.23,98.77-24.42Zm38.08,34c-24.41,6.91-45.24,14.32-69.8,20.84,19.15-19.55,31-48.73,55.55-61.34,3.21,11.09,6.36,21.93,9.49,32.79C317.64,1251.57,318.09,1254.19,321.68,1256.77Zm64.5-74.38c14.23-7.7,11.92,10.46,16.32,20.25-28.45,8.67-56.5,17.48-85.27,25.44-5.79-16.91-5.82-14.84.89-23.46A607.26,607.26,0,0,1,386.18,1182.39Zm64.07-149.49c10.27,29.79,19.83,60,28.49,90.32,10.9,2.82-5.51-28.83-5.53-36,6.29-7.54,11.41-17.32,18.65-23.54.5-4,5.38-5.2,4-9.64l2.16.68,74.63-97.94c8.16,7.05,16.15,14,24.19,20.93-24.24,35.19-49.77,69.48-74.58,104.17-16.84,21.81-8.51,29.43-3.07,54.27-65.26,17.11-129,43.84-195.49,55.49,35.63-53.79,82.09-102.41,121.65-154.07C446.43,1036,447.36,1033.54,450.25,1032.9ZM335.66,972.8c1.42-17,2.71-34.75-1-50.91-2.95-14.83-17.74-23.76-21.1-38.79.19-18.61-31.19-79-6.3-84,29.81,1.08,45.13,45.15,62,38.14,11.22-19.6,14.75-46.76,15.08-69.4-3.67-11.42-16.49-17.86-18.63-30.24-11.11-38.92-44.83-43.7-70.16-68.79-1.69-15.52,4.8-32.05,7.17-47.63,6.1-10.58,17.54-18.38,21.34-30.39,8.85-6.89,23.53,18.09,32.68,24,16.53,11.12,37,16.24,55.58,22.05,21.25,70.84,22.78,77.63,87.27,116.27,13.91.25,28.13-6.16,27.84-22.1,20.35,20.18,36.51,45.54,57.75,64.49,33-1.7,24.36-95.38,84.5-115.88,21.08,68,7.12,50.57-31.72,104C602.1,828.31,566.06,872.4,530,916.93c-47.15-41.5-53.84-32.5-2.84,3.93l-25,31c-8.46-4.14-62.21-54.53-44-25.5-10.87,15.67-29.69,31.2-34.76,48.16,3.92,1.53,3.94-2.9,7.92-4.83L464.4,997c-1.49,5.27-7.63,7.29-7.89,13.05-4.95.74-6.31,9.76-11.71,7.27-20.74-7.31-41.41-16.15-62.38-23.38-42.15-17.17-34.7-14.54-46.83,25.54-3,1.45-4.87.29-7-.83C323.09,1003.3,336,988.64,335.66,972.8Zm-334,430c17.91-8.35,45.66-4.26,56-23.23-7.82-32-17.77-64.19-26.92-96.07,62.72-20.09,24.69-60.62,15.9-105.74-3-8.46,20.14-10.45,26.66-13.66,29.42-29.36,55.83-91.73,104.47-65.36,30.34,23,49.41-6.09,21.24-30-32.66-31.42-14.81-42.77-26.35-68.69a19.77,19.77,0,0,0-26.73,1.88c-23.79,23.24,1.29,58.2,5.53,85.71-9.83,3.89-20.64,3.67-28.86,10.1-4.31-1.88-6.76-5.4-10.47-6.55-7-41.34-21.1-82.07-32-122.91-3.19-11,41.32-9.62,36.4-21.06-13.32,2.86-25.7,9.23-39,12.08-2.54-6.88-3.31-14.24-4.87-21,71.76-13.23,32.62-23.28,11.49-78.07l1.92-1.14c-6.43-14.94,14-17.18,12.64-30.09,12.33-1.3,12.47-8.74,6.77-17.88,3.63-19.57,97.26-28,113.3-42.76,28,7.48-13.66-82.72-15.17-96.2,6.94-1.39,12.16-5.77,18.94-6.51-2-9.17-14.48.48-20.43.63l-11.37-39.25c8-1.71,16.07-5.86,23.73-6.18,4.4,6.8,2.89,29.68,12.64,27-2.57-9.65-5.74-19.23-8.29-29.42,12.8-1.72,23.61-8.43,35.8-11,2.61,9,5.5,17.56,7.48,26.32,2.09,15-4.9,30.63,9.05,41.91-4.33,9.68,1,17.74,3.51,26.72,11.22,9.1,3.3-6,1.87-10.87-5.57-7,3.59-17.19-5.62-23.59-7.89-19.2,0-41.63-10.61-62l57.28-16.6c-2.74,11.76-13.92,18.84-20.7,28.47-2.1,17.23-8.69,34.75-8.27,51.9,16.82,27.14,62.23,28.85,67.31,64.67-2,1.88-4.41-.73-5.78.55-14.45-14.28-27.89-10-44.91-3.82,7.56,11.51,23.18-14.08,41.55,8.13,5.94,1.86,14.67-1.32,15.23,6.56,3.84,11.43,16.81,16.82,17.23,30.11-6.77,18-3.3,43.2-15.69,57-14.85-16-45.45-53.26-67.67-34.37C282.1,815,306.69,868.64,310,891.23c28.65,32.61,24.59,79.37,10.29,118.19-26.85,2.56-42.37-17.11-52.14-38.34-9.12-15.23-36.34-11.32-44.1,3.16-7.75,32.49,8.41,67.39,29.58,92.16,16.24,20.74.37,57.48-11.89,77.11-15,11.09-36.59,7.67-54.8,8.43-7.87,5.7-19.44,6.54-25,15.89C149.05,1184,131,1194.44,117.75,1210c-15.06,22.54-12.46,53.06-21.75,78.47-39.81,44.07-15,56-29.5,107.49,6.59,30.21,14.6,50.68-18.48,68.08-3.81-4.8-7.38-9.88-12.23-13.72-9.08,3.05-19.93,1.13-23-9.07C9,1428.35,5.42,1415.83,1.62,1402.77ZM246.86,460.21c-9.27.64-22.16,11.88-29.12,2.58-13.76-46.28-29.69-93.07-41.48-140,8.81-.4,22.88-12.77,29.27-7.2,8.48,28.72,16.45,57.6,25.08,86.28C233.75,421.53,246.42,441.32,246.86,460.21ZM203.19,307.53l-29.67,8.59c-13.83-42-25.21-85.51-39.14-127.76-4.6-11.72,19.45-9.45,27.84-14.47,10.19,28.31,17.27,57.66,26.17,86.54C192.73,276.25,199.37,291.34,203.19,307.53Zm49.72,294-30.49,8.84L185.8,484.05c35.93-15.44,32.54,4.6,41.27,32.58C234.42,545.43,245.34,572.77,252.91,601.57ZM106.05,343.35l29-8.41c15,48.35,29.9,96.13,43.4,144.91l-29.68,8.6c-9.94-32.29-19.94-64.36-29-97C115.3,375.5,110.2,359.31,106.05,343.35ZM217.94,611.82c-10.15,2.22-19.11,6.39-28.6,9.59-13.07-42.16-26.18-84.6-38.51-127.11l29.49-8.55C192.91,527.93,206.07,569.34,217.94,611.82Zm-68.55,21.09c-10,2.45-19.78,6.61-29.37,8-6.74-21.63-14.34-42.74-20.12-64.72-5.3-32.45-38.86-62.58,11.71-69.43,1.74,6,3.09,11.54,5,16.89C129.08,559.36,138.52,596.49,149.39,632.91ZM122,647.13l29.06-8.42c12,45.21,28.38,90.95,38.45,134.23L161.7,781c-4.18-14.42-8.54-28.24-12.14-42.26C139.29,708.09,130.05,678.6,122,647.13ZM28.52,213.84c8.84-3.57,20.16-3.7,27.64-9.48,17.55,41.89,26.42,90.84,41.05,135.1l-28.06,8.13c-12.4-43.92-26-87.14-39.5-130.28A2.6,2.6,0,0,1,28.52,213.84ZM156.05,782.62l-31.61,9.16c-12.3-44.65-26.88-88.28-39.69-132.72,10.47-2.9,19.62-8.27,29.68-9.61,6.67,7.37,4.41,18,10.64,25.37-.63,11.57,6.68,24.57,9.16,36.51C141.13,735.18,150,758.42,156.05,782.62ZM73.52,506.27c-5.89,10.18-17.37,9.61-27.94,13.42C31,471.16,15.88,423.32,2.27,374.45c9.68-1.33,19.48-12.48,26.36-2C37.25,399,46,425.2,55.26,451.52,60.43,470.08,67.26,488.38,73.52,506.27ZM-39.69,233.87l28.14-8.16L27.2,359.41C20.57,364,9.32,364.29-.27,368.12c.6-5.3-3-8-4.09-11.95C-16,315.36-27.88,274.63-39.69,233.87ZM80.14,652.77l-26.79,7.76c-6.7-20.41-10.88-42.86-18.9-62.34-.88-7.19-2.33-13.36-5.82-19-1.09-14.74-8.55-29.93-11.84-44.83,8.31-.16,24.57-12.84,27.44-2.43,7.2,24.8,14.53,49.57,21.51,74.44C70.66,622.14,77.58,637.16,80.14,652.77ZM91.68,801.22c-6.89-45-25.09-89-36.25-133.53l23.71-6.88C91,705.53,106.47,749,118.47,793.46Zm7.83,5.12c2.17-.15,3.81-1.7,6-.75-.9,2.59-1.71,4.88-2.56,7.32C100.5,810.9,100.41,810.93,99.51,806.34Zm13.27-162.82c-4.46,1.82-10.71,1.82-14.18,4.87-4.94-.21-9.06,2.49-13.64,3-3.25-7.77-2.8-17.09-8.34-23.3-5.16-34-22.22-68.09-29-102.61l22.92-6.65a7.5,7.5,0,0,0,6.15,3.5c6.44,18.7,10.81,37.62,17.35,56C101.19,599.59,107.78,621.72,112.78,643.52ZM104,911.14c12.52,19.41-20.79,14.36-31.92,20.8-5.18-24.16-2.85-50.09,2.36-74.4,5.66,6.41,8.28,13.21,11.48,20.78C92.86,888.09,97,901.37,104,911.14ZM-44.12,726.76a77.09,77.09,0,0,0,32.58-16.65c10.69,5.77,22.26-3.89,33-3.69,15.26,13.89,23.2,57.94,26.84,78.18-16,1.19-30.5,8.94-38.64,13.64-10.3-1.71-20.8,2.63-30.78,5.25-1.15-1.32-2.84-1.54-4.56-1.66a181,181,0,0,1-7.81-18.17C-35.56,765.23-51.63,744.32-44.12,726.76Zm23.89,81.53c7.73-2,16-2.95,23.74-5.81-3,23.49-23,23.39-7.55,57-11.12,15.09-31.77,16.34-47.83,20.74-7.78-37.37-28.44-74.32-27.31-112.39,10.81-3.79,21.54-6.38,33-6.62a28.73,28.73,0,0,1,4.64,11C-36.25,784.79-37.53,806.85-20.23,808.29ZM-191.45,818.6c34.92-9.46,69-23.37,104.29-30.85-2.62,11.49-9.39,21.45-13.43,32.52C-128,779-143.53,829.89-117.39,853c5.79,25.9-38.1,25.61-55.84,33.58-2.3-2.5-3.54-5.7-6.47-7.59C-188,860.21-185.09,837.68-191.45,818.6Zm30,101.22c36.22-9,70.82-22.88,107-31.72l22.65,78.17c3.05,1,1.23,5.3,4.28,6.31,12.92,38.37-63.87,4-79.93,22.95-27.67,27.16-39.5-5.09-39.53-30.19,2.54-1.61,3.33-4.26,3.7-7.6,6.17-1.71,6.76-6.7,7.5-11.4,12.2-4.66,5.81-20.4,16.76-20.27,5.35-5.31-7-10.57-4.63-1.25-6,2.65-5.14,8.72-6.45,13.41-8.8,5.12-7.52,13.72-14.84,18.14-1.56,1.31.44,4.65-3.34,5a78.51,78.51,0,0,0-7.24-16.8C-160.42,936.87-160.18,928.93-161.46,919.82Zm63.38-93.31c6.37-11,8.1-23.24,16.09-32.49l25.85,89.23c-22.65,7.36-58.28,17.38-63.39,17.78-9.75-42.4,27.54-39.38,21.66-69.57C-98.5,829.79-96.66,828.1-98.08,826.51Zm-26.73-13.82c19.67-11,32.79,35.32,13.26,39.76-7.48-5.58-8.93-15.54-13.81-22.53C-124.61,823.54-128.2,818.77-124.81,812.69Zm-.26,90.48c-12.35,3.61-23.8,9.17-36,11.87-4.89-7.76-7.5-15.46-9.7-24l44.54-12.9C-123.59,886.24-124.07,895.18-125.07,903.17Zm-67.23-89.24c-7.58-23.21,11.31-56.46,38.48-45.77,22.29,9.89,46.36,11.52,69.21,2.33-.09,3.61-.8,6.66-.28,9.35C-119.8,794.25-157,800.64-192.3,813.93Zm-6.82-7.53c-43.58-32.12,10.06-58.93,39.56-71.46,21.74,4,30.59,21.11,58.53,12.15,3.9,2.37,14.84-4.59,15.83,1.41,5.51,20.7-9.13,17.87-24.35,24.06-32.74-.68-71.46-30.93-86.86,14.25A54.73,54.73,0,0,0-199.12,806.4Zm60.54-68.55c4-2,44.19-13.81,50.77-14.91,11.09,23.09-7.3,17.53-23.09,20.89-7.14-.37-14.4.42-21.46-2.74C-134.66,740.51-137.25,740.41-138.58,737.85Zm200,191.28C60,941.61,69,952.92,67.51,965.25c-41.12,13.1-84.75,23.32-122.36,42.65-5.18-17,19-9,29-15.77,10.4-9,3.94-18.38-.76-28.71-9.33-23.09-14.68-48.56-22.2-72.62C-46.12,876.94-9,880.69-.17,863.46,32.86,880.09,29.75,924,45.65,953c8.89-3.69-3.59-16.9-3.86-23.83C33.1,904.31,29.44,870.6,2.17,859.41c-2.71-9.36-5.1-17.61-7.46-25.74C3.27,822.36,5.57,803,20,798.93c1.34-3,5.18-1.72,7.05-4.32,2.44-2.9,7.5-.35,10.41-2C132.86,762,39.53,848.32,61.43,929.13ZM-68.9,1085.41c22-5.49,42.87-13.83,64.66-19.93,28-3.63-6.7-51.49-6.91-70l24.85-7.2c16.63,54.33,33.13,108.65,48.57,163.4-5.9,6.82-12,11.43-20.67,13.15-29.5-116.6-18.31-69.54-131.43-46.43C-100.61,1089.27-98.45,1090.64-68.9,1085.41ZM-87,1122.55,15,1093c2.28,9.47,6.6,17.16,8.59,26.65-27.86,8.91-96.21,28.38-101.75,29-1.31-4.51-2.56-9-3.94-13.52C-83.39,1130.84-83.93,1126.29-87,1122.55Zm71.45,67.27c15.65,24.07,18.62,63.41,30,92.76l-48.2,14c-3-7.78-4.63-16.29-7.36-24.28C-52.29,1221.8-85.62,1202.91-15.54,1189.82ZM51.32,1380c-12.31,8.5-28.1,9.35-42.11,14.49l-27.79-95.88,43.85-12.71c2.15,7.4,4.27,14.32,6.14,21.31C37.83,1331.49,43.78,1355.78,51.32,1380Zm8.87-129.88c-.95,20.46-25.39,22.22-39.77,30.67l-27-93.16c15.51-3.85,29.59-7.28,45.3-12.22,7.56,22.64,13.61,45.88,21.73,67.59C59.14,1245.42,61.77,1247.81,60.19,1250.08Zm-124.07-52.65-12.46-43c34.14-9.7,66.93-20.92,101.19-30.11l11.65,40.18C5.5,1177.64-33.43,1180-63.88,1197.43Zm-51.67-165.84c11.71-4.3,24.17-5.23,35.83-9.18,13.12,19.29,40.86,2.29,43.95-16.56,7-1.13,12.14-6.63,19.27-7.73,29.44,86.17,23.9,51.51-83.12,88.42Zm42-9.68c0-.43.09-.86.14-1.3,10.83-2.6,20.45-7.62,30.81-11.14-4.91,11.7-8.3,12.85-24.16,16.44ZM77.2,1148.32c.65,2.12-2.13.58,0,0-.37-1.63,1-1.4,2-1.21C79.14,1148.16,77.91,1148,77.2,1148.32Zm-10.7-3.48L20.55,986.24l21.36-6.19c12.59,46.09,27.81,91.86,41.08,137.54C78.05,1127.13,72.59,1137.49,66.5,1144.84Zm31.34-77.24c9.36,16.59-5.64,29.61-11.68,43.22-12.8-44.15-26.76-88-39.77-132.2,8.42-2.44,14.59-6.47,23.37-8.07l1.66,5.74Q84.65,1021.94,97.84,1067.6Zm12.51,24.62c2.4,3.19,7.34,3.46,9.1,7.59-13.39,15.61-26.43,31.51-40.29,46.69,3.42-12.24,14.37-23.11,19.89-35.2C102.92,1105.14,105.38,1097.25,110.35,1092.22Zm57.81-89.8c4.62,3.29,3.9,7.58,3.47,13.17-3.23,19.89,7.63,38.66,20.37,53.22,10.8,9.14,27.78,31.06,3.48,34.07-12.87-7.09-24.16-14.55-39.36-15.92C151.22,1061,119.54,996.21,168.16,1002.42ZM4.25,1420.73c7.62,19.9,6.08,25-13.09,34.62C-14.77,1442.36-12.29,1423,4.25,1420.73Zm-30.49,34c-.55-2.77-1.76-5.17-1.89-7.61,4.51-2.44,9.33-.66,13.47-2.94l1.93,6.64ZM-40,1415l39.2-11.36c2,4.08,1.64,8.91,4.93,12.07-8.81,6.41-19,12.42-18.78,25.76l-16.31,4.72Zm14.09-114.34c2.22,5.84,26.55,89.84,27.71,95.59L-41.87,1409c-5.49-18.53-10.36-36.59-16-54.93C-75.27,1301.94-75.12,1316.58-25.89,1300.7ZM-69,1201.24c-8.16,8.19-18.71,12.16-29.64,15.28l-23.84-82.25,29.94-8.68a21.44,21.44,0,0,1,5,12.36C-84.15,1159.77-73.59,1179.53-69,1201.24Zm29.36,97.09-32.54,9.43L-96,1225.49c11.33-2,20.75-8,30.55-12.11,5.45,18.81,10.82,37.64,16.4,56.4C-46.86,1279.63-41.43,1288.1-39.66,1298.33Zm8.88,149.57,2.19,7.58-2.05.59C-31.67,1453.33-30.78,1450.59-30.78,1447.9Zm-121.45-411.33c9.94-1.81,20.29-2.49,30.63-4.12l25.4,87.66-28.23,8.18c-5.83-18.48-9.72-37.28-16.78-55.31C-146.11,1061.56-148.34,1048.24-152.23,1036.57Zm30.4,293.06c15.15-2.17,33.44-14.32,46.7-10.48,14.07,43.32,26.79,87.3,38,131.45-16.1,3-35.25,13.5-49,12.41-10.32-33.76-18.54-68.11-30.4-101.38C-119,1351.49-127.35,1339.06-121.83,1329.63Zm-29.67-87.81,49.68-14.4c6.57,27.94,19.28,56.23,22.57,83.63l-46.47,13.46C-138,1299.89-142,1268.63-151.5,1241.82Zm-26.39-91.67,48.13-14c11.27,26.59,16.44,54.41,25.16,81.63l-49.52,14.35Zm-30.59-101.1c16.46-3.56,33.54-17.45,50.28-10.94l26.71,92.15-49.31,14.29Zm-21.9-71c69.1-23.51,40-9.5,67.39,50.82-15.56,3.69-31.38,8.26-47.64,13.11-3.26-15.22-9.63-28-13.51-42.59C-226.45,992.4-228.31,985.24-230.38,978.08Zm51.79,368.11,44.55-12.91c19.27,40.42,26.64,89.87,42.7,133l-48.38,14Zm-25.56-88,15.77-4.57,3.14,10.82a7,7,0,0,0,4.5-1.6l-3.09-10.66,27-7.81c7.76,26.79,15.4,53.12,23,79.51-11.13,9.07-33,13-47,14.93ZM-232,1165.92l47.23-13.69c8.14,27.53,15.19,55.14,25.08,81.88-16.49,5.22-32.69,8.19-47.44,15.2-6.4-21.4-13.56-41.4-19.14-63C-228.25,1179.47-230.55,1172.69-232,1165.92Zm-30.76-101.19c16.23-3.32,33-16.1,48.69-12.79l27.35,94.39-47,13.62c-6.45-17.92-9.08-37.19-17.21-54.48Zm-2-7.65-18.46-63.68,47-13.63,18.57,64.08C-234.57,1049.49-260.18,1056.65-264.8,1057.08Zm-41.72-157.22c14.87-17.44,1.11-46.17-3.69-66.32l25.83-7.48c16.67,47,28.26,95.78,45,142.49,3.83,12.75-36.47,11.88-46.05,18C-292.63,957.27-305.62,929.54-306.52,899.86Zm-28.37-92.34c-1.91.68-.89-1.95,0-.27,6.22,5.38,15.72,13.91,16.78,22.34-6.63,3.42-7.71-6.86-11.12-10.76C-331,815-334.15,811.87-334.89,807.52ZM-306.62,888c.23.79.52,1.36-.23,1.92C-307.77,889.35-307.91,888.67-306.62,888Zm-8-52.75c4.08,16.87,13,35.17,7.83,51.8-3.66-17.38-8.65-33.53-13.67-50.81C-318.22,836.09-316.65,834.73-314.62,835.21Zm-34.78-54,43.2-12.52c10.3,12.44,13.59,35.28,20.14,51.58-8.78,3.3-17.06,3.68-25.61,6.39-8-9.28-13.71-21.59-25.43-26.37-5.11-1-6.6-6.16-9.09-10.78C-347,786.68-350,784.75-349.4,781.24Zm4.09-161.75-48.38,14-39.17-135.18c13.82-4.72,42.51-12.79,47.35-13.33,4.05,14.71,8.89,29.24,12.65,44C-362.07,558.64-354.35,589.26-345.31,619.49Zm-46.53,21.07,48.55-14.08C-331,670.7-319.14,716.27-305.82,760c-12.42,9.67-31.44,9.73-46.23,15.78-7.26-8.73-7.37-23.94-12-35C-374.54,707.65-381.8,673.85-391.84,640.56Zm-83.59-284.23,48.37-14,39.53,136.43-47.08,13.64c-9.74-30.56-17-61.33-27.64-91.09C-467.49,386.6-470.93,371.29-475.43,356.33Zm-28-119.31c15.63-3.52,32.35-11.33,47.33-12.63,1.27,35.34,18.43,72.06,26.16,107.43-16.48,3.06-33.17,13.74-48.67,13.68-8.05-29.7-19.13-58.61-26.74-88.49C-510.94,249.11-508.72,244.34-503.39,237Zm-14.33-11.79c4.07-.77,7.84-2.27,9.72-7.71,1.14,2.4,2.61,1.31,3.42,1.7,1,9.32-4.05,15.84-9.94,23.09-.24-3.21-3.22-2.95-4-5C-517.27,233-518.7,230-517.72,225.23Zm27.28,289.85,47.1-13.65,39.15,135.1c-16,4.48-30.48,11-46.74,14.9Zm-42.94-143.3c16.35-5.21,32.73-8.19,48.07-15.15l40.18,138.63L-492.4,509c-2.58-9.56-5.73-18.4-8-27.88C-513.66,445.46-522.13,408.16-533.38,371.78Zm-15,159.93L-497.43,517c11,45.81,32,91.51,39,136.66-15.67,5-32.08,8.74-48,12.49-15.65-37.51-23.54-81.6-36.8-121C-546.54,541.18-546.4,536.18-548.36,531.71Zm49.26-20.54c-17.31,3.45-34.41,13.11-51.23,13q-19.45-67.09-39-134.44c13.9-8.24,33.42-9.91,48.88-15.71,4.17,11.22,8.33,22.22,11.37,33.61C-519.31,442.21-509,476.64-499.1,511.17Zm-80.39-268.93C-568.07,284.72-553,325.52-542,368c-16.57,3.35-33.9,12.74-49.94,12.76-13.51-41-25.19-82.62-37.21-124.17Zm-29.67-1.49c-6.73-19.43-12.81-38.2-18.22-58.19l46.3-13.42c6.18,17.31,8.07,36.34,16.83,52.17C-566,235.14-596.84,234.25-609.16,240.75Zm77.67,1.73c29.26,16.77,25,63.78,40.05,92.36,1.05,5.32,4,10.78,4.2,16.05-16.6,5-30.81,11.23-48,15.33-10.47-28.81-16.56-58.82-27.34-87.67-5.76-13.84-9.61-27.12-2.19-40.62C-553.17,225.55-544.11,237.81-531.49,242.48Zm8-6.88c-3.89-3.37-9.16-3.84-13.41-6.67,2.17-3.88,8.26-4.85,12.63-2.52C-523.12,229.27-521.93,232.2-523.45,235.6Zm16.9-22.11c-14.18,10.87-22.54,3-36.67,11.95-22.87-10.42-20.53-38.54-29-59.67,16.55-4.16,31.55-10.55,48.21-14.56,4.8,13.45,7,27.33,12.94,40C-509,198.37-505.4,205.88-506.55,213.49Zm7.87,15.86c2.26-28.06-13.64-52.86-19.55-79.83,16.73-5.22,33.26-7.66,50-13.26,2.94,10.14,6.12,20,8.6,30C-438,216.2-452.36,217.92-498.68,229.35Zm78.73,111.47c15.81-9.2,34.09-10.55,51.43-16.81,4.4,17.47,9,34.86,13.57,52.28-7,2.54-14.77,3.1-20.63,8.76,8.18,21.08,4.12,57,36.36,44.8l4.68,16.15c-18,17.43-18.58,26.82-47.16,31l-1.63-5.6C-396.45,428.15-406.85,384.09-419.95,340.82Zm50.32,46c5.59-1.42,10.1-5.46,16.27-5.71l5.52,19c-6.45,2.32-11.12,4.69-18.4,6.39C-364.82,399.1-368.81,393.37-369.63,386.86Zm23.39,18.94,5.2,17.95c-5.79,1.62-11.23,3.87-17.14,3.14C-365.71,408.92-364.64,410.64-346.24,405.8Zm-24.94-91-51.79,15c-6.66-36.62-30.06-73.58-25.45-110.06,14.61-3.43,30.43-3.55,44-11.49,8.26,25,15.43,49.11,22.74,74.19C-379.25,293.6-373.31,303.47-371.18,314.84Zm-33-168.09c18.74,59.12-4.87,27.42-1,59.41-12.49,6.6-28.25,9-42.5,10.4,12.54-26.69-11.18-54.94-15-82,8.44-3.81,20.64-2.93,25.82-9.75a7.52,7.52,0,0,0,7.76-2c5.47.44,10.5-2.62,15.79-3.69,2.39,8.24,4.63,15.94,6.84,23.64C-405.9,144.38-405.53,146-404.14,146.75Zm41.25,175.57c10.58-2.45,19.2-7.42,25.94-16.07,12.12,42.91,24.86,84.93,37.88,127.37-10.57,3.13-18.89,7.31-29.92,9.9l-1.45-5C-340.49,399.61-351.47,361-362.89,322.32ZM-367.55,195c-.74-.52-1-1.14-.11-2C-367.79,193.69-366.11,194.24-367.55,195Zm-29.79,12.62,27.91-8.09c2.37,6.42,26.9,91.26,27.85,96.07-5.65,9.36-14.09,14.21-24.24,17.87-3.58-18.35-11.24-35-16.12-52.53C-386.9,243.14-392.2,225.4-397.34,207.66Zm-1.53-5.87-1.26-4.33c15.05-11,9-25.12,4.21-40.14-4.73-11.92-7.31-26.4-11.73-39.63l49.7-14.4c3.09,8.47,5.07,17.06,8.41,25.31C-324.9,198.32-343.3,180.6-398.87,201.79Zm65.67,100.5c6.17-8.8,13.27-15.66,24-18.66,13.11,47.51,28.5,93.38,42,140.64-17.28,4.36-30.15,15-32.1-9.73C-312.66,377.94-321.87,339.52-333.2,302.29Zm-29.9-103.14c0-3.16,5.84-1.89,4.88-6.8.6.81,1,1.39,1.6,2.13l18.75-5.43c6,16.77,7.95,35.49,15.93,50.29,3.31,39,23.9,23.5-13.75,49.34-5.21-14.27-8.28-28.86-13.57-42.86C-355,230.68-358.57,214.74-363.1,199.15Zm30.92-11.59,24.6-7.13,24.45,84.34a219.46,219.46,0,0,1-23.47,6.82c-4.14-12.88-7.14-25.19-11.12-37.48C-324.42,219.3-327,203-332.18,187.56Zm28.49,94.06c14.05-5.63,28.95-9.22,43.8-13.57,8,20.66,2.35,44.48,13.39,63.83,16.34,30.17,35.94,31.68,36.79,73.39-16.76,7.39-34.78,10.65-52.16,16.45C-274.87,373.85-290.63,329.69-303.69,281.62Zm59,39.07c-7-16.3-1.91-36.69-9.58-54.28,13.54-6.22,22.61-5.47,35.82,1.13,8.13,27.67,15.35,55.87,25.63,82.52,10.54-10.89-21.91-63.69-18.59-80.58,7.56,5.4,17,5.91,26,6.84l32.49,112.12c-3,1.78-4.93.75-5.53,4.25-3.62-2.41-9.5-.58-8.49,3.86-9.15-6.44-24.13,5.34-35.64,6.39-1.11-6.9-4-13-4.66-19.87C-208.38,356.13-239.13,346.21-244.67,320.69ZM-333,181.52c.46-27.64-10.6-54.61-19-80l49.46-14.33c4,13.1,6.91,26.3,12.5,38.7C-272,180.44-291,163.89-333,181.52ZM-255.91,210c-5,16.88,6.72,28,12.24,42.26-11.64,2.29-23.47,11.6-34.91,9.82l-24-82.91c3.79-3,7.94-4.39,21.91-7.61C-276.36,186.86-258.6,194.18-255.91,210Zm67,55.8c-16.64-1.53-31.09-11-47.87-15.08-14.24-19.75-11.93-30.28-16.13-51.23C-263,185-278.42,173.06-278,153.66c-.72-23.08-13.79-45.21-18.83-68.15l49.49-14.34c14.14,45.25,26.42,91.26,42.06,136C-200.16,226.69-193,246.26-188.86,265.77Zm17.07-137.18-47.68,13.82c-6.94-24.86-15.57-48.06-22.06-72.87,16.44-5.47,42.59-12.81,47.53-13.35,4.25,14.55,8.06,29.08,13.48,43.28C-176.64,108.74-174.63,118.8-171.79,128.59Zm57.63,300.17c3.67,6.43.35,14.25.58,20.79-6.18-.22-9.1,10.87-17.69,8.85-13.73-.14-25.63-10.7-21.9-24.81,1.85-5,4.36-10.44,9.87-12.32C-136.77,413.43-119.84,419.4-114.16,428.76Zm-21.56-13.11c-.64-.21-.75-.59-.33-1.11C-135.41,414.75-135.31,415.13-135.72,415.65Zm-43.73-140.32c24.21-6.55,46.73-13.74,70.25-21.58,6.42,5.26,3.4,16.24,7.41,23.48-26.81,11.3-57.18,4.24-38.85,44.22l-22.25,6.45C-168.55,310.19-174.71,293.66-179.45,275.33Zm116,29.26c3.59,17.64,13.53,36.19,13.64,53.21-32.25,8.25-63.5,21-96,28.63l-15-51.64C-128.73,325.1-95.51,311-63.41,304.59Zm-118.48-38.34c-6-18.14-14.76-49.29-15.3-54.32,32.26-10.07,64.26-21.11,96.89-30.52l16,55.32-5,1.46C-120.47,246.9-151.25,256.14-181.89,266.25Zm60.61-153.42c-15.7,3.41-29.5,10.47-45,13.81C-181.46,50.07-214,57.35-143.3,39.86-136.76,64.69-127.57,87.92-121.28,112.83ZM-126,182.77c-23.91,8.5-50.19,15.09-73.33,23.26-6.07-19.19-12.76-37.19-18-57.06,32.13-11.28,65.06-19.47,98-29.37,3.83,13.69,7.93,26.46,11.55,40.07C-95.45,179.18-110.68,177.73-126,182.77Zm60.25,114.69c-23.69,7.07-46.9,15-70.06,22.87-17.35-39,13.43-25.82,38.07-39.18,4.84-8.61-3.86-19.52-5-29.14l21.25-6.16c3.38,11.67,6.79,23.28,10.12,35C-69.82,286.31-66,291-65.75,297.46Zm144,484.85c-7.87-.24-15.82,1.14-23.79.1-11.34-23-9.34-73-35.19-81.18C-8.33,712.61-6.37,697.45-28,716.12c-29,5.12-23.89,17.25-20,40.29-10.65,0-20.5,3.19-30.65,6.24-.22-71-14.68-37.85-66.33-28.52-14.63-15.71-66,21.47-73.4,35.82-9.92,20,9.74,33.26,21.11,47.7,8.28,18.65,4.23,39.72,10.89,58.65,15,18.91,19.87,42.57,23.89,65.5,12.29,15.67,9.47,36.63,16,54.73,27.07,41.21,38.31-21.29,88.87,2.52,4.39,23-79,25.85-97.41,32-13.68-21.61-10.9-57.42-30.15-72.47l-46.72,13.54c-21.14-69.07-45.25-139.22-64.71-207.72l19.68-5.7c-2-8.54-14.85,1.36-20.92,1.4-10.38-19.71-14.45-46.09-20.38-68.42q-9.32-31.89-18.48-63.81c-3.14-8.67,16.08-7.31,21.92-11l-.91-.54,2.09-1.48c-.37-1.82-1.62-1.74-2.47-2.53l-23,6.66-39.58-136.59c32.92-7.66,25.58-7.08,45.2-29-.65-2.12,2.14-.59,0,0a146.89,146.89,0,0,0,16.1,39.85c3.5,25.44,7.58,52.13,20.78,75,17.64,6.55,17.1,39.44,30.89,43-7-7.11-9.8-15.66-12.52-25.36-14.55-17.61-27.18-36.13-31.95-58.44l1.69-.49c-7.31-8-3.48-21.08-4.32-31.8-4.89.06-2-5-3.42-7.58-1.14.39-1.71-.74-2.66-.94-5.06-11.72-9.86-22.5-12.74-35.29,22.48-7.47,44.71-16.17,68-21.86l2.3,7.91-2,.57c1.82,3.57-3.11,2.43-4.87,4.34,3.9.26,8.5-2.21,12.63-2.92-4.11-2.41-3.9-6.9-5.27-10.71,34.67-12.53,72.05-20.3,105.89-33,1.77,1.71,3.65-.8,5.45.12,1.41,7.45,6,14.76,4.81,22.39-13.37-.4-13.43,19.94-14.52,29.49-6.19,2.76-12.7,2.14-19.13,4.88,5.25,1,13.45-1.56,19.2-3.12,9.13,6.51,18,16.85,30.32,13.47,4.08,5.54.16,34.64,8.1,29.1A65.78,65.78,0,0,0-124,463c4.74-6.09,5.8.31,8.1-2.28-.88-.38-1.81-.75-1.73-2.17,4.08-3.47,7.79-8.17,9.34-13.75,5.36-15.55-11.2-36.5-29.08-31.14-5.4-4.12-4.59-13.69-7.52-19.93,32.72-10.19,64.41-21.09,97.48-30.56,4.57,7.67,5.23,16.32,8.37,24.55-3,.7-5.74,1.54-7.55,4l3.46.62c.53-.95,1-1.81,1.47-2.67C-20,431.07-9.47,491.32,7.22,539.36l-5.11,1.48c-.23,1.13-1.37,1.71-1,2.84L9,541.39c9.65,36.74,23.23,73.57,30.8,109.75-1-1.79-3.45.47-3.43-2.63l-2.26.66-.66-2.26C2.13,633.8-33.8,633.08-64.28,648.32a233.85,233.85,0,0,1-53.42,21.6c-.17-.43-.35-.86-.53-1.28,12.28-3.93,24.26-9.25,36.43-14,2-3.08,6.53-1.86,8.57-4.93,17.73-7.07,33-17.58,52.88-18.64.07,2.1,2.61-1,3.07,1.13.59,1.13-1.45,2.05-.19,3.31,2.51,1.19,2-2.15,1.12-2.74,1.78-1.83,3.73-1.07,4.44-2.77-5.81-2.85-12.55,2.35-18.09-.16-2.89,2.61-15.09,6.27-21.65,6.27-.16,4.73-11.4,5.31-14,8.95-8.44,2.13-15.16,8.31-23.58,10.5-8.84,6.32-20.1,7.91-30.44,11.27.23,1.3.39,2.22.58,3.31-24.55,2.08-10.71-57.11-16.57-74.71,1.52-1.44-.92-3.66,1-5a16.26,16.26,0,0,1-.85-9.55l1.62-.47c-2.9-2.36-2.42-7.45-.69-10.81-1.78-4.74,2.38-10-.95-14.41l-4.1,1.18c1,10.22-3.26,20.59-.81,31-1.54,1.44.93,3.66-1,5,4.4,25.41-.54,52.39,7.68,77.19-7.57,4.83-3,15,4.69,15.62-.11.74-.17,1.09-.26,1.72-2.65.19-5.36-1.83-8.05-.24,2.53,2.67,6.09,1.76,9.15,2.67,1.06,4,4,3.31,2.54-1,8.37-2.75,3.65-10.26,13.48-7.7-1.38-3.92-4.53-3-7.44-2.86l-4.07,7.62c-7.76,1.14,1.17-5.06,1.32-7.87,9.5-3.27,17.36-7.15,27.3-9.19,2.57,6.57,3,13.69,7.07,19.35-1.27,1.45-3.61,2.15-2.07,5,14.4-2.72,30.93-6.44,40.26-19,6.13,8.59,19.68,7.17,27.83,2.85.89-2.68,3-4.43,3.26-7.06-7.51,6.39-15,13.79-23.12,2.1-4.87-5.16,1.11-11.11,3-15.85,11.22-5.18,18.87,3,20.13,13.75,13.5-3.43,10.43-6.18,5.43-15.83,5-7,9.12,0,14.84.86,2.79-.08,5.57,2.41,8.57.1C5.26,651.67-1.11,653.23-5,648c-3.24-1.17-9.92.75-10.2-5.09,20.38-3.32,40,6.44,57.87,15.23-1.12,2.91,1.36,5.28.85,7.76-7.2,0-16.91-6.43-22.41-2.18,7.58,2.27,15.16,4.19,23.29,3.86l7.49,25.82C59.78,723.31,71.89,752.18,78.21,782.31ZM-91.71,670.51a4.33,4.33,0,0,1-.64-2.92c10.18-4.28,19.76-10.67,30.41-13.83,4.86-4.63,47.35-18.64,44.35-8-4.77.06-4.59,5.74-8.38,7.31-10.92-4.24-20.47,4.43-20.18,15.55L-50,669.75c-8.32-7.3-21.43-6.36-31.29-3.1C-84.93,667.49-87.49,671.22-91.71,670.51Zm40.3.81c-8.47,13.47-37.45,27-39.29,2.45C-79.07,665.78-63.17,663.64-51.41,671.32ZM97,807.52l1.81,6.26c-1.55.59-2.84,2.05-.46,3,1.21-.58,2-3,4.65-2.1,4.4,2.83,5.81,9.09.47,11.61-1.36-1.91-3.31.51-4.6-.53.49-4.11-.06-4.67-3.68-8.17,5.58,13.05-1.61,20.79-11.19,28.2-2.55,5.38,1.71,8.26-1.18,11.94l-6.68-7.48C83.87,836.48,82.18,812.19,97,807.52ZM-85.3,102.18-112.13,110c-6-18-16-53.64-16.52-58.43l26.45-7.67Zm37.23,123.88-27.1,7.85C-85.93,199.48-93.71,164.1-106.3,130.3c-11.42-18.37,10.06-17.41,22.62-22C-68.79,146.52-60.48,187-48.07,226.06ZM-5.3,369.45c-9.4,2-17.84,6.21-27.57,6.22C-46.29,332.36-56.68,287.13-72,244.89c6.36-6.55,17.81-5.76,26.77-9.67C-31.31,280.25-18.16,324.09-5.3,369.45ZM41.23,520.9l-26.06,7.55C-2,480.6-14.19,430.33-30.82,382.81c9.62-3.29,18-4.4,27.48-6.9C13,424,24.19,473.59,41.23,520.9ZM-51.43,92.37l-27.94,8.1C-85.65,81-92.68,62.5-97.58,42.54l29.26-8.47Zm37.14,123.88-28.09,8.14c-13.94-36.86-22.39-76-34.23-113.81-1.73-9.38,20.87-8,28.08-12.49ZM31.83,359.87c9.89,6.37,22.77-3.09,34.4-5,15.12,48.64,29.89,97,43.7,146.07l-25.88,7.5c-26.86-41.92-29-102.28-55.83-145.23C28.65,361.23,29.51,360.1,31.83,359.87ZM-16.45,82.45l-28,8.12c-6.07-19.8-10.78-40.15-17.72-58.4l28.78-8.34Zm37.27,123.7L-8.34,214.6-42.64,96.27l28-8.13C-4.72,118.55,1,149.62,12.86,178.68Zm42.6,138.61c4.3,7-25.49,13.58-30.14,9.24C17.49,311.34,7.52,267.28-5.85,224l29.26-8.48c2.59,7.53,3.83,15.41,7.8,22.32C40.79,273.79,53.84,308.77,63.42,344.76Zm-45-273.64c-10.6,2.58-19,6.33-29.11,9.37-6.22-19.39-10-39.47-18-57.94L.35,14.12C8.09,32.73,12.59,52,18.41,71.12ZM55.47,195c-10.9,1.28-20.15,9.58-30.39,8.36-11.55-39-25.6-77.08-34-116.83L20.41,78c7.42,26.34,15.55,52.16,22.65,78.5C46.38,169.63,52.18,181.93,55.47,195Zm86.92,295.49c-8.42,3.44-18.78,3.32-25.62,8.89C97,454.58,88.12,401,72,353.29l27.1-7.86c1.11,3.82,2.48,7.33,3.09,11C118.19,400.06,128.52,446,142.39,490.51ZM183.22,623,155,631.14c-14-41.53-24.21-84.73-39-125.64,10.67-2.55,17.87-6.78,28.69-9.54,7.13,23.94,15,48.2,21.47,72.7C173.1,586.36,177.92,604.69,183.22,623Zm39.5,139.46c-9.43,1.17-17.55,7.18-26.89,8.62-2.52-6.57-3.61-13.32-7-19.12.59-6.57-2.16-15.12-7.16-19.53-5.23-30.24-16.85-61.22-23.89-91.81-.92-8.48,20.2-7.4,27-11.56,3.71,10.48,6.26,21.52,9.58,32.2C201.7,695.24,219.33,728.33,222.72,762.41ZM19.79,4.7,21.7,6.26c-.19,1.35-.37,2.6-.6,4.16-4.42.53-8.24,3.09-12.54,5C2.71,3.69,8,.79,19.17-1.14A5.66,5.66,0,0,1,19.79,4.7ZM52.08,61.12l-28,8.12L8.7,16.2C32.12,12,15.22,6.52,35.21,2.9ZM90.49,184.71l-29.36,8.5c-11-39.5-24.11-77.5-35.1-116.9,9.31-1.3,28.52-17.15,31.06-2.63,9.47,30.58,16.52,61.87,27.61,91.9C87.59,171.43,88.6,178.2,90.49,184.71Zm43.06,144.35c-10,2.5-19.74,6.5-29.34,8.06-15.78-44.2-26.7-89.73-40.39-134.62L93.18,194c8.51,28.48,15.56,56.48,25.61,84.27C123.84,295.19,128.61,312.08,133.55,329.06ZM58.06,59.39c-5.91-19.64-13.3-38-18.25-58L70.3-7.44C74.91,23.3,105.59,55.2,58.06,59.39Zm66.31,115.53L95,183.43c-11.34-39.54-24.58-78.31-35.4-118,10.78-1.65,21.59-10.63,30.78-3.59,9,27.55,14.25,56.69,25.36,83.29ZM167.05,318c-9.17.31-24.74,15.06-30.23,5.5-12-43.9-26.45-87-39.08-130.62l29.36-8.51,6.62,22.83C145,244.06,156.79,280.73,167.05,318ZM218,473.51c-11.51-2.39-22.09.76-35,5-14-48.6-27.74-96.95-43.25-145L169,325.06c11.25,30.94,19.5,62.7,28.58,94.36C203.45,436.9,207.59,458.88,218,473.51ZM121.16,41.34c-10.14,1.92-19.46,8.43-28.9,5.45L76.08-9l29.25-8.48C111.18,2.15,114.4,21.66,121.16,41.34ZM158,29.45c-49.51,20.33-27.17,4.62-48.13-48.21l31.51-9.14Zm36,124c-21.65,6.32-42.64,12.63-64,20C104.71,57.84,59,60.34,160.05,36.16c6.9,24.6,14.81,48.58,20.38,73.54C182.54,124.9,191.13,138.22,194,153.45Zm44.15,143.9-30.49,8.83c-12.51-45.14-27.76-88.74-40-133.89,10.72-2.13,18.85-6.71,29-9.78,10.49,31.62,18.24,63.72,29.9,94.72Zm45,151c-10.66,2.68-19.31,7.55-30,10-14.44-49.25-31-96.77-43.43-146.23l30.16-8.75c4.33,14.93,8.81,29.52,12.76,44.26C263.82,381,273.42,414.63,283.18,448.37ZM321.4,581.63l-62.87,18.22c-10.71-39.93-25.22-81.42-36.18-120.62,11.93-17.07,43.53-14.59,62.46-23.74,7.59,19.87,11.65,41.63,19.29,61.81C310.31,538.36,319.15,559.87,321.4,581.63ZM187.13,20.81l-23.44,6.8c-5.83-19.14-9.12-38.44-15.46-57.55l22.32-6.47ZM223.82,9.36c-11,5-23,7.39-35.42,11.27C184.12.73,179-17.86,173-37.33,185.72-41.1,198-44,210-49.07l1.3,4.49C214.88-26.62,225.32-9.1,223.82,9.36Zm126,419.57-28,8.12L279.66,291.61l25.53-7.39c13.8,45.67,28,90.73,41.05,136.38C348.75,422.94,348.53,426.1,349.84,428.93ZM252.39.6,231.3,6.71c-3.93-19.08-9.11-38.62-14.54-57.83l19-5.52ZM293,124.84l-26.7,7.74c-10.88-40-23.6-78.5-35.1-118.1,8.89-2.71,16.88-7.17,26.14-8.93C270.12,44.75,284.45,85.64,293,124.84ZM272.74-5c-5.27,1.35-10.34,3.41-15.5,4.24-.92-19.54-31.46-61-1.15-61.71Zm22.41-6.66L275.4-6c-5.93-19.36-13.12-37.31-18-56.93l23-6.65c-.65,4,3,5.93,3.63,9.44C288-43.91,294.84-28.5,295.15-11.69Zm31.79-9.79c-9.14.69-16.06,6.55-24.71,7.64-3.91-19.65-9.87-38.16-15.49-57.67,7.18-1.67,13.93-4.63,20.26-7.07,9.15,10.49,7.88,29.41,15.44,42.23C324.67-32.13,325.32-27.07,326.94-21.48Zm26.19-11a7.33,7.33,0,0,0-2.78,4.9c-6,2.31-12.7,2-19.12,4-4.89-19.14-12.61-37.4-17.58-56.46,8.5-2.34,16.46-3.56,25-6.55,2.75,9.15,4.83,17.9,7.87,26.87C349-50.67,349.85-41.24,353.13-32.46ZM391.36,95.23c-19.9,5.81-38.75,10.62-57.42,18.15-12.51-35.82-21.08-73.67-33.6-109C299.78.66,298.63-3.38,301-7c17.95-3,37.59-15.52,54.62-12.85,7.44,19,12.95,39.09,20.49,58.3C379.88,57.57,386,76.36,391.36,95.23Zm88.06,295-25.72,7.45c-14.73-48.15-29.68-96.49-43.63-145l24.84-7.2c14.78,44,26.77,89.32,40.1,133.84C478,382.51,477.74,386.68,479.42,390.26Zm38.9,130.41c-7.76,5.32-16.87,5.87-25.78,9.28-12-42.8-25.62-82.73-37.27-125.5,9.37-1.11,16.68-7,25.8-8.12,10.29,33.62,18.35,67.83,30.2,100.94C514.65,504.63,516.07,512.9,518.32,520.67ZM386.85-39.09c-9,2.73-16.52,6.29-25.51,8.38-7.25-17.64-10.41-38.4-17-57.33,8.49-2.83,15.35-6.73,24.31-8.44C375.13-77.17,378.79-57.64,386.85-39.09Zm36.09,125-26,7.53c-9.15-39.3-22.74-77-34.48-115.56l.67.36c.38-1.32.77-2.64,1-3.58l22.18-6.43c10.39,33.22,19.6,66,30.85,98.82C420,73,421.11,79.63,422.94,85.93ZM466.76,228.7l-27.12,7.85c-15.81-43.7-26.18-89.41-40-133.92l25.75-7.47c4.42,11.5,5.59,23.5,11.32,34C445.76,162.67,457.44,195.24,466.76,228.7ZM414.49-47.54,391.3-40.82C385.55-60.1,378.24-78,373.41-97.64l23.71-6.87c2.83,9.74,5.44,19.34,8.4,28.83S413.1-57.28,414.49-47.54Zm13,132.24c-11.57-40-24.79-79-36.89-118.84l26-7.52c9.08,29.48,15.91,59.52,26.68,88.46C452,70.1,456.54,80.71,427.48,84.7Zm69.72,135-26,7.53c-12.84-44.92-27-88.91-41.09-133.34l22.58-6.55c4.31,12.64,6.07,26.42,12.21,37.31,8.38,10.73,10.16,22.7,13.89,35.73C484.31,180.31,492.41,199.49,497.2,219.7Zm31.14,98.11c-12.41,16.33-2.16,38.58-13.63,55.26-12.87-47.3-28.34-92.71-41.7-139.69l26-7.52c6.45,23.13,14.57,45.08,21,68.16C522.52,302.09,523.7,310.62,528.34,317.81Zm53.53,181.42c-19.85,5.88-38.3,12.74-58.26,17.89C511.2,475.78,498,436,486.61,394.36c40.92-12.42,39.46-28.81,42.95-66.56l1.44.1c15.33,50.41,28,101.69,44.88,151.57C578.84,485.46,579.9,492.4,581.87,499.23ZM481.28,144.82c13.48,14.49,31.42,26.34,40.83,42.81,25.14,74.49,47,151.3,69.49,226.9-13.1,11.46-4.84,32.71-16.27,43.53-29.26-100.13-60.55-200.17-90.28-300.29A27,27,0,0,1,481.28,144.82Zm-.21-212.67c-19.23,4.57-35.84,12.29-54.9,17.13-5.51-19.7-11-38.34-17.85-57,19.09-4.18,38.65-13.86,56.85-15Zm19.38,58C481.72-3.43,462.56-.91,444.87,7.53,436-7.16,434.34-27.95,428-44.74c18.24-4.49,37.74-14.41,55.5-15.68,3.31,11.14,7.58,22.24,11.69,33.36C497.88-21.8,498.76-15.63,500.45-9.82Zm17.82,57.26c-19.55,6-39.31,10.45-57.3,17.67-5.57-17.41-8.88-35.46-16.34-51.41C464.07,8.28,482.15.64,501.61-4c5.32,11.38,6.23,25,12.19,36.53C516,37,516.74,42.17,518.27,47.44Zm18.09,58.21c-19.06,6.06-38.06,13.23-56.19,20C470.51,109.45,463,89.92,463,71,482.57,65.1,500,58,519.9,53.08c3.81,12.42,6.16,23.72,11.25,35.45C533.85,93.77,534.71,100,536.36,105.65Zm36.69-4.32c1.73,8.79,5.94,14.88,8.14,23.34-25.91,8.22-52.7,13.19-76.86,25l-20.08-19.33c9.65-3.38,18-5.35,27-9.9C531.73,113.76,552.13,107,573.05,101.33ZM549.34-89.07c-20.79,6.81-41,14.13-62.33,19.5L470.65-126c21.1-5.25,40.77-13.48,61.61-19,2.87,9.91,5.87,19.23,8.24,28.71C542.83-107,548.27-98.71,549.34-89.07ZM608.84-100l15,51.94C585-35.12,545.26-24.34,506.26-11.51L499.5-34.85c13.16-8.18,30.22-8,43.3-15-8.34-7.81-32.87,8.32-46.23,9.3-2.66-7.33-3.56-15.09-7.73-22.34,17.58-7,36.89-10.75,54.7-18.15C565.32-87.33,587.06-93.7,608.84-100Zm-1.62-6.5c-17.6,5.29-33.87,11.21-51.58,15.79L539.32-147l49.07-14.22c7.94,14.55,9.66,31.62,15.29,46.94C606-112.35,605.89-109.59,607.22-106.48ZM642.14,10.31C602,21.25,563.69,34.26,524,45.48,519.1,27.92,512.7,11.69,507.73-5.81c39.47-11.72,78.15-24.51,117.9-35.39C634.1-25.64,636-6.89,642.14,10.31Zm18.07,58.14L541.82,102.76l-6.5-22.44c31.87-6.65,28.35-19-1-4.66-4.87-7.58-6.16-16-8.82-24,39.74-12.12,78.21-25,118.23-35.74,2.55,12.83,8.27,23.06,11.38,35.26C657.1,56.91,658.56,62.75,660.21,68.45ZM679.15,133c33.32-11.36,66.72-20.55,101-30.48,21.62,73.79-64.85,86.86-83.55,141.75-12.86-9.43-11.82-27.63-18.66-39.92-1.81,8.61,6.06,21.49,7.51,31.28,4.11,6.54,13.3,10,12.49,17.58,4.7,33.09,23.69,43.48-18.4,50.75-2.76-6.69-16.36-73.8-23.72-60.7,16.9,44.71,24.67,93.52,42.7,137.7-6,7.15-19.36,6.42-28.23,10.42-4-5.26-4.35-14.61-7.07-21.25-11-39.95-24-79.15-35.74-118.84-24.18-105.2-66.83-85.69,46.91-116.67,1.68,16.55-5.11,32.38-1.44,48.83,8.46-2.9,2.5-32.63,6.84-42.32C680.69,138.31,679.49,135.65,679.15,133ZM667.57,72.71C706.8,62.05,744.19,48.51,783.31,38c6,18.4-3.25,38.1-3,57-31.67,11.93-64.39,19.32-96.38,29.44L677,100.74l28.6-8.29c1.25-2.06,1.77-3.67-1.24-4.75l-28.92,8.39C673,87.83,669.23,81.46,667.57,72.71ZM664-123.3l-51.14,14.82c-20.06-63.6-30.37-51.73,35.57-70.28C655.48-156.82,663.48-128.29,664-123.3Zm57.29-17.76c-16.87,5.53-33.68,11.27-50.93,15.91l-16.25-56.09c6.06-2.32,46.06-13.87,51.67-14.94C711.46-179,720.71-146.13,721.25-141.06ZM694.59-100.2c.57,1.62.5,3.06,1.68,4.23l42.28-12.25c1.2,8.2,7.32,16.32,4.87,23.36-35.7,12.18-73.33,23.72-110.32,34.13-10.84-9.8-12-35.12-18.45-50.73,38.08-13.89,77.33-23.11,115.88-35.15C747-100.55,719.85-111.46,694.59-100.2Zm66.33,74.87C723-14.86,685.78-2,647.89,8.65L632.51-44.42c37.27-11.86,76-19.46,111.58-34.93a3.29,3.29,0,0,0,3.69,2.1C751.16-60.49,764.3-41.73,760.92-25.33Zm21,57.56c-38.42,12-78.4,20.89-115.76,34.85L650.82,14.17c35.76-11.06,72.27-20.36,107.66-32.7,16-2.86,11.13,29.6,20.18,39.89C780.25,24.63,780.8,28.4,781.91,32.23Zm-.92-159-38.31,11.1c-2.11-7.61-4.44-15-6.42-22.66,13.13-3.79,24.7-8.72,37.92-12Zm8.2,28.24-38,11L744.67-110c13.31-3,24.78-8.79,37.81-11.76ZM761-57.38c-3-7.63-3.56-15.9-8.34-23.09,13-4.23,25.63-6.31,38.34-12.15,1.21,4.16,2.61,7.87,3.31,11.7C808.25-60.78,773.27-64.22,761-57.38Zm1.54,6.14c12.14-6.45,25.33-8.1,37.84-12.59l6.87,23.7C794.64-37.75,781.7-28,769.41-29.25,766.44-36.4,765-44,762.55-51.24ZM832-40.55c-1.4,7.71-39.23,61-45.45,67.83-9.26-42.23-33.44-47.35,19.8-60.72C814.62-36.25,823.39-39,832-40.55Zm1.72-8.53c-5,4.76-14.83,4.61-21.63,7.55L796.82-94.37l22.59-6.55C825.34-84.55,832.09-66.79,833.76-49.08ZM817.5-106.8,794.05-100l-15-51.76C809.34-167.13,810.43-126.23,817.5-106.8Zm142.79-1.44C928.17-42.58,989.8-13.51,920.76,53.2c-4.85-6-10.75-17.13-5.41-25.1,1.85,5.57,2.13,9.55,5,15.2,1.57-15-12.93-29-5.37-42.25-8.57-7.74,5.87-13.51,12.57-14.84,1.24-23.23-1.2-47.51,3.25-70.31.23-8.05,1.43-19.67-2.91-26.15-10.07-10-31-2.24-44.61-1.94,10.65,5.28,42.06-10.41,45.08,8.29.28,25.59-3.23,52.53-2.87,78.85,1.46,7.18-1.34,10.5-8.07,12.3-7.06,6.14-7.46,5.07-15.77,7,5.09,9.64,10.35,18.83,12.55,29.82-7.45,10.56.16,21.43,4.35,31.71-30.24,26.92-69.65,47.85-79.92,89.67-2-.75-3.73-2.52-6.37-2.34-2.31-10.92-7.26-21.21-8-32.56-1.54.79-1.56,2.61-2.58,3.78,2.24,10.85,8.24,21.4,7.82,32.54.21,6-4,13.85-.78,18.83,2.51-6.76,1.39-14.1,3.55-20.84,1.63.85,3,2,4.78,1.73,4.53,47.91-13.48,94.59-21.46,141.25-2.33,10.64,5.67,26.47-4.6,33.55-4.69,23.71,5.47,47.89,2.64,73.06,2.87,20.9,14.39,39.24,16.94,60.12-17.4,38.56-25.11,90.53-78.62,85.91-9.19-.43-16.91,10.67-20.66,5.27-7-14-4-28.35-3.49-43.68,20.93-8.38,48.42-9.52,63.37-26,9.23-30.69-4.35-44.39-35.07-30.13,4-15.58-6.22-28.4-8.73-43.38-11.54-33.15-21.16-67-32.82-99.86,1.23-1.89,2.4-3.68,4-6.16-3.8-.07-1.64-4.48-5.56-3.86-1.3-8.53-4.7-16.64-4.94-25.49-22.32-58.75,75-73.53,79.56-127.15,3.64-23.93-4.6-47.36,2.25-71.3-.58-7.65,1.39-14.64,2.38-22.61-2.78-6.83-3.67-13.2,1.86-17.77C809.34,1.1,841.26-23,839.68-55.91,827.89-89.45,823.2-131,802.18-159.68c-7-2-13.19-2.11-20.54.92-6.17-23.82-15.53-48.19,2-69.5,40.28,20.26,77,46.91,117.88,64.8.37,1.84-1,3.07,0,4.37,16.82-1.94,37.45,20.46,54.29,27.76C958.67-123.79,959.71-115.5,960.29-108.24Zm11.3,1.49c11.84-11.06,23.24-6.56,34.84,1.52,1.6,4-4.35,7.48-4,11.51,4.54,4.26,7.2-5,9.07-7.43l52.43,28.87c1.06,8.88,6.66,17,8.57,26.32-31.44,2.33-60.84-31.35-91.57-41C979.86-94.85,974.8-100.24,971.59-106.75Zm12,28.19c25.35,8.12,48.89,25.75,73.95,38.16-39.77,9.77-56.52,34.86-67.56-20.15A98,98,0,0,1,983.63-78.56Zm-5.26-53.84c-1.14-6.35,5.86-15,9.4-21.6,30.56,18.71,67.83,24.52,70.21,66.37C1030.78-101.94,1005.38-118,978.37-132.4ZM968-125.91l8.28,4.9c-2.94.32-4.21,4.36-8,2.93C968.22-120.66,968.11-123.28,968-125.91Zm51.22-79.24c-36.81,5.19-30.86,45.82-47.2,69.93-2.51-.7-4.12-2.79-6.51-2.36-6.94-16-4.49-31.9-3-48.93,7.79-21.4,26.2-36.48,47.45-44.23C1015.12-222.9,1016-214.09,1019.23-205.15Zm27.46,77.29c-19.29-11.55-38.93-19.56-57-30.79-3.51-19.94,12.43-38.88,31.67-42.19,6.71,21.69,15.41,42.94,21.5,64.8C1045.43-134.17,1045-131.35,1046.69-127.86Zm-28.16-106.81c12.48-5.54,25.94-7.05,39-11.24,1.3,6.9,4.6,12.25,6.5,18.44,9.18-.49-.06-13.34-.27-18.87l26.88-7.79c16.77,59.32,35.66,116.73,52.3,176.24-44.62-12.57-39.5-21.64-52.68-63.51l-4.51,1.31c4.66,16.78,9.87,33.55,15.64,49.83,13,8.8,28.45,12.18,43.26,17.92,3.33,12.7,6.26,25.59,9.36,38.51-29.8-16-57.93-32.44-87.42-49-14.14-50.1-34.09-98.35-48.92-148.36C1017.2-232.62,1018-233.43,1018.53-234.67Zm52.63,166.09c120.56,66.62,75.27,30,121.15,161.22-7.21,6.15-17.49,5.86-26.43,9.47-11.91-34-20.19-68.52-32.25-102.49-10.62-14.33-31.38-26.08-49.14-28.72-1.46-10.93-7.41-20.51-10-31.24C1073.45-63.43,1071.31-65.25,1071.16-68.58ZM1086.58-23c12.75.66,35.32,14.76,42.72,24.92,11.83,33.24,19.93,69,31.72,101.6-11,1.94-22.24,9-32.82,7.88-7.71-26.27-17-52.07-24.26-78.55C1099.08,13.79,1091.13-3.62,1086.58-23Zm134.05-319.38c17.41,59.55,2.67,36-43.12,56.81-53.81,13.73-106.18,33.67-159.29,47.95,5-3.92,8.07-8.66,6.63-15.3,2.59-32.73-7.06-48.59,35-52.59,31-15.88,22.17-4.67,50.8-4.72,19.61-5.08,39.18-13.71,58.11-18.38,14-1.26,28.1-2.62,41-9.18C1212.54-341.1,1216.81-340.38,1220.63-342.38Zm27.45,360.09c-76.09-25.29-62.39-126.2-92.19-190.55,11.17-1,22.63-10.5,32.79-8.91C1207-119,1224.87-55.88,1243.39,6.6,1246.46,9.6,1245.82,13.67,1248.08,17.71Zm-94.35-197.39-10.73-37-4.55,1.32,10.72,37c-9.41,2.9-16.86,7.2-26.65,9.11-8.36-29.11-18.59-57.2-26.18-86.44l27-7.84,8.64,29.82c11.09,2.58-4.09-24.54-4-31.37,11-2.6,22-7.54,32.73-8.84,7.71,28.66,16.9,56.53,25.79,84.78ZM1197.6-9a1.48,1.48,0,0,1,0,.29c-17.08-10.88-40.87-15.45-39.94-39.29q-16.79-57.82-33.52-115.64c9.19-2.47,17.94-5.6,26.78-7.54C1166.77-118.1,1184.08-61.71,1197.6-9Zm23.73-81.21c22.2-6.07,43.38-13.13,65.2-20,17.76,58.87,33.35,118.11,50.13,177.22-29.79-13.18-45.11-24.48-47.8-59-7.75-31.56-19.58-61.94-28.14-93.23-2.6-1.63-3.51-1.14-4.42,2.42l36.93,127.42c-34.8-20.08-41.67-22.18-50-63.14C1236.93-42.87,1227.39-65.54,1221.33-90.21Zm37.93-113.38L1284.64-116l-30.12,8.73-25.5-88c10.12-2.74,20-6.16,30-8.48C1259.17-203.68,1259.33-203.55,1259.26-203.59Zm-9.42,97.74a196.27,196.27,0,0,1-30,9.94L1194-185.11c9.93-2.22,19.88-7.08,29.56-7.81C1232.23-164,1242.05-135.16,1249.84-105.85Zm-83.6-170.22,29.25-8.47c6.88,35.44,19.73,30.23,4.45-1.43,10.74-3.94,20-7.43,31.63-10.39,7.06,29.53,18.91,57.36,25.89,86.74-10.83,1.45-22.16,10-32.25,6.91-4.48-22.31-11.42-14.44-3.83,3.43l-29.21,8.46c-5.45-19.45-11.36-38.08-16.56-57.46C1172.09-257.46,1168.65-266.47,1166.24-276.07ZM1357,90.58c-5.87,14.22,15.15,29.81,2,43.42-53.94-25-107.87-64.72-160.82-84.71,15.28,14.18,40.3,21.91,56.77,35.32-23,43.91-71.46,46.54-114.15,60.05-28.35-21.11-27.73-57-44.09-84.75l-4.13,1.19c8.14,16.33,13,34.61,18.91,52.41,3.12,15.44,18.62,24.34,26.71,37.08,12.83,33.7,28.34,65.4,41,99.31,9.78,19,16.57,39.77,25.62,59.44,7.26,23.78,3.31,50,8.33,74.59,0,27.45-13.49,54.59-10.53,82.47,8.72,42.19,57.94,68.51,63.78,113.11,11.77,46.45,18.58,96.07,32,141,15.67,27.59,39.13,51.65,56.1,78.67-1.47,2.72,0,4.88.64,7,3.53,7.18-1.13,14.49,0,21.57-6,16.41-21.17,23.22-30.61,36.91-15,25.41,3,57.92-7.55,82.46-16.63,3.45-30.15,7.7-29.59,27.25,6.24,11.09-5.75,22.41-9.85,32.21,1.28,9.33,5.8,19.08.39,26.89-12.56-11.47-23.59-27.5-36.9-37.51-1.6,14.27,29.15,29.11,33.61,44.17-3,2.28-4.18,6.08-8.3,7.3-20.86-9.4-50.25-31.67-69.78-9-5.79-9.94-16.32-17.85-19.59-28.77,10.65-8.48,26.21-15.41,30.26-29.47-6.59-12.72-3.05-42.62-23.68-37.31-11.5,15,6.55,33,7.79,50-8.71,6.06-18.11,19.68-25.79,6.6-12.52,2,30.87,37.38,28.86,47.5-7,54.95-66.67,58.47-101,26-1.71.4-1.36-1.12-1.78-1.93-8.12-3.29-12.12-14.92-21.89-16.25a94.64,94.64,0,0,0-15.5-37.08c-3.73-11.11-11.65-19.46-14.9-30.75l8.78-2.55c-27,10-32.28-106.76-54.09-124.15-14.53-18.65-41.24-17.49-59.54-30-19.74-14.75-24-40.73-33.48-62.22-4-17.49-15.76-31.63-21.34-48.3-29.65-35.07-13.35-74.5-13.72-115.19,1.78-22.1-10.92-41.38-10.52-63.22,1.13,1.59,1.54,2.18,2,2.81l4-7.31c1.49.84,2.85.79,3.82-.14-2.83-3.57-6.06.5-9.07,1.42,30.6-76.15,26.41-82.33-10.45-155.05-27.44-51.37-22.31-103.84-5.56-158.53,9.56-47.38,0-103.11,49-131C1023.64-10.29,932.64-30.76,968.93-99c8.69,14.09-3.33,5.76-1.78,13.67,13.14-13.84,13.14,31.87,20.62,39.11,16.24,30.73,4.57,31.73-5.33,60.79-7.58,17.21-10.85,37-24.07,51-4.07,3.2-14.67,8.74-11.75,14.39,36.7-18.24,35.66-68.86,56.89-99.79,7.12,2.7,18.12-6.77,19.21,4.52,5.13,21.06,14.12,41.25,19,62.17,1.36.39,2,1.47,3.5.85-.75-23-14.66-47.95-20.07-71.26,31-11.56,22.71-6.82,31.89,20.89,3.51,1.1,3.51,1.1,5.61-2-4.33-8.91-6.69-18.7-9.53-28.24,8.16-1.64,13.66-5.23,21.4-7,17.12,50.3,31.76,103.17,48.1,153.93,12.49,11.66,53.23-12.46,69.75-13.49,16.64-9.77-25-91.77-25.84-114.92,37.13,20.38,74.32,38.92,110.6,60.46C1303.27,61.64,1330.79,75.3,1357,90.58ZM1183.44,953.41c8.43-24.07,26.84,34.29,11.61,34.89C1190.66,976.62,1189.23,964.16,1183.44,953.41ZM1320.32-119.66l25.36,87.53-27,7.82c-10.41-27.2-16.8-55.72-25.4-83.62-.58-9.26,19.48-8.19,26.74-11.89C1320.24-119.75,1320.38-119.62,1320.32-119.66ZM1382.8,93.12l-38.63-21.27c-7.5-30.09-18.34-60-23.27-90.41l26.64-7.72c10.85,29.36,17.33,59.86,28.09,89.28C1378.36,72.47,1384.47,83.82,1382.8,93.12Zm0-137.11c-10.39,3.59-21.37,4.76-30.62,10.1-13.12-27.56-17.31-58.38-27.32-87.56l26.75-7.75c1.07,1.4,2.82,1.43,3.95,1.58C1370.37-102.7,1372.72-71.33,1382.82-44Zm46.74,161.33c-13.58-3.77-26.82-14.91-40.55-21.4-8-41.87-25.52-82.22-35.81-123.89l31.61-9.16c5.36,17.6,9.26,34.73,16.21,51.56C1410.41,48.76,1422,82.7,1429.56,117.34Zm20.25,27.6c2-.37,0-2,.25-2.27l33.6,18.49c12.12,54,31.85,107.33,46.77,160.88a179.66,179.66,0,0,1-25.11,6c-15.5-43.62-25.64-89.25-40.77-133.26C1458.66,178.64,1454.69,161.78,1449.81,144.94Zm-2.62-106.19-30.49,8.83c-7.57-29.63-18.61-58.1-26.19-87.48l30.13-8.73c7.73,24.56,12.93,49.81,22.47,73.76C1445.11,29.28,1445.83,34.05,1447.19,38.75Zm28.93,95.61c-15.66,8.29-27.66-7.42-40.36-13-1.8-22.54-12.21-44.51-16.63-66.8l30.11-8.73c5.25,18.4,10.51,35.83,15.64,54.1C1469.48,111,1472.82,122.8,1476.12,134.36Zm5.94-105.52c-10.25,2.46-20.43,6.92-30.45,8.26-8-29.37-18.69-57.63-26.47-87.12l31.43-9.11Zm25.78,95.65c-9.46.85-17.51,7.13-27.2,8.56-8-30.15-18.8-58.56-26.92-88.65,10.81-2.55,19.87-6.63,30-10.07C1490.62,64.48,1504.87,95.15,1507.84,124.49Zm15.2,45.07-50.5-27.81c11.6-3.5,23.77-6.35,34.84-11.47,5.84,3.89,4.68,10.17,8.75,15.43Zm16,46.74c-2.47,2.18-5.6-.72-8,2.09-.22.94-2.86,3.7-.47,4.48,2.87-3.37,5.73-4.76,9.17-3.39l26.66,92-30.31,8.78c-14.82-52.44-32.33-103.75-46.33-156.22,20.06,11.64,43.93,17.42,45.76,44.14C1538.32,210.38,1537.8,213.69,1539.09,216.3ZM1941.2,844.36l2.35,8.12c-6.43.51-11.26,5-17.86,6-.88-7.94-6.22-14.32-7.25-22.2,19.53-5.18,38-11.87,57-17.76L1981.7,840l-18.09,5.24-1.6-5.51C1954.56,839.31,1948.22,842.78,1941.2,844.36Zm3.31,1.66,6.25-1.81c2.54,3.86-1.11,6.81-4.62,7.29A14.56,14.56,0,0,1,1944.51,846Zm15-4.44c7.21,3.42-1.52,9-5.39,4.57C1952.07,842.27,1956.75,842.68,1959.49,841.58ZM1931,690.49l-24.84,7.2c-15-54.15-32.47-107-47.85-160.89,8.75-1.49,17.15-7.74,24.46-4.28,11.53,41.44,25.13,81.37,36.8,122.62C1922.28,667.39,1928.24,678.18,1931,690.49ZM1968,814.36l-24.66,7.15c-10.67-39.79-24.23-78.13-35.37-117.85l24.84-7.2c7.42,23.84,13,48.11,21,71.63C1959.58,783.13,1963.86,798.93,1968,814.36ZM1852.12,532.22l-26.1,7.57c-21-45.68-25.12-103.22-46.82-149.63-10.88-17.82-34.52-27.34-37.48-49.6,21.24,8.61,43.81,22.14,63.66,34.58,8.27,28.09,16,56.13,24.44,84.13C1836.1,483.94,1845.67,507.55,1852.12,532.22ZM1739.19,369.29l9.35-2.71c19,15.83,32.24,33.9,35.79,58.66,12.64,38.4,22.84,77.9,32.78,117.1l-24.54,7.11c-11.66-36.73-21-74.33-33.41-110.94C1751.61,415.79,1745,392.47,1739.19,369.29ZM1901.68,699l-26.89,7.8c-15.6-52.63-32.89-104.25-48.17-157,1.45-1.11,1.6-2.62,1.58-4.27l25.63-7.43c8.85,31.14,18.1,61.41,26.71,92.49C1888.83,653,1895,676.07,1901.68,699Zm37.13,123.91-26.71,7.75c-11.58-38.86-24-77.73-35.48-116.78,9.33-3.23,16.87-7.08,26.73-9.09,8,27.51,15.83,54.93,24,82.39C1930.31,799.33,1936.41,810.37,1938.81,822.9ZM1900,904.71l-18-57.91c0,.17,21.28-6.52,31.28-8.87,5.61,15.71,12.84,43.3,17.64,57.81Zm-95.68-216c-12.33-34.35-13.19-79.57-47.29-100.05,8.48-24.89,4.65-25.95,32.54-31.82l10,34.36c11.16,2.74-5.41-28.79-5.32-35.79l24.31-7C1837.7,601,1852.13,656,1869.3,709.75c-8.3.74-21.29,9.14-27.36,7.11l-19.6-67.62c-.94-.27-1.55-1.3-3.16-.87-.1.58-.26,1.55-.42,2.52l-.77-.44c6.8,23.46,13.6,46.92,20.09,69.34,10.48,8,21.27-4.26,32.56-5.41,10.63,40.15,24.6,78.07,35.52,118.34-19.16,7.21-39.28,12.2-59.34,18.18-4.12-10.17-5-20.8-10.12-30.14C1834.78,775.57,1818.57,731.88,1804.36,688.72ZM1787.77,550.9l-24.84,7.2c-16.86-60.63-36-119.88-53.46-180.24,8.55-1.9,17-6.05,25-6.59,9.31,32.75,19.27,65.36,28.35,98.16C1772.4,496.2,1779.82,523.59,1787.77,550.9ZM1626.21,94.77c10-2.48,19.77-6.54,29.33-8L1680.82,174c-6.68,5.92-18.63,5.8-27.66,9.58-4.08-14.27-7.78-27.28-13.15-40.82C1635.71,126.63,1630.81,110.81,1626.21,94.77Zm60,177.07c.41,1.83.58,2.56.83,3.69a268.84,268.84,0,0,1-41.65,11.55l-12.73-43.95c2.37-.16,3.56,1,4.87,1.65C1654.07,253,1669.65,264,1686.2,271.84Zm-37.77-87-30.19,8.75c-8-29.95-18.89-58.43-27-88.46l28.93-8.39c10.28,22.85,14.59,47.58,22.36,71.3C1644.5,173.76,1647.69,178.94,1648.43,184.81Zm19.21,197.5c-8.17,5.95-21.1,6.38-31,10.34-7.76-30.18-18.92-58.47-26.93-88.69,10.38-4,21.21-4.14,31.91-8.17C1650.21,325.41,1658.05,353.79,1667.64,382.31Zm-74-173.69c6-4.25,13.41-5.18,20.53-7.61,2,7.79,4.75,15,6.25,22.35Zm26.78,14.76c-.06.14-.12.23,0,0Zm18,175.2,31.43-9.11,25.5,88c-30.83,9.16-30.44,14.8-38.37-18.84C1651.29,438.45,1643.43,419,1638.37,398.58Zm118.48,167.74c-3.08,43.36-58.83,41.08-90,54-1.2-9.34-7.24-16.61-8-25.82,12.37-3.9,26.92-7,38.15-11.87,1.36-11.76-32.07,8.09-39.81,7.45-8.18-29.89-18.52-57.88-26.63-87.64l31.62-9.16c3.66,15.92,10.71,30.74,14.63,46.43,2.31.92,2.31.92,5.15-.13-4.56-15.94-10.84-31.35-15.21-47.44l30.29-8.77,25.45,87.82-12.89,3.73c-1.46,2.56-1.44,3.75,2.77,4.3ZM1632.15,394l-31.43,9.11-25.46-87.87,30.3-8.78C1613.43,336.6,1623.49,364.46,1632.15,394Zm28,93.37-31.18,9c-8.26-29.39-18.85-57.67-26.75-87.3l31.62-9.16c6.26,22.4,13.24,44.26,19.2,66.65C1654.71,473.9,1659.4,480.12,1660.19,487.4Zm96.7,72.44-27.84,8.07c-19-59.61-36.6-120-53-180.36,27.86-8.33,28.23-13.58,35.13,17.33,10,33,18.23,66.65,30,99C1746,522.62,1752.72,541.1,1756.89,559.84Zm-55-186.89c-10.07,1.41-18.29,7.51-28,8.81-9.6-29.17-14.91-59.47-26.66-87.34l30.61-8.87C1686.77,314.93,1692.89,343.68,1701.93,373Zm-51.77-182.16L1667,249c-23.32-11.74-44.88-20.47-46.92-49.53Zm179.07,619c-8.28-.61-14.38-7.11-22.63-5.93-7.53-1.19-15.18,2.16-22.53,4.08l-41.88-144.5c14.77-5.84,29.12-10,44.69-14.21,13.1,48,28.66,94.31,42.33,142C1828.88,797.29,1829.19,803.44,1829.23,809.74ZM1693,879c28.1-11.48,42.33-43,70.86-55.26,23.38-10.92,40.29-20.44,65.54-6.75,4,13.07,6.11,23.37,12.06,36.27-47,9.46-82.67,42.55-119.37,71.72-7.76-4.53-10.26-14.53-17.7-20a78.86,78.86,0,0,1-8.39-20.4A10,10,0,0,0,1693,879Zm85.47-68.81c-19.66,9.26-38.47,18.73-53.28,34.86-10.47,9.76-18.65,25.11-34.19,26l-17.89-61.75c106.74-22.19-39.81-128.73,62.41-144.08C1750.12,713.84,1764.72,761.46,1778.47,810.22Zm-23.58-216.36c16.62,11.56,25.32,30.22,30.35,49.68-98.76,28.76-111.65,17.92-75.4,124.17-1.26,21-19,31.85-38.29,34.84-6.73-15.72-8.62-34.11-16.27-49.94-6.73-38.48-43.23-89.29-1.74-118.64C1685.38,615.35,1725.6,616.53,1754.89,593.86ZM1536.45,190.29l33.81,18.62a149.82,149.82,0,0,0-24.78,8.51L1541,202.11C1539.73,198,1536.85,194,1536.45,190.29Zm86.76,308c-10.86,2-19.72,7.78-30.31,9.45-8-29.81-17.31-58-26.57-87.48,10.88-1.63,19.75-7.89,30.3-9.48,8,25.23,13.21,51,23,75.58C1621.49,489.91,1622,494.16,1623.21,498.33Zm28.26,93.29L1620,600.73l-25.17-86.84c45.18-18.41,29.31,3.78,43.77,37.44C1642.48,564.88,1648.55,577.6,1651.47,591.62ZM1519.36,17.82,1488,26.9c-6.34-19.06-24.5-82.85-25-87.79l31-9Zm-29.8,15.08L1521,23.79l25.82,89.1c-9.68,3.62-20.8,4.27-29.35,9.83-2.56-1.74-3.1-4.14-3.79-6.52Q1501.65,74.55,1489.56,32.9Zm81.57,163.91-39.28-21.62c-8.81-30.17-27.48-51.25,16.87-56.38,3.09,10,5.19,20.11,9.61,29.7A337,337,0,0,1,1571.13,196.81ZM1625,238.37c4.6,16.62,10.12,33.53,14.4,50.47-21,6.93-44.37,13.32-65.24,20.44-13.26-27-17.19-57.9-27.12-86.51,9.6-1.57,17.49-7,26.63-8.75C1591.62,214.2,1608.14,231.82,1625,238.37Zm-70.72-121.52c11.47-2.46,20.37-7.44,31.41-9.89,7.84,29.91,18.68,58.75,26.64,88.53-13.07,2.23-25.62,12.57-36.76,3.41C1573.37,171.16,1560.75,144.49,1554.27,116.85Zm1.15-109.37-31.27,9.06-25.49-88c10.66-1.1,21.67-9.88,31.36-8.74Zm28.45,93.23-31.62,9.16c-6-29.48-22.21-59-25-87.9,41.08-15.35,28.75-4,41,29.14C1572.27,68.15,1579.58,83.66,1583.87,100.71Zm69.67-20.16-28.68,8.32c-6.55-19.45-13.52-18.24-6.12,1.84l-29,8.4c-23-70.61-41.32-142.08-64.07-212.75-9.28-25.12-11.69-53.71-29.3-74.28,3.39-18.42,6.6-35.9,9.83-53.5,61.86,17.72,73,83.14,88,137.16,15.73,28.39,21.88,61.2,32.54,92C1636.73,18.23,1645.15,49.72,1653.54,80.55Zm57.79,189.69c-7.27,9.51-23.34-11.89-33.71-13.83-13.72-17.93-14.09-45.7-22.77-67l28.07-8.13c8.27,23.16,14.12,46.2,22.58,69.3C1708.09,256.84,1709.42,263.64,1711.33,270.24Zm12.93,22.38c-5.56,23.27,10.77,46.49,18.57,68l-35.26,10.22q-12.58-43.43-25-86.27c1.86-4.33,8.54-2.58,11.51-6.42,7.1,2.53,12.47,7.88,20,9.06C1717.69,287.75,1720.89,290.73,1724.26,292.62ZM1718,281c.84-2.92,1.76-6.08,2.61-9,89.13-28.53,57.78-21.7,85.93,56.45-14.65-12.26-53-15.67-32-38.8-5-8.2-9.65,10.43-13.45,13.68-10.26-6.43-21-10-31.87-14.84A28.57,28.57,0,0,1,1718,281ZM1663.63-25.3l-28.36,8.22c-5.4-28.75-30.59-71.14-22.59-97.8,8,.66,16.32-2.19,24.77.93,1.76,3.13.72,7.65,2.54,11.36C1649.42-77.41,1655.82-51.07,1663.63-25.3Zm28.69,94.8c-10,2.48-19.76,6.52-29.3,8l-25.7-88.68,28.06-8.13c3,10.4,6.14,20.3,8.72,30.34C1681,30.36,1686.81,49.71,1692.32,69.5Zm28.27,93.29-30.32,8.78-25.41-87.69L1694,75.42c7.51,24,12.57,48,21.62,71.2C1718.23,151.49,1719,157.31,1720.59,162.79ZM1701.07-36l-32.68,9.47-25-86.4c9-4.83,23.83-15.53,32.33-6,6.78,22.93,13.47,47.27,20.6,70.79C1699.56-44.58,1699.17-39.95,1701.07-36Zm27.06,93.86c-10.63,4.2-22.1,3.91-31.12,10.89-8.57-30.07-16.91-59.73-27.07-89.2l31.62-9.16c3,10.42,6.22,20.49,8.82,30.71C1717,19.94,1722.85,38.58,1728.13,57.89ZM1698.45,74l31.68-9.18c7.25,27.82,18.12,55.83,22.94,83.91-4,10.55-18.64,8.25-28,12.78C1717.37,131.45,1707.13,103.41,1698.45,74Zm83,173.93c-20.53,4.65-41.82,14.68-61.82,16.48-9.32-28.33-17.1-58.44-27.83-85.82,20.37-6.26,39.75-13.44,60.37-18.72,1.26,1.42,2.29,3.14,5,2.46,5.26,17.85,9.62,34.86,16,52.14C1776.2,225,1782.74,237.44,1781.5,247.91ZM1759.43,48.64l-25.7,7.45c-8.72-29.27-16.17-58.91-26.65-87.36l26.93-7.8ZM1792.61,142c-9.6.07-30.4,15.32-33.66,4.05-4.56-28.19-16.1-55.07-23.2-83,10.2-3.1,21.36-10.34,31.43-8.83Zm28.85,94.36c-32,9.26-33.16,16.48-41.14-19.32-6.82-33.69-38.14-64,14.44-69.44C1804,177.4,1813.13,206.31,1821.46,236.36Zm1.54,5.91,25.47,87.91-16.24,4.71c-.84,2.65-3.56,3.71-4.22,6.15-28.65-14.33-23.66-59.12-36.64-86.06C1796.91,245.26,1813.37,247.08,1823,242.27Zm4.15-111.67L1798.26,139c-10-29.13-18.21-57.6-26.8-87.85,10.86-.83,19.49-4.33,29.77-7.08C1808.76,73.57,1819.63,101.43,1827.15,130.6Zm29,94.47-30.29,8.78-25.48-87.91c9.8-3.13,18.41-7.52,28.63-9.57,5.82,16.69,9.31,33.81,15.74,50.08C1849.59,198.89,1852.21,212.25,1856.13,225.07Zm28.16,93.82c-10.34,3.52-19,7-30.11,9.69-9-29.68-18.31-57.93-26.51-87.69,10.36-3.82,19.24-7.63,30.14-10,5.92,22.56,14.75,43.45,20.34,66C1880.19,304.12,1882.61,311.28,1884.29,318.89Zm3.3,6.28c5.81,19.47,10.56,39.11,18,57.68-14.45-6.39-26.82-13.92-40.89-20.75C1807,338.13,1855.34,336,1887.59,325.17ZM1878,520.71c-3.64,6.42-14.73,6.3-20.88,10.23-16.09-52.19-32.54-105.42-47.54-158.09-21-15.22-46.46-30.47-70.8-38-3.24-13.38-14.6-25.06-8.25-39.17,36.94,16.34,71.18,38.77,106.57,58C1832.87,407.17,1868.33,466.51,1878,520.71Zm32.49-6.61c-8.71,1.43-18.12,8.49-25.62,3.42-13.88-39.47-23.87-78.1-35.8-118.22,11.13,7,24.1,11.19,32.67,19.82,3.16,10.89,6.51,21.74,9.42,32.7C1898.4,472.37,1904.64,493.08,1910.52,514.1Zm50.58,166.13c-7.64,5-16.16,6-24.36,8.84-15.66-53.08-33.24-105-48.31-158.27,5.88-6,15-7.35,23.77-10.9,15.41,51.67,31.43,103,46.18,154.68C1960.79,676.19,1960.14,678.58,1961.1,680.23Zm12.42,131.51c-5.75-22.74-26.45-87-35.09-116.85l24.84-7.2c11.79,39.17,21.48,78.4,35.11,116.84Zm20.5,65.74-57.8,16.75-9.45-32.62c5.35-4.34,11.46-5.21,17.1-7,1.52,1.73.93,4,2.65,5.51,19.54-1.31,2.85-8.55,15.41-11.78,2.75,8.34,8.61,16.71,5.37,26.43l1.13-.33c6.46-18.46-17.88-27.41,13.92-32.19,1.64,7.91,6.87,17.51,8.66,25.65C1991.25,868.7,1992.43,872.44,1994,877.48Z"/></svg>