<svg id="Layer_1" data-name="Layer 1" xmlns="http://www.w3.org/2000/svg" xmlns:xlink="http://www.w3.org/1999/xlink" viewBox="0 0 390.97 525.17"><defs><style>.cls-1{fill:none;}.cls-2{clip-path:url(#clip-path);}.cls-3{fill:#e6e6e6;}.cls-4{fill:#f2f2f2;}</style><clipPath id="clip-path"><rect class="cls-1" x="-495.03" y="-150.89" width="1366" height="1007.98"/></clipPath></defs><g class="cls-2"><polygon class="cls-3" points="-328.51 -396.66 -329.36 -393.43 -338.42 -359.07 -347.82 -323.42 -350.55 -313.05 -367.81 -247.59 -371.4 -233.97 -372.26 -230.73 -390.54 -161.38 -391.91 -156.19 -400.8 -122.48 -401.14 -121.19 -402.17 -117.3 -429.34 -14.24 -465.06 121.24 -529.32 364.96 -538.21 398.66 -539.06 401.9 -540.43 407.09 -530.71 409.65 -527.47 410.51 -500.89 417.51 -495.7 418.88 -467.83 426.23 -464.59 427.09 -436.72 434.44 -432.83 435.46 -404.31 442.98 -401.07 443.83 -372.55 451.36 -369.31 452.21 -340.79 459.73 -337.55 460.58 -309.02 468.1 -305.78 468.96 -278.56 476.14 -275.32 476.99 -249.39 483.83 -244.21 485.19 -228.65 489.3 -225.41 490.15 -208.56 494.59 -205.31 495.45 -188.46 499.89 -185.87 500.58 -169.01 505.02 -165.13 506.05 -148.92 510.32 -146.33 511 -128.83 515.62 -125.59 516.47 -87.99 526.38 -84.1 527.41 -48.45 536.81 -44.56 537.83 -28.36 542.11 -25.12 542.96 -8.26 547.4 -5.02 548.26 25.44 556.29 28.68 557.15 58.5 565.01 65.63 566.89 98.04 575.43 101.28 576.29 117.49 580.56 120.08 581.24 137.58 585.86 140.82 586.71 170.64 594.58 173.88 595.43 203.7 603.29 206.94 604.15 236.75 612.01 240 612.86 275.65 622.26 284.07 624.48 323.61 634.91 326.85 635.76 341.76 639.69 345.65 640.72 360.56 644.65 363.15 645.33 376.12 648.75 378.71 649.44 400.1 655.08 405.93 656.61 455.84 669.77 475.29 674.9 535.57 690.8 539.46 691.82 567.33 699.17 571.22 700.2 605.58 709.25 610.76 710.62 641.88 718.82 645.12 719.68 658.08 723.1 783.83 756.25 837.15 554.02 841.08 539.11 847.41 515.13 864.15 451.6 931.49 196.21 935.08 182.6 935.94 179.36 960.38 86.67 961.23 83.43 979.35 14.72 980.2 11.48 987.55 -16.39 988.4 -19.63 994.9 -44.27 995.75 -47.5 -328.51 -396.66"/><path class="cls-4" d="M981.89-18.58c.46,1.76,4.08,1.34,5.66,2.19l.85-3.24c-2.95-.58,1.34-4.78-.7-6.43l-24.33-6.41,5-18.8L965.73-52c-.29,1.11-3.22,11.13-5.41,18.68L927.07-42c4.63-5.05,5.81-6.69,6.83-12.75.81-1.71-.1-3.65.72-5.36l-2.6-.68c-.94,1.69-.18,3.61-.71,5.35.1,6.28-5.33,7.81-7.23,12.66l-21-5.53c-1.88,7.13-7.54,29.59-10.51,36-11.94-2.52-29.46-8.5-39.71-12.79l13-47.57,11.67,3.08-10.9,41.31C873.17-27.52,878.5-70,880.1-69c1.25-5.09-10.72-4.52-13.59-6.32-5.83-5.15-15.06,47.34-17,48.57-11.06-3.6-21.17-12.44-29.79-20.12,2.7-12.52,11-28,13.74-40l-3.24-.86c-2.36,11.48-10,26.39-12.73,38.44-1.83.9-2.27-1.38-3.64-1.16-30-25.24-32-4.28-21.88-47.36l-2.59-.68c-2.67,10.4-4.91,20.83-6.85,31.23,25.52,15.55,17.91,5.46,5.41,29.28C777.88-3.57,768.68,31,759.36,65.52c-7.6,19.45-10.3,45,13.48,53.65L769,133.74c-11-1.71-21.77-6.69-32.57-7.4l-.35,1.33c2.68,2.74,7,2.55,10.61,3.87-5.17,16.43-7.59,35-14.16,50.31-2-.42-8.81-3.25-6.63,1l6.78,1.79c-4.65,17.28-9.7,33.58-14,51.1-17.23-2.42-15.84-6.45-11-21.37-.78-.67-1.74-.56-2.54-.9-.81,7.05-6.74,14.7-2.33,20.88,12,2.76,23.62,7.07,35.72,10.23-4,17.09-9.66,33.16-13.74,50.33-40.41-8.94-37.69-21.66-48.12,24-6.57,26.69-16.1,53-21.08,79.87L610,425.37c3.85-25.73,6.74-6.7-1.86-33.22.54-25.07-7.87-33.65-19.91-53.34-5.46-13.38.7-27.19,3-40.74,3.71-12.75,3.31-27.82,9.71-39,6.46-15.19,14-30.5,21.58-45.06,4.65-10.73,12.49-22.63,1.65-32.55,11.34-38.71,18.69-79.35,32.13-117.1C664,53.92,676,45.06,678.8,31.91c-2.63-15.34-7.72-27.7,1.3-41.57,5.63-12.91,4.15-21.77,21-24,.59-6.28-27.11,5.58-32.87,5.3C644.05-25.93,625.44-11.15,604.74-1c-46.39-7.59-16.52-48.87-32.17-63.11-2.08.55-4-.52-5.89-.88-.32-.78.54-.55.57-1-.54-.91-1.38-.25-1.56.59-5.82-.25-6.92-4.82-7.42-9.59,10.32-1,23.9-4.74,9.86,7.79,2.51,2.82,10.14-8.9,5.87-10.62l.92-3.48c9.41,10.54,10.34,30.37,8.91,44.81a3.81,3.81,0,0,0,2.43.77c5.45-19.18-5.07-36.6-8.75-55,9.68-22.26-8.07-18.41-24.63-18.59-1.16-5-11-9.08-4.19-13.13,4.24-4.26,11.27-10.63,10.46-16.67-5.36,2.87-7.38,11.71-13.12,15.28-9,7.71-22.23,14.39-34,15.27-12.65-4.49-5-17.1-18.44-27.8-13.16-16.53-38.72-7.23-52.27,4.25-3.85,3.16-6.55,7.82-10.82,10.39-14.18-6.72-20.56-23.33-28.66-36-2.65-6.21-10.7-6.58-14.77-11.26-6.95-10.52,1.45-23.54,3.7-34.62l-5.18-1.37c-.65,3.87-2.46,7-3.38,10.72-15.52-3.6-30.23-9.11-45.72-12.57-.36-1,.08-2.39-1.76-2.48l2.24-8.49-3.24-.85c-.88,3.29-1.41,6.91-3.88,9.38-15.22-3-29.86-7.15-44.87-11.14l2.73-10.38-6.48-1.7c-1.13,3.5-1.15,6.9-3.66,10.12C261.72-226.15,246-231.22,230-235.4l2.59-9.85-3.88-1-2.48,9.39c-2.92-.25-36.81-9-47.38-12.25l2.54-9.61-3.89-1-2.48,9.4c-2.77-.25-28.35-6.84-36.49-9.43,3.37-2.7,7-4.54,9.8-7.66l-4.54-1.2c-30.87,20-29,35.11-38.19,68.63-16.29-2.69-32.85-8.41-48.94-11.31l3.69-14c30.8,9.59,32.63,4.34.77-2.65l3.59-13.64c8.36.47,25.21,10.29,30.31,5.63.93-.75,2-1.62,4-.69-.78-1.41-2.08-.92-2.72-1.92,2-2.53,2.51-6.06,3.84-9-.67-.24-.94.53-1.42.51-1.38,3.6-1.84,7.51-4.7,10.36L66.38-244c-16.74-6.08-34.23-9.25-51.13-14.87.69-1.29.37-5.7,2.67-4.11,3.15,2.77,8.13,1.12,10.62,4.66,1.88-1.43,4.29-1,5.46-3.12,1.86,0,3.58,1.44,5.72.74,0,2.5-3.4,7-.78,8.05,1-2.36,1.3-5,2.16-7.44,1-.31,1.75-.09,2.06.95,6.56,3.78,10.42-10.89,4.54-13,0-2.11,3-6.17.72-7.15-1.77,2.59-.48,5.76-1.87,8.5l3.19.84c-1.7,12.82-5,9.88-15.51,7,.09-3.28,4.05-8.77,1.52-10.62-2.23,6.77-2.52,17.9-12.38,11.25-11.27,0-3.62-10.34-2.77-17.26,2.48-.85,4.63.9,7.18,1,.29-1.4,2.07-2.28,1.68-4.19l-1-.26-1,3.83c-12.48-6.47-9.82,12-13.63,19.83-11.38.55-29.08-10.93-37.28-5.9,10.14,4.25,21.84,4.79,32.4,8.23L1.09-227.27c-91.9-20.18-13.58-15.35-50.15-66-1.62.56-1.62.56-2.16,2,4.72,7.32,10.66,15.85,10,24.81-4.18,5.77-2,15.36-7.66,19.76-12.06-21.14-24.92-41.84-37.63-62.55-9-9.58-2.21-11.76,4.72-18.88l-3.89-1c-8,12.46-10,7.32-14.26-3.76l-7.78-2.05c3.22,7.93,8.07,14.94,12.23,22.39-6.36,7.3-10.84,16.38-14.38,25.32,2.18,2.55,8.83,5.46,10.71,1.3-2.07-1.71-4.79-.67-7-1.47,2.11-7.81,6.5-16.1,12.16-21.79,7.93,9.88,13.33,21.34,20.29,32.09-3,8.12-5.51,17.92-4.11,26.72,13.42,14.37-3,20.47-14.49,27.08-3.24-1.2-2.5-4.65-4.31-6.37,0-22.85-8.79-43.71-29-55.54-2.29-2.46-2.23-2.5-3-6.07-3.84-11.92,3.4-26.86-4.89-37.75-3.79-8.33-15.39-11.61-19.55-17.87l-11-2.91c40.29,28.46,26.71,19.54,32.83,63.33,8.16,8.72,19.32,14.91,25.26,25.75,6.84,15.29,1.76,35.36,15.92,47,24.29,10,52.2,13,77.27,21.6,3.46,6.06,10.63,8.34,13.38,14.7-6.68,5.45-13.89,12.1-16,20.85-.71,2.61-3,12.45,2.4,9.69-2-11.89,6.68-22.57,16.22-28.52,12.1,13.72,23.69,28.17,35.37,42.22,3.36,2.07-6.41,8-9,8.59-3.86,2.75-16.21,3-15,8.44,10-2.63,19.51-6.21,27.24-13.3,10.66,12.19,21,24.5,31.79,36.92C63.35-87.73,53.7-84.4,43.29-80,39.17-84.63,37-103.2,30.78-101l9.71,22.2c-6.21,2.73-12.61,4.7-18.79,7.65C18.26-79.65,13.64-104.9,3.32-86c-17.48-1.78-26.19,13.37-33.79,26.35-33.15,11.74-14.25-41.5-1.46-52.53,7-8.61,3.48-20.55-.1-30.29-6.65-36.16-35.18-13.29-54.23-30.14-24.16-23-30.3-21.64-35.92-57.33-1.11-14.25-16.53-21.54-17.46-36,4.48-13.11-5.09-26.27-2.22-39.17,10.15-22.42-10.46-33.88-26.43-44.5l.33-1.24-4.54-1.2c.66,6.86,9.47,8.86,13.21,13.63-1.43,2.66-4,4.48-5.6,6.86-4.61-.37-8.59-.76-12.37,2.8-.32,1.41-.39,2.22-1.86,2.79-3.12-2.9-6.87-5.12-10-8.6l-1.87,2-.32-.55c-.67,4.5-7.49-.57-11-.57,3.41-7.47,4.77-16.26,7.16-24.35l-3.24-.86c-2.09,9-5.4,17.23-7.62,26.26-9.46-1.59-18.1-6.08-27.78-7.69,1.83-9.15,5.21-17.12,7.52-25.91l-3.24-.86-6.74,25.59c-2.77-.22-18.94-4.34-27.94-7.13l6.81-25.81-5.19-1.37-6.74,25.6c-2.76-.24-27.09-6.5-35-9l1.93-7.36-.49.2c-1.7-4.77-4.64,4.66-4.82,6.7C-339-357.53-340.6-333.4-350.55-313l-17.26,65.46c4.25-10.07,7.77-23,11.1-34.13,2.71.19,18,4.08,26.61,6.78-3.89,16.11-9.56,31.52-13.26,47.68-9.45-1.54-18.71-4.26-28-6.71l-.86,3.24c6.73,3.42,25.81,3.31,27.3,9.47-7,33.69-21.37,66.5-24.24,100.34-5-4-5.67-9.29-10.65-13.32-3.44-1.66-8.68-3.13-10.32-7.27,1.1-6.46,4-13.92-.37-19.87l-1.37,5.19,1.22.32c-3.06,18.93-5.19,16,11,25.76,3.15,5.75,7.8,10.35,11.64,15.41-10.15-.29-22-5.75-32.74-7.78l-.34,1.29c10.48,1.73,20.45,5.75,30.9,8.27-.63,5.08-3.82,9.1-4.84,14.14-3.12,1.27-4.49,4.44-7.06,6.69-1.95.07-5.54,0-5.85,2.41.26.46.49.84.81,1.39,11.07-.6,16.17-11.78,19.2-21.24,1.79,11.69-6.37,23.29-8.14,35-2.93-.2-7.3-3.61-9-.31-8.28-.37-17.67,1.11-24.72-4.39l-.62.93c5.91,4.88,15.06,5,22.56,4.55,4.13-1.18,6.64,2.25,11,2.59a428,428,0,0,1-16.72,50.23c-1,10.18-9.84,5.05-12.28,9.88,21.41,6.45,18.13-36.37,28.77-43.57.32-18.13,12.11-37.68,13-56.84,9.72,2.23,18.46,6.08,28.29,7.56-14.69,44.06,3.06,39.2-37.55,32.69,40.25,10.6,24.14,6.54,16.39,47.77-1.27,22-3.44,44.36-16.11,63.34-6.17.23-14,3.54-15.55,9.87,1.33,2.93-4.09,8.54,1.1,8.54,1.44-7,3.18-15,11.61-14.83a.45.45,0,0,1,.53-.47c.39.28-.2.7-.53.47a32.2,32.2,0,0,1-4.64,9.68c-2.68,6.52-4.08,13.14-6,20.12l-12.88-3.4c3.91,2.33,8.23,2.62,12.57,4l-16.41,62.23c-20.53-4.75-41.06-12.33-61.77-14.9L-529.32,365l9.39,2.47c-.24,2.87-5.65,24-8.67,33.77l-9.61-2.54-.85,3.24c4.71,1.56,11.86,1,8.35,7.75l3.24.86,1.34-5.07c9.17,1.66,17.37,5.25,26.47,7.41l-1.23,4.67,5.19,1.36,1.11-4.2c2.82.24,18.57,4.25,27.93,7.12l-1.17,4.43,3.24.86c.73-9.11,13.37.27,19.4.26,4.78,1.08,13.07.07,8.47,7.08l3.89,1c.46-8.94,9.81-.2,15.36-1.41.88,1.47,2.54,1,3.69,1.63.34-.46.59-.79.84-1.11.64.22.14.68.35,1.28l9.5,2.51-1.22,4.62,3.24.85,1.11-4.2c2.84.24,19.16,4.4,28.58,7.3l-1.17,4.42,3.24.86,1.11-4.21c2.84.25,19.16,4.41,28.58,7.3l-1.17,4.43,3.24.85,1.11-4.2c2.84.24,19.16,4.4,28.58,7.29L-309,468.1l3.24.86,1.14-4.35c9.27,1.43,17.77,5.61,27.11,7.61l-1,3.92,3.24.85,1-3.86c8.75,2.23,17.09,4.49,25.93,6.81l-1,3.89,5.18,1.36c.8-4.09,2.55-7.93,3.71-11.74,13.89,3,18.17.28,11.85,15.85l3.24.85c2.39-17.26,6.69-10.72,20.1-7.87l-3.24,12.31,3.24.86c1.83-16.39,7.6-9.89,19.93-7.23l-3.08,11.67,2.59.69c1.45-15.75,8-11.1,20.09-7.82L-169,505l3.88,1,2.51-9.5c3.35,0,5.83,2,8.7,2.77.57-1,1.8-1.46,1.56-2.92l6.65,1.75-3.21,12.17,2.59.68c3.23-19.23,6.2-9.06,20.58-7.05l-3.08,11.67,3.24.85,3.07-11.62c12.72,3,25,6.7,37.43,10.51l-2.9,11,3.89,1,2.82-10.69c2.85.24,25.85,6.14,35.71,9.18l-2.88,10.91,3.89,1c1.71-15.64,7.45-9.19,19.11-6.74l-2.91,11,3.24.85c1.66-16,8.05-8.88,19.76-6.57l-2.9,11,3.24.86a50.25,50.25,0,0,0,3.31-9.92c10.08,1.65,19.85,5.77,30.06,6.93l-2.91,11,3.24.86c1.26-3.16,1.2-7.84,3.22-10.24l29,7.64c1.86,3.51-2.13,7-2.41,10.46l7.13,1.88,2.64-10c2.87.21,18.72,4.25,31.59,8,1.4,3-1.44,7-1.82,10.53l3.24.86c.93-13.31,8.24-10,18-5.37-.41,3.11-2.13,6.2-1.76,9.64l2.59.68c1.24-3.07,1-6.43,1.79-9.75l17.42,4.59c-.56,3.21-.51,6.6-1.71,9.78l3.24.85,2.55-9.66c9.63,4.93,34.87,1.67,27.27,17.52l3.24.86,2.51-9.52c10.11,1.73,19.6,5.71,29.68,8.38l-2.37,9,3.24.86c1.14-2.72,1-7,2.88-8.95,9.4,5,35.13,1.66,26.93,16.81l3.24.85c16.47-51.13-.54-48,39.1-36.31-13.07,39.74,10.76,37.79-3.44,45.71l8.42,2.22c15.9-11.42,34.9-20.55,51.61-31.54,13.2-6.48,26.12-18.06,40.65-19.84,5,8.53,1.87,20.23,9.34,27.71,1.56,2.71,7,7.18,2.72,9.44-.67,2.63-1.68,2.87-4,1.12-37-10.18-51-24.3-60.8,23.54l3.24.85c5.45-8.88,2.58-24.56,12.95-29.27,3.43-1.63,9.44-4.52,12.23-.49-4.27,10.58-6,22.8-10.27,33.69l3.89,1c2.77-11.69,6.76-22.91,9.79-34.49,4.84.28,9.88,2.56,15,3.59-2.74,11.89-6.76,23.15-9.88,34.83l2.59.68c3.61-11.62,7-23.29,10-35.11,4.25.22,9,2.34,13.69,3.28-2.48,12.25-8,23.11-10.68,35.25l2.59.69c4.62-13.06,4.11-29.52,13.21-40.23,5.77,4.85,13.24,8.1,19.52,11.32-6.18,10.56-6.87,23.19-11.34,34.55l5.83,1.53c3.8-10.6,3.93-23.27,10.31-32.61,2.47,7.72,1.08,16.66,1.79,24.7,4.85,16.73,27,10.28,38.06,20.14l-.25.93,19.45,5.13c-3.6-4.31-10.79-6-14.56-10.39,17.71-7.26,35.07,10,52.95,8,4.93.72,10.21,1.53,14.24,4.44,2.56.25,4.52,2,7.18,2.66.46,3.69,1.25,7.36.47,11.15l3.89,1c-2.11-31.13,11.31-61.65,19-91.34l35.62,9.39c.7-.67.6-1.51,1-2.43L559.34,598c3.84-17.26,10.4-33.92,12.66-51.4l35.24,9.29c3.82-2.93,5,4.08,4.47,7.11,6.36,4.34,1.07-7.42,1.07-10.29,7.61-14.71,9-32.65,14.26-48.49l38.25,10.09c-2.22,9.64-5.93,20.93-6.32,30.1,1,.38,1.34-.25,2-.44,1.77-9.23,6.28-18.61,6.53-27.94,12.63.4,26.65,7.72,39.87,10.08-7.7,16-6.73,36.94-17.06,51.21-7.51,7.54-21,6.72-30.93,10.38-20.12,3.62-28.24,31.08-45.89,42.14C590.17,651.74,571,665,567.33,699.17l3.89,1c.8-36.32,34.8-56.93,58.55-80.57,20.18-27.79,23.94-28.52,57.53-35.18,1.56,10.42,4.18,20.61,6.13,30.92-12.45,9-28,7.21-41.94,12.54-10.8,4.69-14.45,14.57-19.75,23.87-12.65,17.59-22.46,35.91-26.16,57.47l5.18,1.37a115.46,115.46,0,0,1,21.71-49.22c8.33-16.32,22.89-28.76,42-27.65-5.42,15.38-6.74,32.71-16.9,46.29-7.67,10.68-14.87,25.83-15.66,38.78l3.25.86c2.69-10.75,4-21.68,11-30.71,2.56-3.33,28.58-19.63,20.12-22.82-2.66,3.38-5.37,7-8,10.17-2.34.95-3.82,3.22-6.24,4.08,7.63-14.45,12.09-31,16.38-47.38,25.52-9.55,57.32-21.23,64.59-50.26,2.06-.19,2.59,1.81,4,2.41-.77,5.73-1.27,6.39,2.91,10.73-1.2,4-4.76,7.14-5.05,11.54-3,3-8.66,5.68-8.66,10.06,2.36-3.45,10.47-7.81,9.77-11.66,2-3.67,4.88-6.75,5.57-11-4.82-2.56-3.17-6.35-3.61-10.77-2.11-1.75-4.56-3.26-3-6.38,6.48-3.06,4.82-26.84,9.66-36.16,4.23-.79,9,2.27,13.5-.14,3.87-1,6.59,2.81,10.35,3.43,3.3,1.12,9.09.86,10.12,4.76,5.53,4.07,11.38,3.83,17.31,5.89,5.77-4.75-13.57-3.69-15.3-8.48.91-.85,2.35-1.07,2.93-2.38,4.53-.23,23.88,9.9,22.4,2.48l-21-5.55c3.23-15.77,9.35-30.64,12.59-46.23,11.6.71,21.4,7.64,32.49,10.22a3.8,3.8,0,0,0,.84-2.51c-4.67-1.5-9.88-1.78-13.51-5.82l13.47-51.08c7.69,2.36,15.65,3.57,23.43,5.48l67.33-255.39c-16.58,47.44-.11,47-50.55,72.13-5.73-5.51,1.24-14.14,1.77-20.94,4.31-1.72,19.09-10.33,21.23-12.42,5.48-18.74,10.78-37.46,15.59-56.48l15.55,4.1.86-3.24c-25.31-3.44-11.08-11.31-8.23-29.06,5.6-22.7,11.74-45,18.52-67.36l14.15,3.73.85-3.24c-4.87-1.38-8.86-3.45-14.09-4.41,5.41-22.63,12.85-44.63,18.43-67.24,3.85,1.44,10,1.81,13.78,2.94l.85-3.24c-6-1.59-13.22-3.51-26.57-7l9-34.05,22,5.81C984.16-21.56,983.93-20.09,981.89-18.58ZM-329-279.25c-8.19.24-17.26-4.41-26-6,9.76-22.88,13.61-71.31,46.1-70.16Zm23.82-76.61c11.58,3.46,23,6.83,34.6,10l-20.24,76.75c-11.56-2.61-23.36-5.71-35-8.3ZM-341-222.5c11.88,2.33,23.24,5.28,35,8.52-18.2,54.91,2.88,51.95-47.45,38.79Zm15.66,79.4c-3,12.37-6.41,24.1-9.6,36.58a102.65,102.65,0,0,0-14.07-3c-4.94.55-10.09-2.52-15.29-3.33-4.88-19.52,6.1-39.37,9.83-58.93,4.76.34,8.64,3.53,13.44,4-2.9,12.6-7.39,26.92-10.79,37.84,10.4-7.91,8.32-25.36,13.43-37,6.26,2,13,2.83,18.71,5.28C-320.95-155.34-323.88-149.45-325.39-143.1Zm20.55-74.18-34.49-9.09,12.61-47.82c11.75,3.32,23.29,5.84,35.07,8.56C-295.75-249.34-300.29-233.36-304.84-217.28ZM627,191c.33,6.61-2.64,11.2-5,17-6.85,13.17-12.54,27.12-19.55,40-7.88,15.22-11.1,32.13-14.22,48.94-18.1,57.61,18.92,46.76,17,98.07,5.17,7.51-17.56,13.71-22.61,18.57-5.82,2.67-6.18-10.52-9.26-14.09-8.15-18.65-14.49-37.88-25.47-55.16,3.79-20.92,8-42.31,11.76-63.33,3.16-13,2.57-27.29,9.46-39,20.33-28.51,20.23-61.81,26.81-94.69C606.64,161.58,617.26,176,627,191ZM485.63,393.74c7.53-20.64,15.67-40.69,23.84-61.24,4-13.19,12.38-25.42,12.51-39.73,10-72.71-27.76-58.61,18.86-117.79,8.73,23.72,11.59,49.71,22.14,72.67-6.11,31.79-13,64.24-17.68,96.12-8.44,21-32.42,40.36-15.56,64.28-2.67-.08-27.17-6.34-45.25-11.55C483.78,395.1,485.49,394.82,485.63,393.74ZM549.88,158c4.68-18.33,7.4-37.29,11.17-55.7,11.33,11.94,21.69,28.61,32.73,41.67-7.2,34.22-7.64,70.4-29.17,99.81-10-22.7-13.16-47.84-21.28-71.12C545.05,167.47,549.39,163.88,549.88,158Zm13.38-69.31c2.06-22,17.4-37.9,29.37-55.2,7.84,5.07,19.19,15,21,24.85-1.37,27.46-14.92,54.41-18.81,81.81-8.69-9.29-15.47-20.19-23.53-30C566,103.1,559.8,97.94,563.26,88.72ZM529.1,400c-9.64-20.28,11-34.33,17.23-51.53,13.75,19.68,20.07,44.94,30.7,66.81-7.45,4.77-17.77,12.94-26.1,14.34C543.69,419.76,532.71,412,529.1,400ZM610.38.13c22.32-16.22,47-24.41,74-29.22-3.05,10.58-8.46,20.38-12.15,30.94-1.42,28.09,12.79,27.35-11.38,53l-5.61-1.48c-2-24.57-20.49-48-45.09-52.78C610.3.27,610.32.16,610.38.13Zm-2.84,2.51c4.32,1.19,8.76,2.05,12.4,4.67,65.89,31.66,8.92,117.6,2.44,170.2-9.88-8.86-16.25-23.94-25.78-33.69,6.12-28.42,16.54-56.64,20.12-85.21-1.07-12.79-14.64-18.75-21.33-28.25,4.68-9.75,6.67-20.92-.23-30.48C599.51,1.85,603.67,1.44,607.54,2.64ZM561.75-106.5c1.52-1.06,3.14.94,4.66-.14,3.51,1.25,7.23,1.49,10.81,2.06,0,7.73-4.28,14-1.14,21.22-7.67,7.84-1.58,5.86-16.75,6.88-.83-15.71-8.66-10.16-6-29.9C556.38-106,559-106.94,561.75-106.5ZM382.31-165.74c13.2,9.51,17.75,13.2,25.05,28.89,4.63,6.58,9.82,13.38,16.13,18.23,1.28,2.05-.33,7-1.93,8.78-1.33,3.82-4.06,7.09-5,11-3.48,5.12-5.57,11.73-8.84,17.52l-36.11-9.53c.61-2.34-3.35,1.08-8-1.38.85-1.8-.18-2.54-1.27-3.36,3.47-18.31,7.95-35.28,12.4-52.25C375-155.19,376.35-160.88,382.31-165.74Zm22,92.44c-8.65,21.08-6.77,48.05-21.93,65.91C367.08,2,346.64,3.32,340.28,23.07c-5.74,17.91-12.19,36.12-21,52.46,0,1.94-1.92,3.15-2,5.07-1.82,1-.77,3.63-2.61,4.63-10.88,25.25,6.47,52.91-3.51,79.27-8.28-3.88-18.09-6.25-25.91-10.77l1.67-.14c-.7-1.5-2.12-.52-3.12.09-5.59-1.1-10.14-5.18-15.69-6-.11-1-1.08-1-1.43-1.75,19.2-56.37,33-115.25,50.11-172.24,10.77.68,21.66,9.28,31.11,6.59.24-3.21-3.58-2.05-5.61-1.86-7.29-4.79-16.47-5-24.54-7.38,5.74-22.92,12.32-45.39,18.73-68.14,6.19,2.76,17.43,2,20.19,7.26,1.2-1.71,5.2,2.35,5.79-1L356.76-91c.84-.88,1.39-1.2,2.2-1,1.57-.65,1.31-3.84,3-3.32,2.52,8.39,17.18,6.16,24.69,9.3l.1,1.26c6.5-1.63,13.18,4,20.14,4.8C405.72-77.78,406.27-75.11,404.28-73.3Zm-97,255-1.57.28c3.38,4.27,1.89-5.18,3.75-7.51-1.11,9.36,4.62,16.63,8.4,24.73,12.38,23.94-3.2,46.32-12.39,68-1,.48-1.24-.31-1.57-.82-1.17,10.8-6,22-7.7,33.3-3.53-7.48,1.85-15.38.72-23.33-2.46-17.42,6-33.32,8.95-49.81C295.9,206,289,172.48,260,175.77c-4.3-.55-8.43-.9-11.92-4.05,5.62-7.21,14.26-10.34,19.1-18.31,14.06,4.83,28,11.61,42.43,16.09C307.63,173.32,307.5,177.49,307.3,181.72ZM296.59,300.91c-.29.25-.51.19-.64-.16C296.24,300.5,296.46,300.56,296.59,300.91Zm-19-75c-3.07,17.17-24.82-4.67-34.67-4.48.29-5.8-.22-11.15.6-16.85C254.17,211.38,280.46,207.52,277.54,226Zm-33.21,55c-2.61,11.49-6.85,22.71-9.69,34.06-4.87,1.62-10.06-3.57-15.66-3.77,3.32-14.11,7.87-27.18,11.43-41.29l16.45,4.34C245.72,276.52,246.29,279.17,244.33,281Zm5.24-17.44c-.51,2.4-1.23,4.75-1.92,7.39l-16.21-4.27c3.47-14.3,8.45-27.69,11.3-42C266,229,253.89,248,249.57,263.57ZM239,223.7c-.85,14.3-7.1,28.24-10.35,42.24L212,261.55c3.37-14.14,9.9-27.92,10.44-42.22Zm-11.42-6.62c-7.19-2-9.5-24.66-14.05-32.38-14-31.16-11.27-46.44,2.42-77.19,11.94,3,14.6,15.38,13.87,26-5.86,15.16,1.27,29.86,13.87,38.95-.14.69-.61.25-1.17.28-9,14.16.32,31.88-3.61,47.49A115.29,115.29,0,0,1,227.58,217.08Zm-10.67,15c-3.69,9.4-5.35,18.84-8.16,28.64l-16.09-4.24,11.07-42,15.31,4C218.32,223,218.88,227.82,216.91,232.07ZM201.27,410.62c5.54,2.86,11.8,3.41,17.71,5.47-10.65,41.4-1.07,30.14-54.77,16.61l7.85-29.78Zm-20.06-50.69c-3.28,13.22-7.82,25.84-11.49,38.9-5.68-.93-9.44-3.38-14.8-4.31l12-45.64a126.69,126.69,0,0,1,16.52,5.1C183.19,356.23,182,357.84,181.21,359.93Zm-37.1-163.26c4.15,2.46,16.24,1.11,16,6.81l-17.27-4.55C142.38,197.84,143,197.2,144.11,196.67Zm0-.89.46-1.72,16.08,4.24-.45,1.72Zm-16.58-7.89c11.62-32.34-1.3-40.28,29.85-30.15,19.2,5.47,13.89,29.28,24,41.08l-.8,3.05Zm13.59,10.52-14.65-3.86,1.31-5,15.22,4C143.43,195.53,141.82,196.71,141.14,198.41ZM102.2,283.6l3.61-13.71c3.31.69,16,4,14.6,7.69-8,26.33-14.33,53.26-21.92,79.65-5.14-1.38-9.61-3.83-15.15-4.74C89.46,329.45,95.17,306.29,102.2,283.6ZM57.72,376.2c2-8.35,4.34-16.62,6.61-25.26,5.17.87,9,3.21,14,4.43L58,432.4c-4.86-1.11-9.72-2.56-14.6-3.76C47.23,411,52.66,393.56,57.72,376.2Zm45.51-180.59q-8.45,31.86-16.83,63.77c-5.1-.46-10.3-2.67-15.64-3.8,6.32-24.54,13.7-47.92,19.85-72.64C98.73,188.75,109.39,182.74,103.23,195.61ZM78.76,285.85q-8.12,30.4-16.08,60.87c-5.1-.45-10.3-2.68-15.64-3.8,7.15-28.36,15.7-55.78,22.89-84.17,5.44,1.48,9.67,3.87,15.36,4.82C83.76,271.39,80.48,278.28,78.76,285.85ZM53.6,378.64C49.25,394.8,45.05,411,40.77,427.16l-15.55-4.1c6.48-25.82,14-51.15,20.87-76.86l15.64,4.12C59.65,360,56,369.16,53.6,378.64ZM104.86,184c-28.93-9.16-59.15-15-87.74-24.7C55.58,114.66,85.37,142,133.4,151.47l-9.92,37.6C117.28,187.43,110.85,186.28,104.86,184ZM52.38,309.63c-3.16,10.69-5.38,21.77-8.77,32.31l-16-4.22c7.51-28.06,14.43-56.12,23-83.92L66.65,258C62.51,275.43,56.47,292.25,52.38,309.63ZM41,350c-6.49,24.07-12.33,48.25-19.56,72.05L5.13,417.74C13.1,392.43,18,366,27.05,341.2l15.64,4.13C43.08,347,40.78,348,41,350ZM24.47,336.71c-12.25-4.92-18.95,0-13.57-14.59C18.67,298,24,273,31.76,248.83l15.44,4.08C39.9,281,32.48,308.87,24.47,336.71ZM9.63,389.92c-2.13,9.23-4.76,17.83-7.1,27.17l-16.21-4.28c5.19-21,11.56-41.49,17.13-62.32,3.15-17.35,4.4-14.8,20.05-10.31C19,356.82,15.12,373.59,9.63,389.92ZM32.56,245.35C39,221.24,45,196.8,52,173.05c4.61,2.54,17,1.3,15.76,6.91-7.66,22.58-12.31,46.47-19,69.66ZM-8.94,468.6c3.86-15.38,9.18-29.85,12.66-45.52l16.21,4.27C15.13,450.48,5.37,472.75,2.31,496L-15,491.46C-13,483.86-11.1,476.19-8.94,468.6ZM77.8,215.92c-3.52,12.8-6.81,25.66-10.24,38.65l-16.2-4.27c6.16-24.28,12.9-48.16,19.73-72.2l16.2,4.27C85,193.9,80.49,204.59,77.8,215.92ZM27.06,180.35c-5.3,19.61-11.49,39.28-16.38,59.12-5.77-.39-10.5-3.69-16.11-4.61,6.79-24.2,13.4-48.1,19.66-72.52,11.5,3.21,22.42,7,34.07,9.68L29.22,244.39c-4.92-.63-10.24-2.68-15.39-3.82L29.54,181ZM-36.89,485.08c-5.12-1.33-10.24-2.7-15.46-4.06l17.93-68,16.1,4.25C-24.65,440-31.15,462-36.89,485.08Zm30.15-112C-9.87,386-13.46,398.83-16.92,412l-15.55-4.1c6.68-24.55,14-48.73,20-73.44,1-8.37,11.3.23,16.33.67C1.3,348-3.63,360.3-6.74,373.11Zm-18.73-.39c-3.64,11.32-6.06,22.93-9.7,34.35-15.61-4.05-19.4-1.81-12.17-19,5.11-21.22,12.06-41.42,17.19-62.69l16.21,4.27C-17.8,344-20.93,358.59-25.47,372.72Zm-10.46,39.9-17.93,68c-6-1.16-11.34-3.29-17.1-5.24l17.75-67.31ZM-9,310.81c-1.09,5.33-2.71,10.06-4,15.51l-16.2-4.27c8-27.53,15.37-55.21,22.59-83.05,5.26.38,10.75,2.79,16.29,3.93C3.2,265.5-1.41,288.68-9,310.81Zm75.77-187.4c4.87-17.69,8.68-40,27.66-47.18-2.47,20-.55,40.39-6.77,59.71-8.11-1.67-15.18-4.38-23.08-6.9C65.35,127.19,65.19,125.06,66.74,123.41ZM118.25,93.5c-5.28,15.45-8.6,31.21-13,47L91,136.71c6.14-20.13,6.2-42.21,6.29-62.35,7.38-6.06,17.29-15.16,24.31-4.16C123.19,78,120.82,85.92,118.25,93.5Zm1.71,7.21c2.69-12.77,5.65-25,15.87-33.76,3.94,3.32,5.43,8.77,8.37,12.91-11.2,21-10.42,45.08-10.47,68.06l-25-6.6C111.62,127.65,116,114.16,120,100.71Zm84.57,14.92a233.93,233.93,0,0,1-7.35,26.5c-12.78-16-26.66-32.27-34.92-51.24-2.33-6.36-6.08-16.35-14.6-12.59-2.65-5-6.54-9.31-9-14.85l19-23.45c10.77-.16,11.31,20.61,16,28.85a76.23,76.23,0,0,0,28,34C209.14,104,203.5,110.49,204.53,115.63ZM223.82,38c-3.57,9-5.27,17.94-7.94,27.44-13.46-10.68-13.06-19.61-7.53-34.65,4.1-13.92,7.48-27.67,14.58-39.71,4.08-3.32,9.53,2.36,14.46,2.79A312.47,312.47,0,0,0,223.82,38Zm-22.51,6.46-.9,3.43c-4.67-5.25-9.1-10.39-13.56-15.92,21.09-50,8.33-59.85-20.92-100.53,4.58-5,10.15-9.08,15.25-13.8,19.32,26.87,28.71,32.54,33.16,67.07C213.38,5,206.18,24.57,201.31,44.42ZM184.73,28.78c-19.15-20.19-36.63-43.21-55.24-64.3,4.5-6,11.85-10.56,17.62-16,14.8,18.78,29.55,37.48,44.51,56.47C189.85,12.83,186.87,20.92,184.73,28.78ZM103.61-66c-8.16-8.63-15-18.66-23.39-26.89l3.68-14c1.3-.22,1.34,1.35,2.3,1.5.07,1.79,2.56,1.8,2.64,3.59,15.43,18.28,31.47,37,46.29,55.9l-8.07,7.16C119.07-47.56,111.37-56.9,103.61-66Zm2,11.12C99-49.64,92.94-43.81,86.16-38.95L69.68-58.69,88.29-74.86C94.35-68.23,99.79-61.94,105.59-54.88ZM85-111.12c.65-4.4,2.79-8.21,4-12.38,19.08,22,37.5,45.64,55.38,69-8.65,13.65-12.86-3.1-20.15-9.39C111.36-79.95,97.68-95.13,85-111.12ZM194.1-4.41c-.53,1.66-.91,3.38-1.35,5L149-54.85l13.6-12.42C175-48.62,191.37-32.19,194.75-9.38,193.77-7.9,194.64-6.09,194.1-4.41ZM176.39-116.12c-2.37-12.23-18-11-27.74-14.7-.78-5.79.72-11,2.28-16.55,15.71,3.14,30.9,9.15,46.64,12.77.36,1-.31,1.63-.23,2.35-1.13.44-1.22,2-2.62,1.85-4.64,14-7.11,30.2-13.07,43l-10.37-12C172.89-104.82,175.44-110.49,176.39-116.12Zm-6.93,13.9C163.15-110.35,158-117.95,152-126,171.36-122.94,177.14-123.33,169.46-102.22ZM217.33-16.3c-1.79-11.15-4.27-21.87-6.57-33,2.54-10.55.78-22.05,2.38-32.7-2.43-16.77,7.73-38.71-7.06-51.63l25.58,6.74C229-85.92,235.85-41,217-3.72,217-8.18,218.14-12.28,217.33-16.3Zm-5.28-150.49c16.18,3.85,31.57,8.86,47.61,13.11l-7.54,28.58c-15.44-5.17-33.51-6.57-47.39-13.93Zm.84-3.36,7.63-29,47.6,12.55c-.24,2.66-5,21.17-7.45,29ZM175.16,151.56c1.58-8.9-8-15.26-11.72-22.58-5.69-10.11-13.39-17-25.2-18.52C143.78,85.27,150,64,163,101.66c9.78,15.38,21.65,30.33,32.7,44.9L183,194.9c-4.9-6.11-4.56-17.51-8.37-25.17C171.32,164,173.31,157.69,175.16,151.56Zm-37.74-23c-.09-5.27-.88-10.28.21-15.43,14.44,1.79,20.56,13.21,28.09,24.13,7.24,7.27,7.88,14.76,3.89,24.44-8.64-9-20.94-8.15-31.62-13.49C137.5,141.89,137.82,135,137.42,128.54ZM164,199.18l16,4.23c-.09,1.6-.86,3.19-1.13,5l-16.21-4.27Zm-1.69,6.47,15.83,4.18c-.44,4.55-8.61,33.55-10.89,38.59-4.72-7.46-1.4-19.32-9.81-24.32ZM133.3,392c12.07,2.87,23.25,7,35.26,10.11L165,415.61c-14.26-4.06-28.87-7.09-42.4-12.89ZM311.38-86.23c-5.5,17-9.68,33.94-14.29,51.33-3.63-2.06-14-1-13-5.86,8.12-21.32,12.53-44,19.5-65.75l12.19,3.21C314.33-97.62,312.65-92,311.38-86.23Zm-17.22,75c.92-6.4,3.27-12.38,4.31-19l14.42,3.8c-15.4,56.63-31.55,113-48.08,169.21-10.1-15.43-10-34.26-17.77-50.33,3.26-19,12.17-36.9,16.61-55.81,7-22.83,12.28-46,18.25-69.12,1.72-5.88,9.65,1.91,14.15,1.54-3.42,12.66-6.65,25.35-9.38,38.11.61,1.4,1.44,1.62,2.62.68C291,1.49,293.22-4.79,294.16-11.27Zm15.29-57.46c3.15-11.4,5.88-22.45,9-34,5.45,1.26,9.68,2.81,14.88,4.53-8.09,21.87-11.32,45.6-19.57,67.65l-14.06-3.71C302.37-45.92,306.24-57.24,309.45-68.73ZM263.8,23.05c-5.5,22.11-12.85,43.32-20,64.89L224,74c11.5-38.66,19.34-78,30.91-116.39l23.63,6.23C274.85-16.15,269.15,3.49,263.8,23.05ZM164.92,344.92c-3.8-2.23-15.44-1.24-14.67-6.88,2.9-13.13,7.83-25.33,10.81-38.43l15.56,4.1C173.29,317.84,168.65,330.81,164.92,344.92Zm12.58-44.56c-5.66-1-9.88-3.41-15.37-4.8,3.73-13.54,6.73-27.33,11.24-40.49L189,259.21C183.92,272.39,181.62,286.45,177.5,300.36Zm8.17-90.61c5.06,1,10.1,2.66,15.27,3.9l-11.1,42.07-15.33-4,11-41.85C185.49,209.87,185.57,209.79,185.67,209.75Zm15.23.46c-4.91-.91-9.21-3.62-14.09-4.41,5.68-14.44,6.88-33.51,14-47.13,6.11,18,12.28,35.33,18.59,53.42C217.21,218,206.12,209.92,200.9,210.21ZM256.12-60.95c9.67,2.23,19,4.11,28.68,6.93-1.58,21.1-14.81,11.21-29,8.23C255.69-50.69,255.89-55.66,256.12-60.95ZM310-131.29c-2.82,5.3-1.75,20.16-7.85,20.12q-19.78-5.17-39.55-10.42c-8.44-2,3.61-22.37,3.73-30.2,14.1,3.71,28.21,7.46,42.32,11.13C314.52-139.61,311.47-134.85,310-131.29ZM300.46-108c-1.55,5.13-2.26,10.39-5,15.12L257-103c.4-5.29.49-10.65,1.08-16.15Zm-5.52,18-4.05,15.34-34.11-9a102.4,102.4,0,0,1,.51-16.28ZM257.21-80l31.93,8.42c1.09,4.34-2.19,9.54-2.81,14.2-10.1-.2-19.77-4.9-29.69-6.83A35.29,35.29,0,0,1,257.21-80ZM138.69,379.33c2.76-12,7.18-23.23,10-35.27,5.18,1.66,10.81,2.27,15.47,4.42-3.52,15.18-8.69,29.59-12.31,44.78l-17-4.48A36.38,36.38,0,0,0,138.69,379.33Zm45.76-29.43-16.77-4.42c4.37-13.64,7.95-27.31,11.63-41.17l15.79,4.16C194.87,311.44,188.29,337.05,184.45,349.9Zm12-44.57c-5.45-1.39-10.78-2.83-16.33-4.28,3.34-14.11,8-27.16,11.57-41.26l16.21,4.27C204.34,278.1,200.52,291.44,196.42,305.33Zm37-181.56c.25.3.19.51-.17.64C233,124.12,233.06,123.91,233.42,123.77ZM242,166.62c-15.75-15-9.21-22.83-8.54-41.42,3.16,8.85,4.65,18.84,7,28.12C242,157,251.15,174.68,242,166.62Zm4-7.82c-5.77-6.82-5.87-39.44-13.72-38.64-1.22-7.71-8-14.18-15.47-16l6.21-23.55c5.23,2.87,9.49,6.87,14.77,9.89,12.78,16.79,10.86,43.56,26.06,60.91-3.61,6.18-9.89,9.38-15,14.22C247.81,163.15,246.84,161,246.05,158.8ZM378.19-179c2.3,7.81,2.07,12.18-4.69,17.79ZM335-203.7c14.8,4.61,29.85,8.51,44.76,12.68l-7.65,29c-15.37-3.78-30.9-8.56-46.08-12.79,1.4-9.14,4.84-18.47,7-27.94C334.23-202.28,334.43-203.24,335-203.7Zm-7.36,32.82c39.18,16.54,52.08-3.24,38.85,41.65-3-1.07-40.69-8.31-49.22-13.7C320.63-149,320.9-171.82,327.64-170.88Zm-16.81,50.14c3.06-5.43,2.33-13.1,6.17-17.6l48.37,12.76C363-115.45,359.71-106.16,357-96c-16.49-5.21-33.55-7.08-49.12-14C308.8-113.48,309.31-117.33,310.83-120.74Zm6.89-36.88c-1.79,5-2.7,10.63-6,14.22-41.49-15-50.93,2.94-36.71-41.36L319.41-173C322.8-168.71,318-162.81,317.72-157.62Zm-37.4-47.06c1.57-4,2.36-8.2,3.92-12.41,14.12,3,28.45,8.89,42.56,10.45,4.4,8.78-3.91,20.16-5,30.5l-45.93-12.11C277.28-193.77,278.27-199.43,280.32-204.68Zm-29.79,96.21c-1.6,33.61.69,67-12.21,98.91-3.32-2-14.4-1-12.9-5.86,1.85-12.08,7.1-23.78,7.25-36,1-24.89.51-50.22,2.44-74.76,5.33,1.81,10.24,3.84,15.8,5C251-116.83,250.13-112.69,250.53-108.47Zm-21.46-123L276.66-219c-.23,2.66-4.91,20.94-7.44,29l-47.79-12.6ZM202.61-131.15c11.65,7.55,7.08,22.84,7,34.33s-.41,23.16-1.07,34.83c.84,1,.23,1.94-.08,2.81-.64,1.75.3,3.7-.92,5.59-9-8.31-15.44-21-23.64-31C193-95.55,190.55-124.84,202.61-131.15Zm-1.23-9c-.76.77-2.21.25-2.62,1.61l-47-12.39,8-30.38c16.48,4.31,32.17,9.65,48.88,13.58Zm-12-105.49c.48.8-.19,1.32-.31,1.89A1.39,1.39,0,0,1,189.35-245.6Zm-11.93-.34c16.19,3.81,31.49,9.09,47.68,13.1l-7.73,29.32c-13.13-1.15-29.84-12-40.67-9.41-.06-3.26-3.86-2.63-7-3.81Zm-15.23,54c2.5-7.25,4.24-15,6.67-21.6,15.41,5.77,32.22,8.7,48.32,13.44-9.64,46.47-8.77,23.77-56.56,15.59C161.44-187,161-189.88,162.19-191.94Zm-36.42,57.52c27.12,3.32,35.39,31.34,52.94,49.33a107.43,107.43,0,0,1-15.25,13.17c-16.21-21.45-32.84-43.49-48.71-64.45.72-6.66,2.63-13.44,3.64-20.12,3.23-.46,8.22,5.28,10.38.88.55.82,0,1.3,0,2.09,2,.48,3.84,1.72,6.12,1.14,3.6,2.44,8.35,2.45,12.39,3.87-.81,5.73-2.33,10.67-2.64,16.58C138.83-132,129-139.27,125.77-134.42Zm-10.9-.8c-.29.24-.51.19-.64-.17C114.52-135.64,114.74-135.58,114.87-135.22ZM161.34-201c-16.22-4.45-32.22-9.22-48.33-13.68,1.66-3.91,1.18-9.68,4.26-12.5,16,3.85,31.28,9.38,47.43,13.2C163.69-209.67,162.47-205.45,161.34-201Zm-.75,2.57-3.42,13c-16.18-4.34-32.32-8.69-48.66-12.14,2.2-7.78,2-18,12.39-11.86C133.84-204.63,147.11-202.29,160.59-198.39Zm-52.94,4.07c16.12,4.63,32.41,7.83,48.6,12.12l-8,30.34c-5.43-1.65-12.6-2.06-17.19-5.13-1.27.18-1.49,2.3-1.53-.24L99.93-165Zm51.06,7.22a.81.81,0,0,1-.34,1.31A.81.81,0,0,1,158.71-187.1Zm-39.77-47.54c1.47-10.33,7.53-17,16-22.45L174-246.79l-7.66,29-48.89-12.89C116.74-232.37,118.69-233.17,118.94-234.64ZM50.24-189.5c2.62-6.12,3.65-12.68,5.75-19.14,12.56,1.92,26.23,8.85,38.37,7.43l10.73,2.83c-10.44,51.29-11,26.36-57.53,18.72C48.47-183.09,49-186.47,50.24-189.5ZM53-212.89C36.6-217.33,20.58-221,4.48-226.34l3.77-14.29C24.93-237,40.4-230.28,57-226.6,56.5-221.65,53.45-217.8,53-212.89ZM12-255.21c16.25,3.22,32.74,8.62,49.21,12.6l-3.6,13.68c-15.52-5.92-33.32-8.58-48.51-15.29ZM-.17-211.47c2.25-3.3,2.29-7.23,3.54-10.94l48.56,12.8-3.36,12.77C33.48-202.48,11.82-203.29-.17-211.47Zm-21,11.27c-18.08-.24-37.92-9.7-56.65-12.56A32.29,32.29,0,0,1-85.47-216c-2.54-.47-3.65-2.41-5.71-3.91,15.12-8.5,31.43-14.38,16-33.26,1.25-6.56,1.78-13,3.83-19.58,14.91,24.93,30.71,48.51,51.07,69.21ZM-1.68-219c-1.63,6.24-3.28,12.46-5,18.83-14.18-6.85-21.32-23.32-32.51-34.2C-25.06-231-13.08-227.1.93-223.5A6.63,6.63,0,0,0-1.68-219Zm1.3,25.32c-3.95-4.82-3.9-3.64-.83-13.36,16.51,4.14,32.62,8.77,49,13.32-2.38,5.64-.81,16-9,11.77A344.67,344.67,0,0,1-.38-193.72Zm74.85,93.47c-23.27-28.9-50.42-56-71.48-86.14,38.07,5.72,74.77,20.08,112.21,28.92-2.76,14.24-7.4,18.7,2.5,30.9,14.62,19.43,29.65,38.62,44,58.35L148.16-56q-22-27.41-43.9-54.8l-1.23.42c.72-2.54-2.08-3.19-2.42-5.44-4.22-3.44-7.27-8.94-11-13.16-.09-4.09,8.83-22.36,2.66-20.6-4.52,17.39-9.55,34.76-15,51.88C75.66-98,75.09-99.37,74.47-100.25ZM8.14-87.87c1.22-.67,2.29-1.36,4-.57,7.47,22.68,3.26,24.28,27.05,13.91C51-78.94,62.7-84.27,74.43-88.72c3-1.49,3.93,3.63,6.77,4,.23,3.28,3.75,4.35,4.68,7.33l-18.47,16c-2.3-1-2.37-3.57-4.58-2.64C66-54.42,76.89-45.83,83.31-37c-10,16.8,20-12.67,24.72-15.14,4.85,5.74,9.71,11.47,14.67,17.33-28.57,21.48-24.63,26.51,1.67,2.21,21.18,24.88,42.34,49.51,63.37,74.48,22.88,29.94,30.6,19.8,19.53,58.87-34.57-10.86-30.92-64.38-49.78-64.89-11.84,11.1-20.7,25.77-32,37.56,0-9.09-8.25-12.55-16.17-12.21C73.06,84.08,72.28,88,61.15,128.64,50.65,132.21,39,135.41,29.78,142c-5.14,3.49-13.16,17.93-18.31,14.12-2.33-6.79-9-11.08-12.58-17-1.57-8.84-5.49-18.17-4.75-27C8.24,97.37,27.39,94.18,33.19,71.84c1.05-7.09,8.26-10.93,10.2-17.5C42.88,41.44,40.5,26,33.83,15,24.14,11.23,16,36.56-1,37.59c-14.25-2.49,2.8-37.36,2.43-48C3.18-19,11.49-24.28,13-32.78c1.89-9.26.91-19.37-.14-29C12.8-70.85,5.24-79,8.14-87.87ZM-177.71-324.4c1.61-5.85,7.77-7.1,13-5.49,2.71-2.25,4.67-5.2,6.78-8,19.1,9.46,14.81,21.23,11.48,38.55,9,29.12-5,36.29,18.3,60.87,5.65,14.35,4.59,31.79,13.48,44.42,7.77,8.7,18.21,14.42,25.75,23.44,3.3,5.26,9.9,5.57,14.47,8.71,10.39.19,22.67-2.06,31.35,4.06,7.27,11,16.82,31.74,7.85,43.79C-47-99.62-55.72-79.5-50.85-61.09c4.63,8.15,20.2,10,25.18,1.19,5.28-12.23,13.86-23.67,29.2-22.58C12.22-60.55,15.18-33.94-.7-15-2.25-2-15.52,28.91-7.44,38.1,5.48,48.55,22.41,26.9,30.65,17.57c7.25,7.68,5.63,22.1,9.74,32.26C40.33,57.41,33,60.67,31,67.24c-.21,4.49-5.23,2.8-8.59,4C12.22,84.1,3,69.73-1.19,76.4c9.8,3.3,17.52,5.53,25.55-2.81.81.71,2.16-.81,3.31.24C25.27,94.32-.59,95.92-9.81,111.62c0,9.78,4,19.68,5.43,29.47,4,5.4,10.47,9.28,12.2,15.95l-32.88-8.67c5.77-11.77,1-24.44,5.19-35.5,5.16-3.78-.2-9.45,2.88-13.52.74-2.77,5-11.52-1.22-6.17-1.32,5.15-4.23,9.82-1.63,15.28-7.8,6.62-3.6,15.43-4.58,24-1,5-2.54,9.94-3.9,15.11-7-1.3-13.24-5-20.56-5.78,1.31-5.84,3-11.35,4.32-16.88-5.6-1.4-4.42,11.62-6.84,15.56-4.37-.08-9-2.33-13.61-3.19l5.94-22.54c3.39,0,10.64,5.34,11.65.08-3.87-.33-6.91-2.75-10.88-3.45.67-7.7,23.17-59.7,7.32-55-9.35-8.18-62.84-11.7-65.18-22.8,3.12-5.29,2.93-9.53-4.11-10.1.61-7.38-11.08-8.37-7.62-17L-129,5.82C-117.72-25.7-95.54-32-136.63-38.52c.79-3.86,1.13-8.06,2.48-12,7.61,1.44,14.75,4.9,22.38,6.34,2.65-6.58-22.7-5.17-21-11.49,5.65-23.44,13.1-46.85,16.54-70.51,2.1-.71,3.45-2.75,5.88-3.88,4.77,3.55,10.93,3.28,16.59,5.35-2,15.75-15.85,36-2,48.94a11.28,11.28,0,0,0,15.27.7c6.22-14.93-4.12-21.15,14.07-39.52,15.72-14,4.45-30.32-12.53-16.79-27.36,15.7-43.28-19.48-60.45-35.82-3.76-1.73-17-2.55-15.39-7.42,4.39-25.84,25.5-49.47-10.53-60.05,4.78-18.3,10-36.81,14-55.14-6.15-10.67-21.92-7.95-32.24-12.46C-181.56-309.79-179.69-317-177.71-324.4ZM-39.16,265.07c-4.52,16.46-8.67,33-13.1,49.53C-55.83,317.87-64,311-69,310.9c6.07-26.89,14.5-53.78,21.7-80.35,3.84-5.4,11.34.83,16.64,1.07C-30.69,242.39-37.64,253.85-39.16,265.07Zm-22.11,81.24C-65.94,362.89-69.57,379.73-75,396c-4.85-2.74-18.53-1.12-16.07-7.86,7.36-24.28,13.24-49.25,20.54-73.37l17,4.49C-55.44,328.54-59,337.23-61.27,346.31Zm18.51-146.58c-4.6,16.07-2.39,27.45-23.08,19.14l19.13-72.54,17.5,4.62C-33.13,167.47-39,183.21-42.76,199.73Zm-59.42,72.83c4.71-18.72,10-37.14,15.18-55.68l17,4.49c-7,28-14.85,55.43-22.74,83.2l-16.66-4.39C-107.21,291-104.52,281.72-102.18,272.56ZM-69,218l-16.93-4.47c6.45-24.4,13.33-48.78,20.2-73,5.45,1.69,10.62,3.95,16.43,5.07C-55.46,170-62.39,193.76-69,218Zm-36.86-20.73c-1,3.07-1.69,6.25-2.6,9.69-28.92-3.2-10.2-20.84-7.63-39.41,3-12.61,7-24.75,10.57-37.17,5.49.66,11.11,2.9,16.85,4.16C-94.35,155.43-99.22,176.73-105.85,197.25ZM-90,74.19c1.86-8,4.15-16,6.33-24.26l16,4.21C-72.86,79-81.57,105.25-87.78,131.19l-16.68-4.4C-100.31,108.74-95.45,91.8-90,74.19Zm-61.14,298.89c7.11-24.77,14.25-49.6,20.71-74.81l16.11,4.25c-7.73,25.43-12.1,53.46-21.53,77.58-4.34-3.19-10.8-3.11-15.89-5A1.49,1.49,0,0,1-151.16,373.08ZM-98.38,90c-1.25,6.85-5.24,14.36-4.72,21-3.45,4.27-2,10.31-5.72,14.6-5.75-.62-11-3.56-17.05-5.06,6.69-25.52,14.4-50.59,20.79-76.21l18.15,4.78C-90,63-94.78,76.33-98.38,90Zm-41.43,149.2c-4.9,15.13-9.53,30.19-14.08,45.42-3.77,6.09-9.52-.13-15.05-.75,7.08-28,15-55.53,22.68-83.39,6.07,2,12.61,1.54,16.11,7.26C-133.47,218-137.11,228.57-139.81,239.22Zm-32.66,55.18c.58-2.25,2.58-3.86,2.17-6.87,5.51,2.05,11.93,2,15.77,4.59l-20.23,76.75-16.16-4.26C-184.75,341.21-178.54,317.83-172.47,294.4ZM-136,150.8c-3.64,14.28-7.47,28.5-11.24,42.74-1.49,6-10.93-1-15.67-1,1.67-8.54,5.71-17.3,6.13-25.72,1.91-3.26,2.65-6.8,3.06-10.91,4.3-11.22,6.37-24.07,9.91-35.8l15.37,4.05C-129.65,133.09-133.38,141.74-136,150.8ZM-108.5,43.43c-6.23,25.52-14.43,50.5-20.59,76.15L-142.7,116c5.75-25.57,15.51-50.87,18.82-76.62Zm-9.09-10.88,1.56,4.14c-1.27.57-2.22-.29-3.46-.34C-119,33.71-119,33.73-117.59,32.55Zm-1.84,133.89c-3.47,10.55-5.7,21.4-9.11,32.15a4.24,4.24,0,0,0-3.46,2.08l-13.16-3.47c3.37-19.78,12.62-39.47,15.09-58.9,3.07-3.62,2.69-8.93,4.43-13.4,2.62.2,5,1.69,7.82,1.5,2,1.68,5.58,1.6,8.15,2.58C-112.22,141.47-115.67,154.18-119.43,166.44ZM-128.26-4.5c-1.72,4.36-3.12,8.27-6.25,12-3.31-13.79-5-28.54-2.38-42.39,6.43,3.52,25.35.18,18.48,11.42C-122.24-17.79-124.41-10.17-128.26-4.5ZM-195,51.11a100.13,100.13,0,0,1,4.21-10.46,3.52,3.52,0,0,0,2.57-1c5.73,1.35,11.77,3.68,17.62,2.56,4.7,2.57,13.11,6.79,22.21,7.25-1.79,11.58-5.71,36.81-14.21,44.93-6.13.27-12.86-5.08-18.87-1.65a44.1,44.1,0,0,0-18.8-9C-204.79,73.79-195.91,61.65-195,51.11Zm-4.45,6.64a16.42,16.42,0,0,1-2.5,6.33,60.44,60.44,0,0,1-18.88-3.32c-1.17-21.69,10.09-43,14-64.45,9.22,2.29,21,2.72,27.56,11.16-8.32,19.39,3,19.06,5.09,32.4-4.45-1.52-9.18-1.94-13.61-3C-197.62,38-196.58,50.51-199.44,57.75Zm-80.22-59c1.65-1.12,2.31-3,3.58-4.41,10.23,4.29,35.24,3.52,32.3,18.37-14.58,13.55-5,42.37,10,18.44,2.46,6.25,6.46,11.84,8.11,18.35-20.2-3.77-39.84-11.23-59.88-16.14C-282.16,22.41-284.12,9.61-279.66-1.23Zm12.85-37.68a45,45,0,0,0,3.9-9.67c2.16.12,1.06,2.06,2,2.78,4.23,2.42,3.62,7.34,8.71,10.14.81,2.65.42,6.13,3.86,7.55-1.21,5.35,5.75,2.18,2.62-.78-6.24.23-2.81-8.83-9.83-11.32-.49-2.67-.89-5.5-4.43-6.39-.26-1.9-.75-3.4-2.22-4.28-.33-14.31,6-32.86,22.12-17.76,9.42,10.55,52.71-10.08,45.88,12-1.73.61-.63,3-2.35,3.66L-208.41-8.13c-20.73-4.54-40.64-12-61.41-16.6C-269.22-29.95-269.46-34.47-266.81-38.91Zm34.45,63.67c2.94-17.3-18.27-15.06-13.3-39.36,2.91.15,23.37,5.37,36.38,9.26l-13.5,51.22c-4.68-5.17-5.84-12.13-9.63-18.3C-231.61,26.65-232.69,25.71-232.36,24.76ZM-248,26c2.68-4.05,3.37-9.75,7.56-13,11.19,2.26,4.35,28.83-7,22.85C-249.47,32.41-247.48,29.64-248,26Zm-1.17-27.46-25.57-6.74A46.18,46.18,0,0,1-269.54-22c7,1.37,13.6,4.39,20.69,6.28C-248.17-11.21-247.77-6.11-249.17-1.45ZM-224.24,54c-.26,1.54.19,3.27.29,5.33-13.15-4.92-26.85-3.66-39.42,2.28-15.34,6.48-26.57-12.22-22.57-25.56C-265.63,43.14-244.34,46.27-224.24,54Zm-63.67-2.43c9.4,25.54,31.06,7.76,49.71,6.93,8.76,3.31,17.07,1.5,14.22,13.37-.48,3.43-6.81-.38-9,1-16.06-4.72-20.86,5.14-33.2,7.74-17-6.73-47.94-21.27-23.54-40.19A31.18,31.18,0,0,0-287.91,51.57Zm37.15,25.18c4-1.9,8.13-1.55,12.19-1.86,9,1.7,19.46-1.73,13.45,11.59-3.76-.54-26.81-6.69-29.14-7.8C-253.54,77.2-252.07,77.11-250.76,76.75ZM-154.69,45c-1.69-.9-4.54.62-6-1-1.11-1.45-3.28-.69-4.08-2.36-8.27-2.12-9.84-13.13-14.88-19.45,1.24-4.67,2.48-9.41,3.9-14.78,15.39-6.76,17-26,21.62-40.32.05-3.95,7-11.65,1.87-13.63-8.67,16.74-6.28,41.74-24.88,51.67-5.28-9.7-26.38-7-28.1-14.91,4-13.82,6.66-28.41,11.66-41.7,2.53-6,6.08-11.41,0-16.38-5.8-3.72-19.48,1.2-16.76-8.59,21.71,10.5,46.72,15.72,70.34,22.62,1,7-3.94,13.58-3,20.67C-154.26,13.24-99.87,61.13-154.69,45Zm-77.05-183.95c64.8,11.61,59.08,38.59,74.28-28.29,5,.86,8.51,3.41,12,7.22-8,31.42-16.7,62.61-25.42,93.81l-14.26-3.76c-.14-10.56,19-38.32,3-40-12.5-3.18-24.52-7.64-37.13-10.47C-236.27-123-237.48-122.17-231.74-138.92Zm4.19-9.64c.72-2.58,1.37-5.18,2.06-7.77,3.16.28,42.4,10.44,58.4,15.13-1,5.43-3.36,9.88-4.53,15.31l-58.56-15.44C-228.48-143.5-228.24-146.11-227.55-148.56Zm21.45-78.75c1.44-4.59,2.23-9.46,3.85-13.94l27.67,7.29c-6.06,16.89-7.21,39.36-15.8,53.29C-230.51-187.16-211.77-198.39-206.1-227.31Zm40.86-20.9c-1,4-2.08,8-3.2,12.23l-25.18-6.64,14.52-55c8.06,2.74,17.07,3,24.2,7.68C-158.86-276.09-161.92-262.16-165.24-248.21Zm17.45,36.2c-4.33,12.49-7.46,25.82-11.46,38.83-9-2.6-17.09-4.36-26-6.34l14.1-53.48c8.32,4.62,22.27,5.28,23.1,16.94C-147.11-214.79-148.58-213.4-147.79-212Zm-12.58,45.06-6.08,23.07c-19.65-4.77-38.5-10.71-58.1-15.77l6.51-24.69C-200.44-174.79-178.22-174-160.37-166.95Zm-76.51,46.32c61.52,19.56,64.2-.27,48.61,49.25-4.08-.52-7.09-3.58-11.1-4.13-2-10.7-18.07-20-25.28-8.83-6.7-2.1-13.82-2.46-20.55-4.74Zm19.55,34.11c9.09,1.82,11,2.44,14,9-6-1.87-11.51-4.6-17.72-5.93,0-.25-.07-.49-.1-.74Zm81.55-71.11c-.58.13-1.34.28-1.15-.66-1.23-.31.33-1.22,0,0C-136.53-158.09-135.83-158.23-135.78-157.63Zm2.57,16.77c-6.94,26.23-15,52.53-21.52,79L-167-65.12l24-91C-139.42-152.06-136.16-146.22-133.21-140.86Zm-4.64,80.71-.87,3.3c-5-.79-8.6-3-13.43-4.28,6.8-25.35,14.15-50.57,20.84-75.91,3.63,7.67,12.36,14.89,7.26,24.48Q-130.9-86.34-137.85-60.15ZM-124-137.49c-3.31-6.82-9.71-12.86-11.83-19.79,8.12,8.46,15.77,17.34,23.62,26.05-.95,2.38-3.76,2.61-5.08,4.46C-120.17-129.57-121.68-134-124-137.49ZM-91.1-124.4c8.64-1,15-5.41,22.22-9.63,13.89,1.38,4.52,14.12-1.52,19.47-7.06,8.48-13,19.33-10.87,30.62.32,3.19.79,5.62-1.8,7.56C-110.7-72.17-93.54-109.54-91.1-124.4Zm-99.13-207.72c11.06,5.22,12,8.1,7.94,19.55C-191.75-313.62-193.43-324.63-190.23-332.12Zm-2.16,2.66-1,3.81c-2.39-1.24-5.11-.17-7.71-1.49,0-1.39.69-2.78,1-4.37Zm-10.32,2.84,9.37,2.47c.05,7.61,6,10.89,11.06,14.42-1.83,1.85-1.55,4.59-2.64,7l-22.51-5.93Zm-14.06,52.94c3-10.54,5.48-20.9,8.35-31.54l25.08,6.61c-.58,3.3-13.29,51.52-14.47,54.88C-226.1-252.1-226-243.75-216.77-273.68ZM-230.72-150.1a12.27,12.27,0,0,1-2.67,7.11l-17.19-4.53,12.45-47.22c6.27,1.63,12.34,3.75,17.11,8.3C-223.33-174-229.07-162.59-230.72-150.1Zm20.11-75.68c-2.93,10.77-5.73,21.58-8.57,32.37-5.65-2.18-11.1-5.48-17.58-6.47l12.45-47.23,18.68,4.92C-206.5-236.33-209.48-231.43-210.61-225.78Zm7.94-106.45,1.18.31-1.15,4.35C-202.67-329.11-203.22-330.66-202.67-332.23ZM-260.4-112.32c3.77-10.38,5.73-21.15,8.8-31.77l16.21,4.28-13.27,50.32c-5.92-.79-11.83-1-17.52-1.93C-264.12-98.12-263-105.75-260.4-112.32Zm10-164.89c6.31-19.13,10.52-38.83,15.93-58.21,7.84-.81,18.9,4.92,28.12,6.39-5.78,25.33-12.42,50.58-19.83,75.47-7.51,2.37-18.11-4.3-26.77-5.34C-256.18-264.19-251.62-271.39-250.35-277.21Zm-4.7,21.29,26.67,7c-1.49,15.67-8.34,32-11.7,48l-28.52-7.52C-263.59-223.84-261.69-241.72-255-255.92Zm-14.91,53,28.43,7.5c-4.6,15.64-7.16,31.57-13.22,46.88l-27.63-7.29Zm-14,50.33,28.31,7.46-14,52.9c-9.46,3.94-19.38-3.74-28.82-5.54Zm-22.69,83.33c2-8.38,5.46-15.75,7.11-24.47,9.33,2.54,18.41,4.93,27.34,6.82-14.8,34.76,2,42.34-37.72,29.9C-308.83-61.1-307.88-65.21-306.65-69.24Zm41.46-275.31,27.77,7.32c-8.55,24.83-12.07,53.12-22.5,76.42l-25.57-6.74Zm-21.45,81.21c8,.9,20.51,2.84,27,7.86-4,15.15-8,30.27-12,45.65l-15.47-4.08,1.61-6.13a4,4,0,0,0-2.59-.85l-1.64,6.22-9-2.39Zm-23.84,87.57c2.88-12.37,6.69-23.87,10-36.16,8.5,3.8,17.78,5.27,27.25,8-5.27,15.38-8.9,31.22-13.16,47L-313.46-164C-312.71-167.93-311.49-171.83-310.48-175.77Zm-12.95,46.45c4.4-10,5.63-21,9.06-31.3l27,7.12-14.28,54.18c-8.93,2.11-18.64-5-27.94-6.62Zm19.86,34.66-9.7,36.79-27-7.12,9.64-36.56C-328-101.37-313.3-97.64-303.57-94.66Zm-37.86,33.59c5.55,3.37,28.52,2.32,26.51,9.63-8.89,26.87-14.83,54.83-23.68,81.85l-14.82-3.9c2.45-11.55,9.9-28.12,1.18-37.86C-352.13-28.28-345.12-44.27-341.43-61.07Zm-22.64,96.23c1.89-2.27,2.37-8.15,6.19-6.29-.49,4.82-5.78,9.81-9.26,13-.47,1-1.09-.51,0-.15C-366.77,39.19-365,37.35-364.07,35.16Zm11.78-40.81c.43.3.28.63.16,1.09C-352.88-4.95-352.8-5.34-352.29-5.65Zm-7,30.78c2.62-9.92,5.24-19.19,7.08-29.15,3.2,9.41-1.65,20-3.74,29.64C-357.11,25.92-358,25.17-359.3,25.13Zm-14,27c1.36-2.67,2.14-5.61,5-6.27,6.62-2.89,9.68-10,14.14-15.39,4.91,1.43,9.63,1.53,14.68,3.29-3.5,9.39-5.06,22.45-10.76,29.68L-375,56.86C-375.46,54.87-373.74,53.73-373.33,52.09ZM-384.92,201c-1.94,8.47-4.5,16.82-6.61,25.27-2.76-.25-19.23-4.45-27.17-7l20.46-77.6,27.77,7.32C-375.21,166.37-379.18,183.93-384.92,201Zm2.11-120.84c2.46-6.36,2.32-15,6.34-20.11,8.51,3.24,19.35,3,26.56,8.35-7,25.11-13.09,51.25-19.51,76.63l-27.87-7.35C-392,118.53-388.35,99.16-382.81,80.13ZM-434.12,275c5.68-17.11,9.37-34.75,14.5-52.3l27,7.12-20.65,78.32L-441,300.83C-438.65,292.24-436.9,283.46-434.12,275Zm-22.55,82.85c3.93-17.14,9.85-33.77,14-50.81,8.84-.25,18.5,5.6,27.94,7.12-3.92,20.27-13.19,41.44-13.43,61.6-8.56-.53-18.19-4.75-27.16-6.55C-458.43,365.13-459.76,362.44-456.67,357.86Zm-7.27,11.4c.43-1.17,2.14-1.06,2.23-2.89,3.45,4,6.45,7.69,6,13-.45.23-1.3-.37-1.92,1-1.15-3.08-3.32-3.88-5.65-4.26C-463.92,373.45-463.15,371.7-463.94,369.26Zm32.82-237c9.32,2,17.67,5.52,26.85,7.85l-20.45,77.56-27-7.13ZM-457,230.07c1.16-5.44,2.83-10.53,4.17-16l27.13,7.15-21,79.58c-8.84-3.75-18.22-5.23-27.61-8C-468.34,271.93-464,250.55-457,230.07Zm-25.3-35.89c7-22.67,10.9-47.91,19.3-69.51,9.12,1.92,18.52,3.8,27.53,6.46-3.38,25.83-14.73,52.17-20.34,78.44L-485,201.86C-483.95,199.28-484.1,196.44-482.26,194.18Zm10,78.14c-1.57,6.54-3.79,12.86-6,19.32-8.89-3.1-20-3.78-28.08-8.28q10.17-38.61,20.34-77.18c9.59-.29,19.48,5,29.39,6.71C-461.8,232.71-467.21,252.48-472.28,272.32Zm-55,87.47c6.27-23.85,12.36-47.76,19.49-71.3,9.14-.21,19.15,4.9,28.64,6.58-5.69,24.39-13.69,47.86-19.61,72.24ZM-489.77,379c-4.78,9.14-5.59,20-8.87,30l-26.58-7c2.81-11.47,6-22.26,9.58-33.43C-508.53,372.1-490.95,371.17-489.77,379Zm-.55-9.47c-4.42-7.59-2.41-15.22.68-23.19,5.75-16.59,8.8-33.78,14.38-50.35,9.88,2.1,18.07,5.47,27.6,8.07,0,3-1.65,6.16-2.17,9.21-8.17,16.5-5.11,43.24-21.56,53.2C-478.52,369.34-483.51,376.46-490.32,369.56Zm23.29,6c-2.45,1.39-5.94.92-7.23-1.26,2.38-1.67,5.38-2,7.55-4C-465.79,372.23-466.43,373.92-467,375.56Zm8,19.87c-3.21,7.32-4.27,15.26-6.82,23-9.55-2.06-18.19-5.49-27.68-7.63,4.56-12.17,2.84-28.16,15.73-34.42,8.18,4.92,12.84.3,21.07,6.3C-456,387-458,391.33-459.07,395.43ZM-429.36,409c-1.28,5.74-2.95,11.39-4.49,17.21-9.62-3-19.08-4.13-28.69-6.87,3-15.45,11.72-29.81,10-45.78C-425.94,379.41-417.72,380.19-429.36,409Zm39.27-175,.84-3.22c16.36,2,16.84,7.35,27.32,17l-2.45,9.27c-18.54-6.49-15.73,13.92-20.1,26,3.42,3.15,7.83,3.36,11.88,4.71-2.38,10-4.75,20-7,30-10-3.33-20.41-3.85-29.56-8.87C-402.3,284.05-397,258.79-390.09,233.94Zm10.63,36.73c4.18.87,6.87,2.16,10.58,3.39L-371.76,285c-3.52-.06-6.15-2.3-9.36-3C-380.74,278.24-378.55,274.92-379.46,270.67Zm4.32-11.69c3.35-.5,6.49.71,9.81,1.56l-2.72,10.3C-378.6,268.33-379.19,269.33-375.14,259Zm-11.42,82.64c-3.82,14.4-7.57,28.24-11.93,42.61-7.83-4.34-16.86-4.19-25.23-5.94-3.13-20.73,9.7-42.13,13-63.1L-381,323C-382.06,329.55-385.31,335.25-386.56,341.62Zm-12.13,80c-1.15,4.42-2.32,8.84-3.57,13.57-3-.53-5.94-2.21-9.05-1.88a4.32,4.32,0,0,0-4.46-1.06c-3-3.81-10-3.14-14.84-5.2,1.78-15.47,14.91-31.9,7.39-46.94,8.15.61,17.16,1.75,24.37,5.34-1.77,18.29,11.25-.11,1.39,33.85C-398.25,419.73-398.44,420.69-398.69,421.63ZM-359.49,252l.75-2.87c6.33,1.32,11.13,3.59,17.2,5.23-6.84,24.37-13.52,48.5-19.83,73.13a25.07,25.07,0,0,0-15-8.8C-370.4,296.46-364.68,274.29-359.49,252ZM-377.31,392.4c-.5-.46-.38-.81,0-1.12C-376.45,391.71-377.39,392.05-377.31,392.4Zm-9.08-38.51c2.54-10.07,6.68-19.66,8.46-30.17,5.84,1.94,10.71,4.59,14.07,9.85-.48,2.76-13.29,51.46-14.55,55.15l-16-4.22C-391.75,374.31-389,364.12-386.39,353.89Zm20.3,75c-1.79,4.75-2.8,9.68-4.45,14.55l-28.52-7.52c2.33-7.61,3.6-15.9,6.13-22.76,2.52-8.62,5.78-16.75-2.95-22.82l.65-2.49C-363.25,399.17-353,388.82-366.09,428.9Zm24.65-163.69c.77-14.1,8.25-8.24,18.17-6-7,27.12-15.17,53.49-22,80.75-6.14-1.56-10.28-5.38-13.92-10.31C-353.24,308.28-348.52,286.26-341.44,265.21Zm-26.11,96.86c2.82-8.05,4.37-16.41,7.14-24.61,21.82,14.2,9.87,5.66,8.52,27.93-4.34,8.55-5.17,19.25-8.38,28.89L-371,391.44l-.88,1.24c.48-2.81-2.86-2-2.88-3.81C-372.43,379.92-370.6,370.78-367.55,362.07Zm18.14,6.24c2.09-7.06,3.64-14.11,5.82-21.51a125.34,125.34,0,0,1,13.47,3.56l-12.77,48.42L-357,395.05C-354.29,386.19-353,376.85-349.41,368.31Zm29.24-107.71c10,3.06,20.3,4.67,30,8.65.09,23.79-11.06,24.92-20,42.34-6,11.19-2.46,24.69-6.75,36.58-8.52-2.28-17.07-4.12-25.15-7.13C-335.29,313.46-326.92,288.07-320.17,260.6Zm31.66,21.27c.31-3.93,1.85-7.44,2.38-11.39,6.58.44,15.28,6.95,20.41,3.15-.51,2.55,2.86,3.51,4.89,2.08.4,2,1.49,1.37,3.22,2.35l-17,64.36c-5.09.66-10.47,1.08-14.71,4.26-2.12-9.58,15.64-40.13,9.49-46.19-5.5,15.33-9.22,31.51-13.47,47.4-7.44,3.94-12.6,4.49-20.41,1.13,4.13-10.13.95-21.68,4.71-31.07C-306.16,303.33-288.77,297.25-288.51,281.87Zm-43.62,147.77c-3,7.14-4.49,14.71-6.58,22.23l-28.4-7.48c4.43-14.61,10.36-30.14,9.72-45.89C-333.2,408-322.63,398.28-332.13,429.64Zm4.69-26.16c-8-1.65-10.39-2.4-12.59-4l12.55-47.59c6.49-1.17,13.36,4,20,5.11-2.95,8.19-9.46,14.71-6.4,24.26C-315.16,390.26-325.18,394.68-327.44,403.48ZM-285,382.13c-8.3,25.71-14.66,52.1-22.09,78.1l-28.42-7.5c2.56-13.14,9.7-25.94,9.8-39.11-.48-11.05,8.16-18.09,13.72-26.45,2.1-12,.64-18,8.49-29.43,9.5-2.55,17.61-8.15,27.08-9.26C-278.5,359.67-282.29,370.92-285,382.13Zm15.63,61c-2.89,8.17-4.86,16.51-7.08,24.86-2.83-.25-17.84-4.06-27.28-7,3.35-14.23,7.95-27.57,11.57-41.84l27.37,7.22C-266.25,432.07-267.26,437.83-269.34,443.17Zm16.76-184c-3.16-1-4.67-4-5.79-6.89-2.32-8,4.31-14.17,12.14-14.44,4.87-1.27,6.69,5,10.21,4.8,0,3.73,2,8.14,0,11.86C-239.17,260-248.74,263.59-252.58,259.21Zm4.23,3.74c-.24-.29-.19-.51.17-.64C-247.93,262.6-248,262.82-248.35,263Zm-14.1,49.76,12.77,3.37c-9.89,23,7.33,18.59,22.76,24.67-2.18,4.18-.31,10.4-3.9,13.48-13.51-4.14-26.45-7.93-40.34-11.33C-268.72,332.39-265.43,322.88-262.45,312.71Zm1.12-4,7.81-29.64c18.65,3.92,36.64,10.73,55.14,15,.17,9.7-5.24,20.41-7,30.52C-223.81,321.43-242.94,313.83-261.33,308.75Zm42.07,54.08,2.89.76-8.37,31.76c-18.73-4.91-37.13-10.76-55.66-16.06.24-2.87,4.81-20.75,8-31.18C-254.82,353.45-237.14,358.29-219.26,362.83Zm-28,113.8c-40.56-9-21.9-5.29-14.28-49.15,8.86,1.69,16.82,5.52,25.82,7.26C-239,449-243.91,462.39-247.29,476.63Zm18.59-68.79c-1.88,7.81-4,15.15-6,23-18.9-5.19-37.78-9.41-56.25-15.39,2.69-11.4,6.25-21.75,9.44-32.78,13.31,4.34,28.38,7.73,42.13,12.25C-230.61,397.59-221.95,396.55-228.7,407.84Zm19.06-69.55c-1.74,6.7-3.52,13.36-5.28,20.07l-12.2-3.22c.53-5.5,5.34-11.84,2.46-16.69-14.24-7.27-31.6.69-22.25-21.8,13.31,4.14,26.66,8.36,40.25,12.06C-206.69,332.41-208.82,335.13-209.64,338.29Zm64.56-236.93L-149,116.18c-4.64-.07-8.94,1.13-13.22,2.52,3.19,2.35,8.64-1.43,12.74-1.55.33,1.41-1.05,2.79-.37,4.44-10.06,5.26-21.12,11.09-32.78,9.48.07-3.33,3.91-2.33,5.74-3,2.15-3,5.81-2.21,8.53-3.91-1.75-1.27-3.3.19-4.89.18-3.25.59-5.52,4.62-8.45.69,2.72-5.56,4.43-7.17-3.31-8.94-.57,6.12-4.82,10.91-11.28,8.11-1.15-2.67-4.64-6-1.93-9,4.48-6.78,8.84-2.66,13.21.88-.2-1.5-1.41-2.47-2-4-4.7-2.35-12.45-3-15.82,2-5.5-7.06-15-9-23.22-10.31-.83,1.68.51,2,1.25,2.85-2.25,3.28-2.39,7.35-3.76,11.13-5.69-1-10.23-3.13-15.69-4.86-.13-1.6-5.3-5-.86-4.47l2.43,4.29c1.66.05,3.46.52,4.2-1.74-5.57,1.6-3-2.75-7.8-4.2.77-2.5-.91-2.87-1.46-.56-1.73.57-3.77.09-5.17,1.65,1.55.87,3.06-.32,4.58-.24.06.35.1.55.17,1-4.39.47-6.84,6.32-2.46,9-4.34,14.25-1.15,29.56-3.31,44.11,1.12.75-.26,2.05.64,2.85-1.25,6,1.34,11.82.89,17.65l2.35.62c1.84-2.57-.6-5.5.35-8.22-1-1.9-1.38-4.79.24-6.18l-.93-.25a9.23,9.23,0,0,1,.35-5.45c-1.11-.75.25-2.05-.63-2.85,3.1-10.12-5.61-43.67,8.41-42.82-.09.62-.17,1.15-.28,1.89,5.93,1.78,12.37,2.53,17.5,6,4.84,1.13,8.75,4.56,13.59,5.66,1.53,2,7.94,2.21,8.1,4.91,3.74-.09,10.74,1.82,12.42,3.27,3.13-1.5,7,1.37,10.32-.34-.43-1-1.53-.5-2.57-1.52.52-.35.74-2.26-.68-1.54-.7.73.48,1.23.15,1.88-.23,1.24-1.72-.51-1.73.69-11.35-.33-20.2-6.11-30.4-9.9-1.2-1.72-3.76-1-5-2.69-7-2.55-13.9-5.42-21-7.49.1-.24.2-.49.29-.73a133.28,133.28,0,0,1,30.75,11.57c17.59,8.27,38,7.36,55.76-.55l.34-1.3,1.29.35c-.05-1.77,1.4-.51,1.92-1.55-3.81,20.73-11,41.91-16,63l-4.53-1.2c-.21.66.44,1,.6,1.61l2.93.77c-8.85,27.62-14,62.11-25.81,86l-.87-1.5-2,.4c1.06,1.37,2.61,1.81,4.35,2.17-1.67,4.74-1.93,9.67-4.43,14.11-19-4.94-37.19-10.71-56-16.07,1.59-3.6,1-9,4-11.46,10.26,2.8,19.42-9.37,16.14-18.16a16.28,16.28,0,0,0-5.51-7.71c-.06-.81.46-1,1-1.26-1.35-1.44-1.86,2.22-4.65-1.18a37.55,37.55,0,0,0,1.5-16.56c-4.6-3.05-2,13.48-4.21,16.7-7-1.76-12,4.26-17.1,8.1-3.3-.81-8-2.17-11-1.51,3.7,1.47,7.4,1,11,2.51.76,5.43,1.08,17,8.69,16.61.8,4.33-1.73,8.56-2.43,12.83-1,.55-2.12-.85-3.11.14-19.46-6.79-40.88-10.71-60.82-17.37.73-2.19.55-4.75,2.86-6.18-2.36-.34-5-1.69-7.24-1.49,1,1.07,3.82.35,2.84,2.41l1.13.3-1.2,4.54c-13.36-2.92-26.16-7.58-39.07-11.52,1.46-7.34,4-13.54,6.77-20.29.54-.13.85-.79,1.5-.58.79-1.51-.94-4.33,1.84-4.37.34-6.12-2-13.53,2-18.18l-1-.26c2.41-12.78,9.35-23.51,17.4-33.76,1.42-5.56,2.88-10.48,6.79-14.62-7.82,2.19-7,20.93-17,24.91-7.2,13.24-9.16,28.51-10.8,43.06a83.62,83.62,0,0,0-8.63,22.94c1.23.31-.33,1.22,0,0-11.48-12.23-7.29-12-26.16-15.91l20.67-78.41,13.18,3.47c.48-.46,1.2-.43,1.38-1.47l-1.21-.82.51-.31c-3.38-2-14.32-1-12.65-6q4.8-18.31,9.65-36.62c3.07-12.82,5-27.91,10.68-39.29,3.46-.06,10.89,5.4,11.94.51l-11.3-3c10.15-39.31,22.92-79.64,34-119.31l26.82,7.08c10.76-8.85,8.68-29.22,16.18-41.73,10.57,3.22,58.16,3.69,56,16.86-28.49,14.28-35.76-21.19-50.62,2.67-3.48,10.41-1.59,22.32-8.37,31.42-2,13.13-4.43,26.68-12.72,37.67C-287,11.3-284.39,23.26-288.85,34c-6.28,8.4-17.31,16.24-11.38,27.49,4.4,8.07,34.22,28.56,42.34,19.4,29.57,4.6,38.27,23.28,37.42-17.18,5.82,1.6,11.49,3.28,17.56,3.14-1.87,13.18-4.6,20.17,12,22.69,12.59,10.34,11.27,1.73,27.13,7.83,14.63-5,12.79-33.48,18.94-46.76,4.53-.71,9.08,0,13.56-.27C-134.48,67.6-141,84.22-145.08,101.36Zm-75.53,17.11c5.67,1.73,13.16,2.08,17.8-2.19l2.2.58c0,6.34,5.54,11.15,11.71,8.58,2.18.84,2.16,4.08,4.88,4.05,1.86,6-22.56-1.36-25.39-3.93-6.12-1.66-11.67-5.17-17.53-7.47a2.52,2.52,0,0,1,.33-1.67C-224.22,116-222.71,118.05-220.61,118.47Zm-5.47-3.92c.71-14,17.41-6.71,22.43.85C-210.25,119.94-219.34,118.94-226.08,114.55Zm92.65-102.88,3.7-4.36c1.7,2.05-.69,3.76.84,6.79,5.56,4.09,9.77,8.4,6.76,15.92,2-2.05,2.33-2.37,2-4.71.72-.61,1.87.74,2.62-.37,3.08,1.37,2.36,5-.11,6.63-1.48.58-2-.82-2.68-1.13-1.35.55-.59,1.36.31,1.67l-1,3.6C-129.45,33.25-128.82,19.38-133.43,11.67Zm-90.49,462.11-15.19-4c.22-2.74,5.46-23.21,8.61-33.54l15.41,4.06Zm9.66-37c-7.22-2.47-19.45-1.63-13.2-12.25,6.71-19.45,10.66-39.72,16.31-59.5l15.56,4.1C-202.12,391.61-206.3,414.8-214.26,436.82Zm20.16-72.91c-5.16-2.1-11.68-1.5-15.4-5.14,8.16-24.29,13.46-50.22,20.51-75.09,5.54-.13,10.41,2.14,15.8,3.16C-179.89,312.88-186.78,338.05-194.1,363.91Zm21.94-80.77c-5.46-1.3-10.24-1.82-15.76-3.56,8.82-27.32,15.09-56.15,24.2-83.66l15,4C-157.82,227.07-163.49,255.5-172.16,283.14ZM-204.48,478.9l-16.79-4.43c2.52-11.44,6.27-22.09,9.58-33.27l16,4.23Zm10.4-36.77c-4.17-2.45-17-1.36-16.18-6.73,6.23-21.69,10.5-44.15,17.94-65.35l16.13,4.25ZM-154,289.92c14.71-24.86,15.09-59.29,29.82-83.56l14.86,3.91c-7.2,28.15-15,55.94-22.89,83.88-6.66-.91-14.13-6.13-19.68-2.36A2.07,2.07,0,0,1-154,289.92Zm-30.45,194.33L-201,479.89c3.7-10.49,6.11-22.16,9.29-33.53l16.1,4.24Zm24.25-88.91c-6.35,16.73-9.19,34.52-14.4,52l-16.09-4.24,17.91-67.93,16.74,4.41Zm9.64-33.95c-2.16,4-2.76,8.5-4.13,12.83l-16.8-4.43c7-24.88,12.09-50.14,20.5-74.67,2.59-2.55,19.67.77,17.32,4.85C-138.64,320.62-145.59,340.74-150.56,361.39ZM-165,489.32l-16.69-4.4c4.33-10.65,6.19-22.14,9.47-33.28,5.79,1.59,10.64,3.61,16.72,4.94C-158.6,467.59-160.9,478.61-165,489.32Zm22.37-81.78c-3.68,15.12-8,29.95-11.82,45.06l-16.85-4.44c4.25-22.78,11.73-44.69,17.78-67.07,5.82-.84,11.2,3.76,17.44,4.35C-137.83,393-141,400-142.68,407.54Zm31-114.74a55.32,55.32,0,0,1-1.6,6.29l-15.56-4.1c8.52-27.44,12.83-58.09,23.49-83.91,4,3.07,9.88,2.86,14.73,4.71C-98,241.37-103.22,267.68-111.73,292.8ZM-78.2,170.91c-3.35,14.06-7.5,28-11.23,41.74-6.21-1.42-10.37-3.73-16.49-5,7.86-23.53,13.06-48.29,20.48-72.16l16.21,4.27C-72,150.21-74.5,160.73-78.2,170.91Zm14.76-53.14c-1.74,6.13-3,12.46-5,18.48C-72.37,134-84.39,134.88-84,130c3.59-17.54,9.79-35.36,12.35-52.67,2.79-2.58,4.23-7.5,3.81-11.24,1.86-3.35,2.39-7.21,3.74-11,5.34.69,10.05,4,15.44,4.54C-50.1,79.16-59.7,98.26-63.44,117.77Zm-90.68,380c-6.4-.95-9.44-2.53-6.27-9.28,2.48,1,4.69,2.42,7.22,2.66l.4,2.36-1.07.92A3.23,3.23,0,0,1-154.12,497.76Zm9.1-2.53c-11.45-1.79-1.89-5.13-15.3-7.21l8-30.45,16.08,4.24Zm26-93.42c-5.91,17.28-9.5,35.21-14.47,52.77-1.25,8.32-12.42-.45-17.74-1.07,5.72-22.61,12.66-44.45,18.39-67.12l16.85,4.44C-117,394.57-117.5,398.44-119.06,401.81Zm17.87-64.7c-5.34,16-9,32-13.43,48.39l-16.86-4.44c7.19-25.79,12.78-51.89,21.16-77.3,5.5.75,11.1,2.9,16.84,4.19C-96.06,317.69-98.55,327.38-101.19,337.11Zm-23.69,163.53-17.5-4.61c2.54-11.46,6.5-22,9.6-33.32C-105.63,464.45-122.68,483.06-124.88,500.64Zm23.8-87.62c-6,15.31-8.54,32-13.31,47.83-5.14,4.14-11.42-.83-17.59-1.62,5.62-22.76,12.63-45,18.55-67.73l16.85,4.44Zm9.38-35.59-3.45,13.1L-112,386.09c6.6-25.07,14.23-49.81,20.47-75,3-5.53,12.08,2.66,17.31,2.71C-79.57,335.17-85.8,356.24-91.7,377.43Zm33.47-121.88c-4.73,18.17-9,36.39-15,54.18L-90,305.3c8.17-27.61,15.35-55.36,22.64-83.26,7.41,2.26,13.48,3.91,20,2.39C-53.07,232.92-55.12,245.5-58.23,255.55Zm-46.54,250.34-16.79-4.43,8.45-32c5.34-1.83,10.74,1.76,16.55,2.71C-100.14,483.44-101.71,494.61-104.77,505.89Zm20.69,5.43-18.09-4.77c11.22-30.41-1.74-39.05,26.77-28.15Zm20.36-79c-2.83,14.31-7,28.08-10.6,42.21-58-12.39-31.85-11.6-19-77.82C-81,400.6-69,403.91-56.57,407.21-58,415.94-62.73,423.65-63.72,432.34Zm24.25-84.73c-6.21,17.83-10.19,36.23-15.73,54.4-5.82-1.61-10.52-4.1-16.66-5.17,6.37-25.91,14.46-51,21-76.88l17.51,4.61Zm13.65-51.92c-2.05,8.45-4.4,16.84-6.66,25.4l-17.31-4.56c6.43-28.37,15.18-55.69,22.73-84,6.11,1.27,11.11,3.92,17.22,5.3C-14.93,257.23-19.94,276.56-25.82,295.69Zm27-97.41C-2.94,209.89-4.95,222.35-9,233.78c-10.91-4.95-28.89-3.1-35.93-12.67,5.71-22.5,13.4-46.34,19-69.26l36.09,9.52C9.13,173.8,4.38,186.19,1.14,198.28ZM-67.33,515.77l-12.81-3.38c3.34-11,5-22,8-33l13.46,3.55ZM-44,519.86l-.68,2.58c-7-2.74-14-4.21-21.25-6.18,3.15-11.18,5.8-21.85,8-33.26,7.11,2.05,14,3.24,20.35,5.94C-36.49,499.44-42.2,509.58-44,519.86Zm70.47-267C19.69,279,12.22,304.9,5,331.13l-14.65-3.86,22-83.49L28.43,248C27.73,249.65,27.9,251.45,26.49,252.82ZM-29.85,526.4l-10.94-2.88c2.84-11,5.51-22.24,7.49-33.17l12.11,3.19Zm11.42-35.75c-5.3-.88-9.91-3.31-15-4.73,6-22.73,12.72-44.85,18.37-67.81l15.33,4C-4.09,444.62-11.7,468.13-18.43,490.65Zm.22,38.81c-17.29,0-.45-24.05-.2-35.19,3,.39,5.88,1.5,8.9,2.2Zm15.88-1.76c-.31,2-2.36,3.16-1.94,5.44l-13.18-3.48c2.5-11.25,6.36-21.58,9.46-32.7l11.35,3C3.41,509.54-.31,518.42-2.33,527.7Zm21.58-14.07c-4.13,7.42-3.14,18.18-8.22,24.29A85.74,85.74,0,0,0-.61,534.17c2.93-11.2,6.07-21.83,8-33.09,4.95.5,9,3.75,14.19,4C20.77,508.3,20.47,511.2,19.25,513.63Zm14.07,13c-1.61,5.16-2.67,10.17-4.12,15.43-4.92-1.59-9.47-2.17-14.36-3.39,2.58-10.93,6.73-21.45,9.25-32.43,3.69,1.06,7.47.79,11,2A4.21,4.21,0,0,0,36.69,511C35,516,34.59,521.43,33.32,526.6Zm15.5-56.37c-4,11-6.9,22.57-10.88,33.52-9.67,1.75-21-5.13-31.31-6.58-1.4-2-.81-4.32-.54-6.42,6.65-20.34,11-42,17.65-62.63,10.74,4,21.56,6.52,33,9.55C53.92,448.5,50.7,459.3,48.82,470.23Zm51.65-195.68c-7,25.57-13.19,51.55-21,76.85l-14.26-3.76C72.49,319.8,80.34,292,88.07,264.38l14.77,3.9C101.93,270.33,102.16,272.71,100.47,274.55Zm19-67.72c-6.3,19-10.42,38.65-15.82,58-5.21-.49-9.46-3.77-14.82-4.27,6-24.55,13.26-47.49,19.51-72.06,5.13,1.82,10.33,2,14.83,4.93C122,197.86,121.33,202.59,119.51,206.83ZM46.44,547.27c-5.13-.85-9.09-3-14-4.47,3.48-10.89,5-22.76,8.88-32.92,5.15,1.06,9.49,3,14.66,4.42C51.67,525,49.85,536.17,46.44,547.27Zm25.42-93.9c-6,18.87-10.76,37.67-16.22,56.76l-12.73-3.36-.65-2-.37.22c6.16-22.13,13.38-43.83,18-66.36l14.91,3.93C73.89,446.15,73.35,450,71.86,453.37ZM82.09,417.7c-3.12,6.07-3.62,12.93-6,19.54l-14.78-3.9c7.27-25.56,12.55-51.77,21-76.9l15.56,4.11C93,379.75,86.8,398.47,82.09,417.7ZM67.16,534.9c-1.56,5.45-2.92,11-4.39,16.56l-13.61-3.59c2.48-11.26,6.39-21.57,9.41-32.64l13.31,3.51C71.22,524.31,68.71,529.47,67.16,534.9ZM87,464.56c-5.74,16.65-9.21,33.86-14,50.8l-14.91-3.93c6.35-22.9,13.34-45.27,19.38-68.26C94.08,445.05,91.64,451.16,87,464.56Zm18.71-65.24c-1.94,7.48-2.79,14.33-7.42,20.57-3.35,6.29-4.16,14.17-6.44,21.43l-13-3.42c7.45-25.52,14.89-50.79,21.58-76.58l14.91,3.93C112.88,376.84,108.53,387.89,105.67,399.32Zm21.63-76.75c-3.35,13.25-7.68,25.87-11,39.15l-14.91-3.93c7-27,15.16-53.06,21.84-80.2,6.77,9.34,1.24,22.17,8.53,31.3C129.18,313.06,128.62,317.94,127.3,322.57Zm29.29-106.48c-9,28.66-15.45,58.07-23.49,87l-.82.07c-2.51-21.46-1.91-30.83-25.4-37.34,5.91-23.87,12.89-46.76,19.39-70.49,11.45,2.65,22.06,6.31,33.46,9.39C158.7,208.66,158.19,212.63,156.59,216.09ZM109.26,400.72c15.56-57.48,32-114.94,47.31-172.42,6.66,6,2.25,18.23,9.88,24.58-11.75,43.41-23.17,87.5-36.48,130.31-5.13,9.52-15.2,16.52-22.68,25A15.38,15.38,0,0,1,109.26,400.72Zm-7.45,160.17c-10.39-.37-21.68-5.62-32.61-7.74,3.66-10.75,6.51-21.46,9.38-32.76,10.93,2.5,20.51,6.67,31.54,9Zm15.8-54.95c-2.18,6.4-4.46,12.79-6.2,19.18-10.14-.47-21.39-5.86-31.85-8.17,3.36-9.65,4-21.53,8.88-30,10.2,4.57,21.15,5.74,31.92,9.13C119.48,499.38,119.06,502.91,117.61,505.94Zm9.77-34.2c-3.23,6.66-3.57,14.43-6.44,21-11.16-2.39-21.57-6.5-32.72-9.32,4-9.19,5.66-19.53,8.59-29.53,10.36,3.86,21.69,6.15,32.91,9.28C128.93,466.18,128.54,469.14,127.38,471.74Zm9.12-32.18c-2.74,6.76-3.92,13.23-5.92,20.36-11.44-2.51-21.45-6.34-32.68-9.42-.26-10.79,3.74-22,9-31.42,10.42,3.63,21.35,7.46,32.3,10.65C138.37,433,138,436.53,136.5,439.56Zm-11.81-17.94c-5.16-2.47-10-3.47-15.5-5.27l11.18-11.29c13.93,6.41,29.27,8.88,44.15,13.2-1.13,4.85-3.45,8.39-4.31,13.42C148.2,428.74,136.48,425.16,124.69,421.62Zm20,134.57c-1.22,5.44-2.8,10.8-4.3,16.49-12-2.86-23.28-7.28-35.38-10l8.55-32.41c12.26,2.77,23.85,6.66,35.8,10.26C148.85,546.06,145.86,550.85,144.66,556.19Zm1.25-20.12c-10.26-4-21.32-5.85-31.43-9.59,2.27-4.19,2.68-8.63,4.09-12.84,7.63.37,21.84,9.22,26.49,4.65-7.56-3.82-17.28-3.48-24.9-8l3.53-13.4c22.41,6.77,45.2,12.37,67.57,19.2l-7.87,29.81C170.89,542.66,158.41,539.33,145.91,536.07Zm34.74,18.1c-3,8.81-3.74,18.56-8.07,27l-28.17-7.42,8.53-32.33c10.16,2.37,19.51,5.52,29.62,8.29C181.84,551.46,181.94,553,180.65,554.17Zm11.5-42c-22.81-5.65-45-12.41-67.7-18.54,2.6-10,6-19.38,8.59-29.46,22.76,5.84,44.78,12.73,67.81,18.41C197.61,492.5,196.77,503.22,192.15,512.2Zm15.56-53.09c-1.61,7-4.72,12.91-6,20.26-23-5.57-45.07-12.38-67.89-18.74,1.4-4.58,2-9.39,4.69-13.78,16.9,7.74,18.74.68.48-2.67l3.39-12.88,68,17.92C209.49,452.49,208.73,455.84,207.71,459.11Zm12.78-51.6c-2.61-5.46.38-22.49-4.49-24-1.86,9.43,2.23,18.36,1.5,27.81-65.27-16.08-40.68-5.55-28.35-65.85,6.13-22.79,13-45.32,18.72-68.25,1.46-3.82,1.52-9.15,3.74-12.21,5.11,2.16,12.72,1.56,16.23,5.55-9.66,25.44-13.42,53.37-22.43,79.09,4.38,7.37,11.2-31.08,12.68-34.93,24.09,3.56,13.41,9.75,11.19,28.67.57,4.3-4.62,6.41-6.88,10.2-.69,5.6-5,13.05-3.84,17.93,3.73-7.1,2.88-17.46,10.08-23,11.42,31,60.89,37.28,49.59,79.65-19.66-5.19-38.83-10-58-16C220.41,410.65,221.05,409.11,220.49,407.51Zm-1.83,25.74,16.61,4.38c1.7-.65,1.38-1.56.64-2.72l-16.42-4.33L223.07,417c18.38,5.32,37.13,9.08,55.35,15.45.14,10.79,5.69,21.89,2.52,32.46-22.44-5.48-43.95-12.68-66.46-18.21C215.31,441.68,217.36,438,218.66,433.25ZM207,590.31c-37.85-9.67-31.8-3-21.25-39.58l29.36,7.74C214.94,561.32,210.77,577.7,207,590.31ZM240,599.44c-3.21-.53-26.17-6.56-29.66-7.8l8.49-32.2c9.9,2.41,19.56,5.44,29.25,8.36C247.8,570.7,243,589.54,240,599.44Zm13.31-34.3c-22.14-6.33-44.64-11-66.54-18.43,3.44-9,3.77-23.44,9.81-29.18C217.77,523,239.38,529,259.9,535.46c1.5,4-1.88,8.69-2.45,13.38l-24.27-6.4c-.66.69-.6,1.51-.9,2.44C246.84,551,262.14,544.36,253.27,565.14Zm9-34.08a1.87,1.87,0,0,0-2.07,1.25c-20.48-8.33-42.68-12.12-64.09-18.37l8-30.46c21.75,5.56,43.13,12.36,64.91,17.8C271.21,510.58,264,521.46,262.28,531.06Zm16.24-56.64c-5,6-1.76,24.43-10.95,23-20.35-6.54-41.28-11.34-61.82-17.15l8-30.37c21.49,7.44,44.4,12,66.47,18.26A39.39,39.39,0,0,1,278.52,474.42Zm-.18,97.95c-7.58-1.67-14.24-4.33-21.78-6.3,1-4.41,2.25-8.64,3.35-13l22,5.8Zm4.34-16.43c-7.47-1.51-14.09-4.69-21.72-6.18l3.39-12.87,21.83,5.76Zm6.18-23.43a68.58,68.58,0,0,1-1.72,6.72c-7.33-3.16-14.59-4.17-22-6.4,2.63-4.16,2.82-8.89,4.44-13.28C276.63,523.28,296.52,520.84,288.86,532.51ZM274,503.4c7-.85,14.5,4.5,21.72,5.68l-3.58,13.6c-7.2-2.38-14.74-3.14-21.75-6.65C271.62,511.87,272.35,507.52,274,503.4Zm21.14,1.88c-30.54-6.89-16.82-10.14-12.13-34.34,3.64,3.83,25.94,33.66,26.85,38A98.13,98.13,0,0,1,295.09,505.28Zm8.35,38.28-13-3.41,8-30.34c3.92,1.58,9.51,1.36,12.44,4C310.2,523.93,306.59,534.15,303.44,543.56Zm-22.3,29.54L289,543.39l13.46,3.55C298.67,558.11,298.62,581.45,281.14,573.1ZM381.6,559c-9.5,4.4-21,17.45-30.56,16.58-.52.75.25,1.43.07,2.49-23,10.76-43.62,26.46-66.3,38.57-10.28-11.91-5.29-25.93-2.1-39.59a16.74,16.74,0,0,0,11.72.24c11.59-16.61,13.69-40.39,19.95-59.68.44-18.8-18.09-32.07-27.18-47.38-3.21-2.53-2.79-6.18-1.3-10.11-.68-4.53-1.89-8.49-1.67-12.85-4.24-13.56.13-27-2.27-40.62-3.36-30.5-59-37.58-47.12-71.38,0-5,1.85-9.72,2.47-14.6,2.24.3.95-2.18,3.11-2.27L238,315c6.2-18.87,11.21-38.32,17.33-57.38,1.22-8.57,6.85-16,4.38-24.85,17.71,7.71,25.26-.29,19.57-17.66-8.75-9.2-24.44-9.47-36.48-14-.48-8.73-2.4-16.85,1.38-24.95,2.06-3.13,6.62,3.09,11.85,2.72,30.44-3.38,35.55,26.15,46,47.88-1.17,11.94-7.48,22.56-8.83,34.51,2,14.31-3.49,28.23-.49,41.69,5.95,3.89,1.61,13,3.09,19.06C301,348.49,312,374.85,310,402.23c-1-.12-1.78.54-2.7,1-1.32-3.81-.78-8-2.31-11.83-1.79,2.88.74,7.3.7,10.72.4,6.35-2.88,12.45-4,18.66.59.66.63,1.69,1.52,2.12.3-6.48,3-12.42,4.14-18.67,1.51.07,2.45-1,3.6-1.42,6.43,23.69,29.19,35.08,46.8,50-2.25,5.91-6.44,12.21-2,18.13-1.1,6.3-4,11.61-6.75,17.18,4.77,1,5,.37,9.09,3.77,3.86.93,5.51,2.78,4.77,6.89.16,15,2.53,30.32,2.73,44.92C364.12,554.46,346,546,340,549.11c7.78,0,19.8,4.14,25.4-1.73,2.38-3.75,1.54-10.36,1.29-14.94-2.85-12.94-1.79-26.82-2.82-40-3.84-.66-12.15-3.76-7.37-8.29C352,476.69,360.08,468.48,359,460c-1.55,3.27-1.65,5.54-2.63,8.74-3.16-4.47,0-10.9,2.74-14.38,40.27,37.07,5.55,54.49,24.76,91.48A47.86,47.86,0,0,1,381.6,559Zm13.71-25.62c17.39-5.94,33.68-25.55,51.63-24.66-.95,5.37-4,10-4.52,15.12L412.93,541c-1.09-1.35-2.74-6.6-5.27-4.12-.13,2.31,3.31,4.19,2.45,6.52-6.5,4.76-12.93,7.49-19.84,1.34C392,541,394.82,537.88,395.31,533.39Zm4.83-15.2c5.53-31.51,15.43-17.44,38.23-12.42-14.11,7.42-27.28,17.8-41.63,22.77A56.43,56.43,0,0,1,400.14,518.19Zm39.11,14.5c-.77,23.88-21.94,27.71-39.1,38.8-2.11-3.71-6.22-8.54-5.66-12.18C409.69,550.7,424,541.22,439.25,532.69Zm-50.69,18.59c2.13-.86,2.91,1.43,4.59,1.57l-4.65,2.9Q388.53,553.5,388.56,551.28Zm25.33,63.65c-12.22-4.12-22.93-12.47-27.66-24.56-1.11-9.68-2.73-18.72,1-27.93,1.37.21,2.26-1,3.68-1.43,9.65,13.51,6.82,36.76,27.87,39.21C417.1,605.36,416.7,610.39,413.89,614.93Zm17.44-54.44c-3.17,12.55-7.84,24.78-11.36,37.24-11-1.62-20.36-12.2-18.64-23.61,10.13-6.65,21.21-11.49,32.05-18.34C432.46,557.79,432.74,559.39,431.33,560.49Zm-13.09,54.62c7.76-28.71,18.46-56.49,25.83-85.25,16.58-9.88,32.39-19.61,49.15-29.17-1.59,7.41-3.08,14.8-4.8,22.08-8.36,3.48-17.13,5.62-24.41,10.82-3.07,9.35-5.8,19-8.23,28.62l2.59.68c6.94-24,3.89-29.15,29.15-36.93-8.66,34.15-18.63,67.14-27.37,101.19l-15.43-4.07c0-3.15,5.13-10.61-.11-10.76-1,3.55-2.8,6.65-3.45,10.6-7.47-2.21-15.17-2.88-22.36-5.87C418.46,616.36,418,615.9,418.24,615.11ZM448.3,516.9c1.32-6.15,4.58-11.69,5.26-17.94,10.09-1.75,21.76-8.74,27.61-17.06,6.4-19.53,10.65-39.31,17-58.87,5.14,1.93,11,1.63,15.19,5-24.33,75.46,1,53.94-66.83,93.59C446.55,519.74,447.74,518.68,448.3,516.9Zm15.49-53.53c3.78-15.2,8.71-30,12.74-45.11,6-.8,12.5,3.08,18.82,4-6.27,18.77-10.4,39.24-16.68,58.35-4.07,5.89-16.75,14.25-24,14.8C457,484.34,461.28,474.3,463.79,463.37Zm65.48,209.82c-7.46-3.56-15.53-4.14-23.51-4.66-10.86-2.41-22.13-7.06-33.38-9.68-16.33.37-11.13,6.64-29-2-24.06-1.69-18.77-10.87-20.7-29.49.73-3.8-1.09-6.46-4-8.63,30.47,7.41,60.6,18,91.46,25.13,26.39,11.22,34.47-2.4,25.37,31.78C533.29,674.57,530.87,675,529.27,673.19Zm14.37-196.78c-9.69,35.87-19,72.11-28.58,108.12-5.77,1.05-12.43-4.18-18.81-4.63,16.1-37.09,6.89-94.43,49.91-109.89C544.93,472.34,545.35,474.65,543.64,476.41ZM513.94,588.8C509.26,605,504.4,621,500.41,637.48c-6.12-.59-12.48-3.25-18.78-4.58-.14-3.9,8.13-19.57,1.85-17.94L479,632.07,463.45,628c3.92-16.77,9.37-32.93,13.73-49.64,5.6,1,9.91,3.31,15.31,4.83l-5.6,21.23,2.62.68,5.6-21.24ZM493.41,579c-5.07-1-10.1-2.65-15.38-3.93q8.76-33.21,17.51-66.39c-.86-13.57,12.64-16.51,22.23-22.95,0,.1,0,.14,0,.17C510.78,516.16,501.69,548.55,493.41,579Zm50.51-88.31C548.08,467.25,552,466,571.53,454l-19.29,73.15c.57,2,1.09,2.28,2.55,1.32,4.45-18,10.77-35.44,14.75-53.54,1.06-19.72,9.64-26.38,26.44-34.3-8.75,33.92-16.82,67.91-26.13,101.72-12.53-3.6-24.71-7.33-37.44-10.48C535.52,517.75,540.65,504.69,543.92,490.72Zm11.53,105.37c-5.71-1.18-11.4-3-17.2-4.42l13.31-50.5,17.3,4.56L555.6,596A.42.42,0,0,1,555.45,596.09Zm-20.33-5.67c-5.53-.29-11.27-2.92-17-4l13.5-51.21a111.08,111.08,0,0,1,17.22,5.25C544.84,557.24,539.64,573.79,535.12,590.42Zm-26.58,32.22c2.69-11.12,5.8-21.83,8.64-33L534,594.07c-4.09,10.29,0,14.68,2.23,1.9,5.71-1.91,12.28,2.82,18.48,3.5-3.58,16.84-9.95,32.87-13.56,49.8a176.48,176.48,0,0,1-18.18-5.48c8.28-18.26.88-21-2.56-.76l-16.78-4.42A135.42,135.42,0,0,1,508.54,622.64Zm53.79-169.21c-20.38,12.78-41.32,23.86-62.21,36,.13-13.21,22.76-60.53,13.14-65.87-9.43-.35-33-13.54-39.95-6.72C464.7,446,457.08,476.33,448,505.24c-4.43-.89-7.62-2.86-12.3-3.69,1.5-5.47,2.7-11.09,5-16.22-1.24-1.73-1.24-1.73-3.22-1.05-4.85,15.92-.08,18.5-17.89,12.34,2.76-13.36,10.34-27.76,10.45-40.89-.88-.34-1.21.28-2,.53-2.48,12-7.33,23.62-10,35.7-.47,6.45-6.87,1.2-10.9,2.84-12.52-17.33-12.63-46.21-33.81-56.1-1.58,3.27,4.54,6.28,6.91,8.05,7.72,7.77,9.86,19,14.42,28.73,6.05,16.43,12.71,16.84,3.88,34.58-4.17,4.23-3.53,30.29-11.21,22.58-.78,4.53,6-.39,1.2,7.77-21.63-38.41,30-51.33-48.22-108.66-28.28-15.2-23.61-47.1-29.72-74-10.3-30.94-13.95-60.78,1-90.44,20-42,22.31-45.55,3.81-88.53,1.73.48,3.63,2.75,5.19.68a1.73,1.73,0,0,0-2.18,0c-.79-1.34-1.57-2.69-2.4-4.11-.24.37-.47.71-1.09,1.63-.53-12.45,6.44-23.61,5.12-36.18-.35-23.2-10.19-45.45,6.23-65.86,2.95-9.58,9.45-17.8,11.5-27.82C343,34.73,345,19.86,356.09,11.17c10.26-7.38,25.5-7.09,33.52-17.92,12.2-10.22,13.58-76.84,29.12-71.52l-5-1.33c1.7-6.49,6.1-11.36,8.07-17.74a54.21,54.21,0,0,0,8.33-21.35c5.55-.9,7.67-7.58,12.25-9.57.22-.46,0-1.32,1-1.12,19.13-19,53.17-17.78,57.94,13.45,1.29,5.74-23,26.49-15.8,27.48,4.21-7.57,9.75.07,14.8,3.4-.47,9.7-10.51,20.2-3.75,28.6,11.84,2.74,9.4-14.25,13-21.59C507-86,498-89.74,491.85-94.43c1.71-6.27,7.6-10.92,10.77-16.67,11.44,12.67,27.88-.44,39.65-6.08,2.37.64,3.08,2.79,4.83,4-2.33,8.65-19.66,17.54-18.55,25.65,7.45-5.89,13.52-15.18,20.52-21.9,3.19,4.38.75,10,.15,15.34,2.47,5.53,9.46,11.82,6.06,18.23,0,11.15,7.71,13.38,17.24,15.12,6.35,13.84-3.43,32.62,5.45,46.9,5.57,7.67,14.33,11.35,18,20.62-.53,4,2.23,8.15.31,12.3-.36,1.19-1.14,2.44-.27,4-9.29,15.64-22.33,29.68-30.89,45.62-7,25.77-10.22,54.15-16.29,80.8-2.71,25.5-30.4,41.18-34.79,65.36-1.3,15.93,6.75,31.21,7.14,46.86-2.52,14.07.1,29-3.71,42.63-4.89,11.34-8.47,23.31-13.78,34.24-6.73,19.51-15.14,37.79-22,57.18-4.44,7.37-13.15,12.66-14.72,21.51-3.14,10.23-5.64,20.71-10.05,30.13l2.37.63c8.94-16.06,8.09-36.5,24-48.92,24.52,7.11,52.18,7.93,65.9,32.65-9.2,7.87-23.35,12.62-31.87,20.92,29.91-12.13,60.1-35.52,90.5-50.52,7.7,7.58-4.07,16.76-.52,24.78C592.51,436,577,444.2,562.33,453.43Zm-59.83-536c8.69.13-1,33.65-6.13,20.05C499.52-68.7,500.16-75.82,502.5-82.54Zm86.6,629.95c-4.19-2-15.61-1.12-15.41-6.41,4.52-16,7.77-32.37,13.32-48l15.48,4.08-13.25,50.25S589.2,547.37,589.1,547.41Zm29.15-105c-5.73,16.91-9,34.39-14.78,51.28l-15.29-4c2.39-17.38,8.15-34.61,12-51.87l21.73-12.65C623,430.43,619.67,437,618.25,442.43Zm-8.8,108.93a3.07,3.07,0,0,0-2.22,1l-15.36-4.05c5.3-16.77,7.27-34.39,14.36-50.29,5.35,2.92,11.62,3.43,17.6,5.34C618.44,519,617.54,537,609.45,551.36Zm23.94-81.61c-3.73,9.69-5.72,19.51-8.52,29.62l-18.15-4.79c5.29-23.89,14.72-47.14,18.7-71.12,7.73-3.88,15.13-10.42,22.82-12.76C644.38,430.55,638.27,450.06,633.39,469.75Zm33.72-103.68c8-25.3,13.17-51.45,21.4-76.53a101.35,101.35,0,0,1,14.39,3.08c-7.76,30.73-18.27,61.43-24.43,92.35-6.31,3.68-12.53,7.31-18.9,11-.15-.14,1-1.11-.17-1.29C662,385,664,375.36,667.11,366.07Zm-9.87,97c-5.11,13.78-7.72,28.25-11.79,42.36l-17.3-4.56c3.92-16.85,9.82-33.23,13.72-50.23l17.5,4.61C658.66,458,658.32,460.69,657.24,463.08Zm11.37-42.93c-2.67,10.48-5.42,20.5-8.17,31.05l-17.28-4.55c2.21-12.77,7.84-25.44,8.56-38.31,7.16-3.37,13.78-12.49,22.82-8A182.17,182.17,0,0,1,668.61,420.15Zm-2.54,90.77-18-4.75c4-16.92,9.71-33.18,13.89-50,5.73.62,11.59,3,17.47,4.29Zm14.17-53.65c-5.8-1.82-11-4-17.22-5.32,4.21-17.27,10-33.61,14.12-50.91,5.54.68,10.22,4.15,15.62,4.5C691.47,422.31,683.78,440,680.24,457.27Zm17-63.94c-2.24,3.06-1.5,6.62-4.77,8.92-6.38-2.76-13.36-4.22-20-6.06l28.4-16.55Zm10.21-35.88c-.68,15.25-14.2,18.88-25.48,25.79,7.26-30.1,16.53-59.59,24.25-89.69l17.4,4.59L709.65,351c-1.94.82-3.59.07-5.28-1.81-1.35.47.2,2,.33,2.55,1.42,1.56,3.17-.13,4.61,1.07C708.6,354.28,709,356.16,707.4,357.45ZM941.77-8.45l.83-3.16L953-8.87,949.74,3.45c-11-3.1-21.56-6.66-32.77-9.33.48-4.51,3.44-8.22,3.83-12.76,3.78.49,6.59,3,10.26,3.17l-1.22,4.65C933.86-10,937.52-8.12,941.77-8.45Zm-9.22-6.5c2,.22,4.14,1.86,2.74,4.09l-3.59-1A8.47,8.47,0,0,1,932.55-14.95ZM937.16-12c2.15-2.57,7.2.48,3.14,2.53C938.72-10.07,936.06-9.77,937.16-12Zm-17,109.36C914.07,121,906.86,144,900.87,167.76c-4.13,2.07-9-1.38-14-2.1,8-31,17.27-61.3,25-92.38L926.17,77C924.75,84.1,921.5,90.33,920.15,97.35Zm17.91-64.86c-4.24,13.52-7.08,27.43-11,41.12l-14.26-3.76c5.8-22.8,13-44.83,18.53-67.67l14.16,3.74A257.8,257.8,0,0,1,938.06,32.49ZM871.67,210.25c-4.42,16.07-8.44,32.17-12.77,48.3-11.14,7.36-23.82,15.38-35.8,20.59,1.38-12.73,14.72-18.49,20.67-28.79,11.73-26.76,13.31-59.62,24.63-85.95l15,3.95C880,182.51,874.91,196.1,871.67,210.25Zm-40,12.81c6.54-21,11.37-42.6,17.51-63.7l14.09,3.71c-5.13,22.48-10.39,45.14-17.07,67.21-1.68,14.16-9,24.64-19.59,33.93l-5.36-1.41C824.23,249.5,827.69,236.11,831.68,223.06Zm66.54-111.18c-4.48,17.84-9.34,35.22-14,53.1l-14.71-3.88a2.68,2.68,0,0,0-1-2.41c8-30.28,17.12-59.95,25.28-90.16l15.44,4.07C905.82,85.76,902.63,99,898.22,111.88ZM922.7,22c-4.25,15.76-8.34,31.51-12.51,47.3-5.65-1-10-3.1-15.36-4.82,6-22.42,12.54-44.74,18.61-67l15.33,4C927.58,8.63,924.25,15,922.7,22ZM923.32-40c-2.54,8.33-6.28,24.17-9.26,33.2-5.73-1.21-17.94-4.73-17.95-4.63l9.43-33.26ZM870.59,4.09c2.79-5.4,3.15-11.47,5.36-17.33,11.51,3.13,23,5.7,34.07,9.54-5.66,23.11-13.1,44.93-18.61,68-6.45-.5-12.77-7.36-18.63-2.63-3.4,12.86-6.95,26.33-10.5,39.8l.44-.26c.1.55.21,1.1.27,1.43.92.22,1.26-.37,1.79-.54L875,63.24c3.43-1.24,11,3.37,15.69,3.68-9,30.86-16.5,62.41-26.69,92.69l-14-3.68c-.14-4,8.86-22.19,2.54-20.48l-5.2,19.73c-16-3-13.81-3.62-19-17.69,19.16-12.14,19-37.93,25.58-57.69C861.49,55,870.12,29.87,870.59,4.09ZM833.35,205.38c-4.72,18.83-10,37.55-14.8,56.35-4.61-.2-9.46-2.44-14.35-3.41,9.1-34.65,19.2-68.69,28-103.48l14.26,3.76C842.28,174.28,838.43,190,833.35,205.38Zm-65.5,187.93a239.56,239.56,0,0,0,6.94-23.45c5.2,2,12,1.79,15.89,5.08q-6.55,24.9-13.2,50.08c-5.47-.72-11.09-2.9-16.83-4.17C763.05,411.64,765.63,402.55,767.85,393.31ZM765,335.18a4.41,4.41,0,0,1-2.75,1L768.92,311a154.23,154.23,0,0,1,23.9,6l-.42,2.12C783.07,323.77,774.34,330.27,765,335.18ZM769,378.87c-4.1,13.63-6.21,27.79-11.76,40.95l-16.61-4.38c4.2-17.23,10-33.61,14.16-50.8l17.33,4.57C771.73,372.57,770,375.57,769,378.87ZM766.66,306c-6.16-2.15-12.33-2.1-18.3-4.21,4.14-17.34,10.11-33.62,14.12-50.93,5.69,2.12,13.07,2.18,17.81,5.46C775.22,272.76,771.14,289,766.66,306Zm-11.1,41.58c-.75,4.21-2.19,8.36-3.25,12.83-4.09-1.29-8.35-1.71-11.81-4.05Zm0,0c-.07-.12,0-.08,0,0ZM773.13,213c4-19.29,3.9-16.06,21.61-11.27l-13.32,50.5-18-4.76C766,235.76,770.19,224.59,773.13,213ZM803,143.5c-2.39.37-2.39,1.05-1.52,2.49l7.4,1.95-13.29,50.41-17.39-4.59c2.27-9.23,5.63-18.1,8-27.25-1.63-.56-1.63-.56-2.93,0-2,9-5.83,17.55-7.7,26.67l-18.15-4.79c4.2-17.07,9.71-33.17,14-50.32,4.4-.47,23.74,10.38,22.8,3.69-6.47-2.64-14.8-4.18-21.91-6.23.32-5.26,3.66-9.49,4.22-14.83,18,6.93,49.7,4.86,52.05,29.53ZM746,300.44l-17.4-4.58,13.3-50.45,18,4.76C755.37,267.15,750,283.17,746,300.44Zm24.87-91.94c-3.09,12.84-6.76,25.4-10,38.26L742.65,242c4.09-17,9.74-33.26,14-50.13l17.9,4.72C774.23,200.72,771.65,204.33,770.82,208.5ZM820.5,186c-6.23,18.63-10.48,37.91-15.7,56.87-3.51,17.72-3.8,14.73-19.79,10.37,8.51-34.62,17.71-69.3,27.72-103.55l16,4.22C826.59,164.67,823,175.3,820.5,186ZM787.43,311.38l-17.57-4.63c6.31-16.05,8.93-33.4,14-50.16,5.58.6,10.34,4,16.11,4.63C795.22,278,792.12,294.51,787.43,311.38Zm-31.71,49.85c.77-16.59,12.94-21.87,26.07-28.88L773,365.78Zm111-340.16c-7.13,27.36-15.36,54-22.16,81.51A235.39,235.39,0,0,1,818.9,95.1l21.87-82.95c4.22,1,8.63,2.8,12.9,2,4.72.55,8.11-3.23,12.81-3.7C866.55,14.06,866.46,17.57,866.73,21.07ZM789.5-30.39A44.91,44.91,0,0,1,794-42.14c4.17-3.19,5.45-8.93,9.82-11.62,21.32,16.13,42.1,34.5,69,39.24-3.22,7.43-4.3,13.34-6.38,20.84-14.2,8.15-24,3-37.45-2.94C812.6-3.2,804.05-21,787.87-27.14A5.68,5.68,0,0,0,789.5-30.39ZM815.07,94.15c-58.48-7.33,23.58-70.09-37.57-81.27l9.34-35.45c8.87.28,13.74,8.92,19.85,14.34,8.67,9,19.52,14.12,30.85,19.13C830.38,38.88,822.72,66.23,815.07,94.15Zm-46.3,18.95c-24.06-16.16-3.95-45.63-.65-67.65,4.14-9.14,5-19.65,8.58-28.7,11,1.44,21.3,7.37,22.31,19.33-19.2,61.07-12,54.72,44.7,69.74-2.6,11.17-7.3,21.92-16.61,28.74C810.09,122,787.18,123.27,768.77,113.1ZM710.61,360.84l2.32-8.79a86.38,86.38,0,0,0,14.25,4.51l-19,11.08C708.34,365.5,709.92,363.22,710.61,360.84Zm40.86-163.15c-5.23,14.13-7.83,28.91-12.06,43.4-6-.76-11.17-4.2-17.4-5,4.87-16.94,9.78-33.13,13.94-50.24,6.06.81,11.19,4,17.41,5C752.72,193.24,752.49,195.66,751.47,197.69Zm9.95-37.28c-7.78,19.39,1.57,31.82-24.44,22l13.15-49.85,18,4.76C766.7,145.3,763.42,152.64,761.42,160.41ZM687.53,516.53l-17.78-4.69c.24-2.83,9.71-39.44,13.06-50.39l18,4.74Zm8.68-106.34c.35-1.37.63-2.74,2.07-3.77,4.94,3.05,11.3,3.27,16.86,5.2l-13.49,51.15-18-4.76Q689.91,434.1,696.21,410.19Zm25-19c-2.39,5.53-3.44,11.3-5.06,17.06-25.36-2.31-15-14.58-10.4-31.9l22.09-12.87A192.35,192.35,0,0,1,721.21,391.15ZM729,353.6c-5.23-.9-9.81-3.86-15.3-4.62,5.27-16.45,7.08-34.1,14.26-49.69,12,3.77,25.39,7.09,37.48,10.75-2.21,9.71-5.12,19.43-7.51,29C748.45,343,739.28,353.25,729,353.6Zm1.29,8.59c6.23-5.38,13.53.34,21,1.43-4.13,17.09-9.91,33.68-14,50.84-6.33-1.25-11.47-4-18-5.2C722.65,393.41,729.47,378,730.33,362.19ZM708.24,521.91c-5.51.78-11.91-4.07-18-4.55l13.31-50.51,18,4.74Zm20-75.38c-6.55,19.07.63,25.37-23,17.19,1.17-16.51,10-33.57,13-50.46l18.15,4.79C734.22,427.83,730.27,436.77,728.26,446.53Zm34.17,35.3c-5.65,17.73-8.7,36.52-17.27,52.91-7.8,31-13.25,68.45-48.27,79.41-2.09-10-4.16-19.9-6.34-30.36,9.75-12,10.73-28.3,15.67-42.75,12-40.59,21.44-81.59,33.58-122.16l16.65,4.39c-3.94,11.54,0,12.14,3.51,1l16.47,4.34C772.07,446.27,767.7,464.33,762.43,481.83ZM803.69,331c-4.5,13.28-7.52,26.5-11.91,39.82l-16.11-4.25c4.65-12.28,4.48-28.11,12.05-38.53,5.88-1.25,14.75-13.67,19-8.35C805.75,323.43,805.08,327.33,803.69,331Zm4.41-21c-4.3.78-7.29,3.9-11.3,5.45-1.74-2.16-5.53-1.07-6.65-3.5l13.06-49.53,20.24,5.34c-4.15,12.36-13.14,25.82-9.64,39C811.91,307.83,810.13,309.57,808.1,309.94Zm8.56-.93c6.13-2.92,12.21-5.09,18-8.9,2.21,1.8,5.1,12.35,7.85,7.61-12.24-12.89,9.55-15.36,17.73-22.56-15,44.94,3,48.4-48.21,33.37l-1.61-5.11A16.32,16.32,0,0,1,816.66,309ZM771.23,533.16c-1,2.14-.33,4.7-1.28,6.51-4.78,1.9-9.56.39-14.11.87-4.93-15.08,8.84-39.6,11.52-56.06l16.28,4.3C779.55,503.58,776.26,518.68,771.23,533.16ZM789.1,467.9c-1.32,5.76-3,11.44-4.55,17.41l-16.1-4.24,13.42-50.91c5.46.73,11.09,2.9,16.82,4.18C795.82,445.7,792.75,456.8,789.1,467.9Zm21.82-77.85c-4.84,13.35-7.39,27.13-11.34,40.89l-16.75-4.42,13.28-50.34,17.4,4.59C812.68,383.91,812.32,387.24,810.92,390.05ZM802.57,501.3c-3.74,13.51-7.22,27.47-10.76,40.64-4.72,5.57-13.32-.32-18.52-3l13.08-49.6,18.76,4.95C804.1,496.63,804.39,499.27,802.57,501.3Zm7.35-28.24c-1.34,5.87-3,11.65-4.6,17.63l-18.15-4.79c5.39-16.93,9.73-34,14.2-51.22,5.24,3.86,11.77,3.53,17.89,5.78C816.51,451.54,813.44,462.25,809.92,473.06Zm6.18-91.62c5.38,2.46,13.71.94,16.12,6.9-2.36,16.08-8.17,32.2-11.92,48.15l-18.18-4.79C806.66,414.8,812.1,398.68,816.1,381.44Zm26.7-30.85c-3.43,9.94-5.68,19.7-8.43,29.94-1.53-.34-2.09.65-2.79,1.48-11.83-2.73-23-6.55-34.67-9.84,5.74-15.76,9.76-33,14.68-49.31,11.42.75,23.7,6.17,35.47,8.54C847.9,337.36,844.35,344.56,842.8,350.59ZM824,495.65l-15.46-4.07c5.58-16.37,9.42-33.37,14-50.17l14.76,3.89ZM841.57,442c-5.72,1-12.18-3-18-4.6,3.66-16,9.87-31.49,12.08-47.62,1.7-6.47,13.77,1.94,19.24,1.84ZM856,388.4c-30-2.4-12.62-20.08-9.19-39.39,4.05-20.51,4.84-16.42,23.18-11.58C865.66,354.68,860.88,371.29,856,388.4Zm-3.42-61.17c7-15.53,3.57-41,19.7-49.56.41,1.38,2,1.95,2.49,3.45l9.32,2.45L870.79,334C865.23,331.43,855.87,332.7,852.58,327.23Zm8.54,120.11c-5.9-1.43-10.86-3.3-17.07-3.62,4.48-17.37,8.79-33.71,14.06-50.45l16.59,4.37C870.82,414.38,865,430.41,861.12,447.34ZM884,365.56c-3.44,9.37-5.2,19.17-8.28,28.77-5.86-1-10.82-3.41-16.45-5.06l13.3-50.47,17.39,4.59C887.85,350.75,886.55,358.4,884,365.56Zm17.52-63.39c-2.88,12.93-7.62,25-10.68,37.91-6.25-1.23-11.36-3.28-17.32-5.32,4.26-17.08,9.17-33.31,13.9-50.35,6.35,1.39,11.35,3.24,17.3,5.11C903.82,293.88,902.53,298,901.47,302.17Zm-8.58-37c7.93-4.09,14.88-8.56,23-12.4-4,10.69-6.42,21.95-9.46,33.13C887.93,280.18,860.33,279.62,892.89,265.16Zm-15.59,5.15c-19.91,11.46-39.11,24.72-59.95,34.54-3.81-8,2.5-14.77,4.16-22.44,13.78-4.61,28.09-13.65,39.84-22.62,7.82-30.23,16.46-60.8,24.91-90.78,3.56,2.16,9.88,1.94,12,5.55C893.52,205.59,874.13,239.91,877.3,270.31Zm29.46-56.66c-1.51,6.28-3.27,12.51-4.92,18.77-4.76,5-12.1,7.58-18.35,11.75,6.25-23,11.41-45.2,18.77-67.89,4.21-3,9.67.9,14.66,1.6C913.86,189.94,910.59,201.83,906.76,213.65ZM942,85.73c-7.7,29.66-16.11,59.15-24.19,88.82-5-1.9-10.26-2.56-13.7-5.89,7.86-30.58,17.16-60.41,25.36-90.89,4.71,1.52,9.58,2,14,4.7C942.93,83.43,943.33,84.78,942,85.73ZM963,11.1c-7.24,22.1-12.22,44.6-18.39,67.09l-14.26-3.76c4.51-17.14,15.42-54.05,18.38-67.09Zm-5.08-36c-.9,4.66-3.75,10.21-4.57,14.73-18.2-2.28-4.45-7.72-8.39-18.15l-.65-.17c2,5.49-1.24,10.35-2.69,15.14-7.2-1.67,2.21-6-9-6.5-1,.85-.59,2.17-1.43,3.17-3.24-.95-6.74-1.37-9.85-3.77l4.94-18.72,33.18,8.75C958.65-27.53,958-25.38,957.9-24.9Z"/></g></svg>